<mxfile host="app.diagrams.net" modified="2024-07-18T10:47:47.457Z" agent="Mozilla/5.0 (Windows NT 10.0; Win64; x64) AppleWebKit/537.36 (KHTML, like Gecko) Chrome/126.0.0.0 Safari/537.36" etag="XHjW2evnUO6J8psaZng3" version="24.7.1" type="device">
  <diagram name="ページ1" id="WZC0p6EqI7H_TtYnzWE9">
    <mxGraphModel dx="2747" dy="2004" grid="1" gridSize="10" guides="1" tooltips="1" connect="1" arrows="1" fold="1" page="1" pageScale="1" pageWidth="827" pageHeight="1169" math="0" shadow="0">
      <root>
        <mxCell id="0" />
        <mxCell id="1" parent="0" />
        <mxCell id="uIYsc5EEo-gaZTBiMCS1-12" value="" style="shape=image;verticalLabelPosition=bottom;labelBackgroundColor=default;verticalAlign=top;aspect=fixed;imageAspect=0;image=data:image/png,iVBORw0KGgoAAAANSUhEUgAABDoAAASCCAYAAABTtIyhAAAAAXNSR0IArs4c6QAAAARnQU1BAACxjwv8YQUAAAAJcEhZcwAADsMAAA7DAcdvqGQAAP+lSURBVHhe7N0JYBNl3gbwJ4We3Hcrl9yUQ6CCpYgcRVABUamgFtFFWBVRcAH5AEFBueRwBUXQBVllqQoCIocCyiVQqpxyFOS+bIHKUaAHpc03/8lMm6ZJm7ZJ2qbPb3fsZJJMjklC3ifv+39BREREREREROQuDOp/Rx8yqn+JiIiIiIiIiIqqac0M6UFH7W96qqtEREREREREREXN2WfXqEGHh3aaiIiIiIiIiKjIY9BBRERERERERG6DQQcRERERERERuQ0GHURERERERETkNhh0EBEREREREZHbKJazrnh4eMDb2xsllL+yDm3yGSIia4xGI1JTU3H37l3cuXNH20pERERERIWJPuuKw4IOCQ78fH3h6eWFkiVKoISy2EttQChLitKASEhMRHJysnaOY5UuXVq9j3JfiYjyQj6vEpXPqVu3byMlJUXb6kRGI4zKR7VB+SuhrPJfdZtB1rVt6ge5fjlZJyIiIiIqhhwyvax80ZbwICAgAFWrVFHXvb28chVyCLm8XE+uL/uR/ZVR1mX/jlCqVCnco+yzQvnyDDmIKF/k80o+q/yrVUOlihVNvcKcQA00hB5eaJ+H8l/9s1H+pn9Kmq8r0q9PRERERFTM5PkbunzZr1a1qhoeSA8OR5L9lVf2W01pSMjwkvwoV7YsKlaokOvwhYgoJ35+furnoCM/X/SAwjy0yAv9+gw8iIiIiKi4yVOK4OnpiarKl3v560yeJUuqYYf8zYty5cqhbNmy2ikiIscrKZ9TDgo7JJTIb8BhSd2fDHEhIiIiIiomch10eBgMqFK5ssN7cdgijYfKyu3ldhiLj48PypYpo50iInIe9XOqUiXtVD44KZBgzEFERERExUmug45KlSu7fBiI/GIqY+HtJfcvN5cnIsovLy8vlC9XTjuVO3oQ4ai6RJb0/TLwICIiIqLiIFdBh6+vL3wKqJin3LYs9pC6HM4qEEhEZEuZMmXUYDZXpBeHi4aWSNzBsIOIiIiI3J3daYAMWcnrr5WOYs/tS8Ahs6wQERUEmZHFbhJwKJ+tzurJYY0adrBmBxERERG5MbuDDm8fn9z/UulgcvtSeyM7MgtCfnj7+KJ+o8Z4sGMoQrt1V5f2HbugYeMmym3b16OEiIovPzt7nqlcGHCYc2WwQkRERETkaqZvu6MPGWt/01NdtUWmaC0MPSVu3bqFa9eva6eyqlqlCrxzMbxGftmUL/0lPEqgacsgBDa7D1UqV1W36b963klJhjHNiJs3byL60AEc3L8XaWmp6dclIjJ36fJl3LlzRztlnXy6FNSnBz+7iIiIiMgdnX12DTCtmcHuHh3OnkrWXlLwLzu5uZ/6l31vbx+EPtpT7blRpnQZnDp5HJHbt2L92u/xk7Jcjr2kNlpk3yEPdUbXxx6Ht5dPpjCEiEhnz+dQfmOGJk2aqEteMOQgIiIiIndm+rZrR4+OewICXD7bijWpqan4KyZGO5VVzRo1tLXs6SGHPKbQbj3UoSlXrlzCvt934fifR+UC6uVKlymLHk88DV8/P6SkpJi2lS6L0yf/xC/r16j3h7+OFn5z5szBgQMHsHDhQm2LbXLZyMhIfP3119qW3OnVqxcefvhhdf3PP//EJ598oq7nRV7vy3PPPYeQkBAMHTpU25K9qVOn4sSJE3Y9P5SzGzduIP7mTe1UVo74zPhGe008qxzrvOJnFxEREZFzBT/wAPr164eqVatqW2w7rnwfHz9+vHaq6Pjpxx/xwQcfYPOWLdoW22T0xaIvvkC48pw4g96jw+6go0b16oXiC7F8Mb9w8aJ2Kit7gw7dfa1a46HODyPu8iX8smGd+lcyDk/PkmjWIgj31q2PcuUrIC0tTbuGKWwpW648dm7bhD/27da22kcarlWqVNFOZXbw4EFMmTJFO2W/sWPHwt/f3+5GrSPcd9996NmzJ+rWrZs+pOmvv/7C6tWrsUV5gcvjjI2NzdPjsVduGvMTJkxQ31RjxozRtljXqVMnvPLKK/jss8/Ux5EdeQ5kf1euXMHVq1cRFxeHQ4cOoV27dti5c6d6fQkQ9Nu0FVYcO3ZMvX/WfPnll/jpp5+cGnSMGDFCfSyLFi2y+Zhlfx07dkQ5rSDwmTNn1Pv0xx9/qKeLkmbNmqmv3Y8++ghJSUnaVhOpAfTmm29izZo16rHMq/j4eNxQFlscMWzFIUGHsjDmICIiInKOhg0bqu2hyZMn21VeQUIRaSuOK2Jhh7QT5n36KYa8/jo2b96sbc1KnoMvFi7EXaU9/eKLL2pbHSvXQ1fyEnIEBgZqa9bldL41jgxbpPBok+YtkHLnDvZERaohh4dHCeU2oAYc7R7qjLLly6vBhtyuvsjMLgm3b6nXzW2BUml4SqNRFmkgS7ihn3ZmKOBI0ih+7bXX1HBFehtIKCCN3r///hsBAQHapfJHekUsWLBAO5V/Ul/lnnvuUUMhCR/mz5+vPueW7r//fjWwySnkENLIl33JcyBDm+rUqYPevXurDWT5K2HPRbNQTj/O+iJhgfzyv2LFCu0SWclQrZxCDjnfcpHnTz4kzbdZe7yvKx9GcjyXL19u8zHLvmQ5fvy4ug853hUqVMCgQYO0SxQt3bp1Q4sWLfB///d/mYoby7psk/PkMs5UWMIFhhxEREREziPfme/evYt9+/Zh165dOS9RUajfoIF27aJj69atGKy0Dz/5+GM19LBG78kh7emXX35Z2+o8dgcduRUaGop33nkH/fv317ZkJtvl/Iceekjb4no1a92LSpWr4OKFc2pdDnnSjUZTzw3/e6QHC1CiREl1vL30JDGXlpqKMmXKombte7UtxYc0cG/fvq2GNjLUQRrIP/zwgxrUSIPaEaSXSH6L3+oNfAlMateurQ49knBGwod169ZZva8Svp0+fVo7lTMJO2Q/8tilZ4Q8J/JcyF9ZrA1bkWBBQhDx6quvZukVIefp913o67JYCyv04MR8kfsgQZr5Nn1/Ogkv2rRpo/YYkcvbUqtWLTWQmTVrlnpajrd8mNnqmVTYfax8AMswpsaNG6eHHXrIIdvkPLkMERERERHZR9oHrw0Zgk/nzs0Sdughhxjw0ktITk5W153JaUGHDPWQcKB79+5Zwg45LdvlfPMhIa5WLeAeeBg8EKM0fPVZVPRA4/zZM9gdFYkDe35DzF8X4FHCQ+3ZIQGH8FDrlRhQzf8e9bSjDBw4UO1tII1SGbYgPQakYWxOhjnIeXIZOd9agVbpuSANfLmM/JXTtkgDVm94Cxm+IdeTv5b0ngIyRCUncr/k/umPRYIAc3Ke/jjkPsq+hdxXfV3OkyUv9Aa+BDMSOkjPC5l+WMIHaw17uU0JtbZt26ZtsY/0itBDgJzIbcj9kdodtobRyH2V+21PWJFXcj/CwsLw+++/57hPeb4kkDFXqVIlba3okcBLjpcedowePVpd9JBDztPr8RARERERkX2shR0FEXIIpwUd8qvv559/rq5LqPHss8+q6/JXTgs5f8eOHep6QZAnXXpw3Lx5AyVLllR7b5RQ/kqIcfb0SUTt3Ia9v+/CgT2/q7Os+JUqpRYl9fX1RcLt22q/by/vjK7v+SUhR4cOHdTGpzRqpWaC5RABCTmkV4KcJ5eRuhAyZMKcXEZ+hZeGslzml19+QaNGjWyGHRJaSO0FuayQYRcypMbaUAapbyC/7tsa5mBO7pcUuJT9ymNq3bp1eoAhZDiJ/jguXLiQfp70jtCDCDlPv1/5Jb1PEhIS1GDCmqCgIHXYSm7rTkivCHlT50QenywSAMl19IBHjotlmCXk+ZPaH0Lusx5c6YslCZL04KhLly7a1qwkwNJDjrwUSpX72rJlS7W2SFGlhx3yGOS9IUthDTlkZhWpx2G56Kydl9fZWIiIiIiI8kMPO6RmxyPduqk1OaTDgCtDDuG0oENIY/gLLb154okn1KEq8lfIdnsay85kMHjgjtKoadP2QfQJ/wf6Pj8Az/QbgKf69kO3Hk+gVp166uWkR8fWX9bj7KmTuHDuLH6L3I7DB/fDs6Rjp9yVxq80vPSZL+T5+eabb9QeFNJAlgamNMjkxaM/d9Iwk7BDZ34ZPSyQhq80amW7NbIvadxL8UoJFaTXQ3b1QqQehT0kNNAfizSoZbhLA7MxZ3Ib+uOQv/kdqmIPqYchjXRrvVVq1KihvvkkLJBQwdplbDG/7/IcynExJ0GFbJceGnJspPiOnJZjJKGUtWI80mvi/Pnz6rrU/fjf//6nXkdfzMnrQ4bdmAdHtqZiljokiYmJeQ45pD6LjDXMrrYIEREREZE9zpw+neuFCjc17JCaHUp7o3Tp0hj0z3+6NOQQTg06xMaNG/HVV1+p63rxUTkt2wtaclIijGlGUx0Ob2+1h4eXspQuXQa1atdFaNfHUL1mLfWyx6IPYcO6Vfhp9Uoc2Ps7fH39UKJkCeWAZZ61IT+kV4VlfQg9CJCGdNOmTdV1y1/zpQioLrvL2Gr4CmmYy/nSE0B6gDiC9NgwJ70p5DnW6UM+ZNiMzHTiDHIb+lAgWZ5//nl1u/QsMu9FIb1p9LBC7pMEEjJ7ii2yX72HjAx1efTRR9N7pBw+fFgtfKoHJfJXesLI7ctwFfNjI0GHhFlyefP7IypXroyTJ0+q6/I60F8L9tJnSLEk7z0Jq+R5t7zN7Mjjk2E1165ds1pbpCiRIUrSA0bCPwkXZZEipLJNzitMzp49i/fefz/LontDOSYy84r5cuTIEe1cIiIiosLt3jp1cr1Q4SZtPmlfnTt/Xv2hu23btto5ruP0oEP8+OOP6WGH/JXThcGl2L+U/5rqckjtDelSoy8yq4o0/Os1bKxeVgqVCuXSajByT/Xqan2RSzGyD/cgjd+celVcunRJ7WGSmwayNRISSONfGmQ///xzlh4KjqDfhj4USBYJFqKjo7P0Sqlfv746JEeG/UgDXkIa8zoU0siXmiK66srx10mvFbkNvdeNXF96s0jPCSEBhQQDMsuKXmjUvCaJHmDce29GYVs5T4ZQ2BtuyOM6deoUBgwYkClIsUbunwQW0sNGklZ7jqVcRoa7SACU0xS9hZ0eckiwcfToUUybNk1dZL0whh1ynOR9YrkQERERERU2ek2OEiVKqCUrZDYWawVKnc0lQYeQcEMakYUl5BBScFQatDJdrDk57enljZIlPeGrTR8rYYgedtSpWx/31KiFv+Ou4Py5M+o2R5AGjWW9Db1XQExMjHq+sBxSIUMfdHI5YRkcSKNdv7410rgTUjMluxehNOolJMhvMCF1Rs6dO6fuTxrpzgg66tatqwYQ+vAZIbclPTakoa/3SJBGvPSokMvqpGeNeWNXAiDzEEjCHhlOopNuWXrhUCFBh+zTXM+ePdVjIJeRUEIPOuS0PKdy33RSL0T2lxsyFEgfEiNDXizDHEsSWEjvDHvCDrmMPKaiHnKIN954Iz3k+OCDD5CUlKQusq6HHXIZZ8o8h1PBKSz3g4iIiIiKPj3kEHpNDr1mh6vDDpcFHaKwFS9MSkrEkYMH4FeqdPosMZI83b59C1t++QmrVy7F3t+jMnpzKOdXrloN9weHwNPLS72uDH9xFJkVRLrSSzcfIYGGDLGQ501+2ZeGsDR+ZZucJ41T6bUghVR1cjm5vLyIzBvSUv9D9m+Nvi/pWSENdtmfPizDGpmOVBrxEhjIvuW68leuI3/tIb0VJHyR68rtS30Qc3qvBHv3lx9SAFbuj3kgIsyH+shxiY2NVdf1+2QeTAgJTvRwQ0IBGXpiSfYpj1mvgSLPoQx7MQ9ZhARBUshVyPOa3fGwJPuX423PNLkSXEj4kl3YoYdg7hByiA0bNqiFR/WQQ6eHHXKeXIaIiIiIiOxjLeTQmYcd7Szafc5id9AhwzkKA0fdD30a2cN/7MWp48dQpkw5GNPS1N4cyUqD5+ypEzh/9jSuXI5Nv2yDRoEI7dYdlatUw5/RR5Tr7lO36+fnlz4EQhr90tCXYQjS60F6wuhkyIM0TKWmhd4Ald4B5uTy0iiXoQayH6m7IXUkLBvyOpllRRrmesNdn6XFsueITva5fPlydV0a6dIAlr9lypRR61PYQ17sUkNCrit1MyRksSQzv0hYI8VB80KeF3kuJTiy1YgX0ovG8jmUxyH3T64n90Eus3PnTvU8CTMsLy9kuz5jhzxH5kVixZo1a9S/8pjlfL2HiBwb88Kg8rzLzD768ZIPCT0Uyo5cTwIReV1Ibw57i4Xqz6+EHdbUrl1bfS7kPlsuRZH0xJGhKuYhh062yXnmvXWcwkGfGflWWO4HERERkRuSn8v/unjRdMIO8r3/8uXL2qmiI7uQQ6eHHZ999plLwg5TV4XRh4y1v+mprtpSrWrVbItZuoo04C5lc/Br1qihreVMAgrprSFTx3bq+ijq1G+IxITb6oE5deJPXI2T2zGgXIWKqOYfgHuq11Cnkz1+LBrbflmvXC4pfR/ketKzQoIMGYZiixQNbdiwoTrUxJzeK0PCA7m+zGhiWQ9DQoPmzZurwZL0hrEWFEmPDL0Xh1xOQqL8BgByn6UGiN6DQu6j3F+5HfP3oHlvFwljJNiScGX37t25vg9yGzKNsYQj9tYFIdvi4+NxQ1mcSZ9C9vjx44VuSlwiIiIiMvk6IkItL6C3GbIjPetnzpyJXVFR2paiQX449VTuuz1TyMqP8HNmz0bTZs20LY519tk1wLRmWgvdjqCjYoUKORaqdAVpTF69dk07lVVugg6hBxUeHiXQvGUQApvdh7LlypsalNqPnXK+XO5K3GVEH/oDh/fvRWpaKkOOAmZP0EFUEOwKOpTPD+UDRDvhWvzsIiIiInIde2cdkfp5ha3cQ1GT66BDutJXNpuFoqDE/f03EhNt18XIbdBhycfHFzXvrYOq1QLULjhCem7IDC3nz551aE0Oyh8GHVRYuaJHBxERERERZZbroEN+/Qvw91eLdRYUqc/xlzariC35DTqIiPJLQg4JO3JSUD0r2KODiIiIiNyRHnTYXYxUvhjH37ypnSoYOf1CajlNLBFRQbA3RCiosIEhBxERERG5s1wlA7du3cqxuIizyHAVqc+RHQYdRFQYlMxlzzdXzX3COVaIiIiIqDjIdTIgNTLu3r2rnXINGbLy99Wr2inbCnJYDRGRLrehq/SvkBBCes45g75f9uMgIiIiouIg10FHWlqaGnbIX1eQ27kSF2dXA8DL01NbIyIqOHmZiltCCGcMKVE/OzlUhYiIiIiKkTyN9UhJSVGLgmY3+4kjJCQkqLcjt2cPmRmGiKigSY8Ofdam3JJgwhG9O9Tra/tgzEFERERExUmei1rIl2jp2SG9LewNIuwlQ2MuX7miDlex98t+fhoWRESO5pfH4FV6dajBRD57Yej7YOFRIiIiIipu8hx06JKSkhB76ZIaTKjFSu/cUWtq5IZcXq4n15f9xMTG5rroadkyZbQ1IqKC5+fnl6+6QebxhBr3aqGv/FcPgOVvehRsvi4YcBARERFRMWX6Jjz6kLH2Nz3V1aKoZMmSCPD3104RERUOMlPU1WvXtFNERERERORMZ59dA0xrZsh3j46CJt2yK1eqpJ0iIio8SpUqpfbsICIiIiIi1ynyQUeVypXhydlWiKiQqlSxIusHERERERG5UJEOOipVqsQGBBEVetLrzIefVURERERELlEkgw6ZYaVa1ap5ntWAiMiV5DOrSpUqLJpMREREROQCRS7oKOXnp4YcXl5e2hYioqKhXLlyqFqlilpAmYiIiIiInKNIBB1Sg6N06dLqzCoVK1ZkI4GIiiwZbiefZRJ6MLAlIiIiInK8Qhl0+Pr6omzZsmoRv3sCAuBfrRoqlC/PgIOI3IYMY5HeadXvuUet4VFO+cyTzz4iIiIiIsofg/rf0YeMtb/pqa5a8vHxgbeXl9qrQn59LFGihHYOEREREREREZHzpdy9izt37iBFWZKVRdYtnX12DTCtmcFmjw7pPVG1alV1+lbpXSG/NDLkICIiIiIiIiJX8yxZUq3ZWb58ebVndIUKFWAwmPpuWLIadJQuVUq9ovTkICIiIiIiIiIqTCS3kDIXXp6e2pYMWYKOUsqFJRmR6RCJiIiIiIiIiAojGYlSrVq1LPU8M6UZcqYU/SQiIiIiIiIiKgpkIhNzmYIOOdPWGBciIiIiIiIiosJGJk6R2qK69KDD29tbPZOIiIiIiIiIqCgpU7q0tmYWdDDkICIiIiIiIqKiyLzOqGmcyuhDxqCNL8LP11c9SVQYpKamIiUlBXfv3kVaWpp6WhYiIiIiIrKuRIkSaoNP/koNRk9PT3Wdig6j0ZjrkhJ5uY472t5+PjCtmSFj6Ap7dFAhIMHGzZs38ffff+PatWu4desWkpKScOfOHYYcREREREQ50H8slO/Q8l1avlPLd2v5ji3bqfDLS2DBkCOz9KCDKR8VJPlAvnHjhrokJyeriSQREREREeWffLeW79jyXTs+Pp4/IBYycnwc3f5xxj6LkoxBLEQFQIak6EkzE2YiIiIiIueSntJ6z2n5Lk4FRw8ipDeGo3tk6PsrrmEHgw4qMPLBKomydKsjIiIiIiLXke/gMpyFYUfBcfZwE2cEKEUFgw4qENJd7vr162qhUSIiIiIicj3pUS3DWTiUxbUKopdFcevZwaCDXE4+UCXksCc9lgRSKkX7+vqiVKlSKFOmTPri5+cHb2/vTNMIuVpxHvdGREREVJy5y/dA/gDpWvK6KYheFnKbxantwqCDXEreXDIeMKc3mRTHlTCjYsWKKFeunBpySNghwYa+SNChX6Z8+fLq+c5k7T4X165gRERERMWd5ffAotyI1L+jcxiLcxXl10hRY3p3jj5kbL/9VXWVyJmka1x2RUflHwwJMHx8fPIUIkgSLR/STKSJiIiIyNWkIVuUfwiTntTyIyM5h32vDwlDTJcpU8oTgTW8ULM8UKNiCVQupWzzNuDWHSMSPXxx4aYHTp6Nx8Gj13Ej1VO9jnIj0qgyrRdD29vPB6Y1054BBh3kAvpc3rbIm14+WEuWLKltyRv5ALl9+7bDipwW9X+wiIiIiIjsVbp0afVHR3Ks3IQcpf1K4tGONdErtBYqpt1A/MVLSLyTirt3U5GWZkTV2tVQtX4toOQdnLpQEatvt8XxjatwPPJXJNyV28gIS6xx5/aNHnRw6Aq5hB4+2CJDVWT4SX5DDiFvWvmAlp4hcrv5wZCDiIiIiIoT+c6e3+/QjlK3bl28+eabmDhxIp588kmHtBUKgj1tCtPZBjSuUxb/mfwQhg1qjjoBvjAaSiI+GbiTkgrcTUaFCt6oXKOSstMU/BVTGit9n0Vy87YIfGMqXvhHT9QpLz3bDcr/bB9DuS+F5Rg7C4MOcomEhIRs30xly5ZVww5HkqAjP3U7GHIQERERUV45uiHZsGFDbc255H7Ld/eCJr1KXnrpJVSvXl39Xv/ggw+iU6dO2rmuVblyZTV0kb95kWPIAaPyvANBDUrjg3+1Qo2qfvjrUiXsT30YdzzvQQVvoCS8cLdSS9yo0QvHPTrhz5vNsL5EdySU84fxWjyu30nFtTYvYNDjDdC8unIc1R4dxTfsMD3jHLpCTiT1MqSSsy0yXEXGA+ZEZlepVq2aWpj04sWLSExM1M6xTd68ctt5mTKLQQcRERER5Yejvk+2aNECTz31FCZMmKBtcT4p+O+q2Q0lzAgMDMx0e9JGeOCBB7RTJpcvX8aBAwe0UyZ///03/vjjj2zrAOZXQECA+gOqtD9iYmK0rfbJ+TUgYYMBNSqXxAev1EetejUQn1AGP3v0wGGjP8rEHECTO0dwteaDiCtXD0klfJRLeyDl9g3c9fSCZwll3x4GGFLvItnDD82PLkatk19i2voUxFxT9i1hho3bd3Z7R3rs9+3bF1WrVsXPP/+MXbt2aec4T4HV6JDuRg8//LD6QItKwUg5+LVr18aZM2e0LYWXBAENGjRAlSpVUKlSJVy7dg1nz57FoUOH0mtW9OvXT+1BMW/ePPW0s0n3N1uhhKSzsmRHPvS6deuGli1bZhoveOHCBfXNsm7dumxDDwk55HnIDXnTCwYdRERERJRXjmpIjhw5Ek2bNsWkSZNw8uRJbatzScNefmB0tkaNGmHQoEHaqbyRdtrcuXO1U47n1KBDOd/T04D3+t+DloFV4eVdGocNwZgX0xTx12+grK8PqjeuD6+yPjDeSYYBaTAo7RuDRwmU9PEF0lKRlpwMlCgJo9LWTjt9CJ33T0dMXBLmbLmMlNS0Ags6Hn30UXTp0kVdlyDqnXfecXoGoAcdprEC7V+bUOvcGnXVmSTk+Mc//oE2bdrAy8sLf/75p3ZO4VavXj3UqlVLncpUUsTCSJ5bGbf2zDPPoHHjxqhZs6batapGjRpo1qwZHnroIXVoiHwIdO/eHffccw82btyoXdu5bE0nK28qCVxsvbnkw2To0KEIDw9XH4flmDy5bpMmTdQ3j3zg/PXXX9o5menJcG5TXkPvWVj58WC0ufUtNhzVNrrQyIUbMfGJalj8w0719FMzV+LjwW1w69sNKIC7Qzl4YPhcTHq+MWLWReKiti3/HsDwuZPwcrAfVm05pG1zsQeGY+6k59E4Zh0iHffAiIiIio38NiSlkf3cc8+p6/Kj3+7du9V1Z5OpZvMzDNxerVq1Qv369XH48GG1t8apU6dytUhvkAoVKqg/pDuLtAOlB7o+w2NuZfsaUM57NKg0egZXQoLSXPHxq4A1N5rj2A0veKcmoYJ/JVSs6Ie0pER4Su8P5f9evqVRQlm5eewPxG79GVf2ROHGuQu4ciMFcXf84HfxGOqXjEdcYir+is8+WHBm0CHDfaQtLeT1tHnzZqdPYXyuVk9g+6cTXVajQxqbAwYMUBO7c+fOYcOGDdo5hZ+EA/Hx8WoPiebNm2tbCw8JMCQFDQkJUU/LB8R//vMffPDBB/j3v/+Nn376SU0fu3btipdfftmuYSKOIr0pbL2YpSeHrTeWfIhL1zwJxWQfW7duxdixY9UPeVkkMFu4cKEaPEnh0REjRqBz587atbPy9va2GraQA9TtijemfITPFy3CIlnmTsHw7o1g+c9i2U4DMeUj7TLK8tHEF9DK8kJ27assOg2cgo/0yyz6CBNfaJXl9sw1enUGFn0+Dk87/9/qXOk+7nMs+ugNNNNOFwbd/0+5T59PxHP+2oacNHoVMxZ9jnHqk+uLRt2HY8pc/dgswucfTcQLWQ40ERER2Ut+Fde1bt1abdS7gnyHz8vw79zSf5SUHujSRsztIvVEHF3rz1Hs6TFRvpQHurUqjeSUNJSEEdeSvXE6qRw87iTirtKMunz5Bg7uO4mkmwlqjw4fX1/cPnkYfy5bhJOrl+Lu6cPwiY9B2rFdMOzfiFvxibhTsy5qNTLiiQ5lUdbPdpPfmSGHkDbcvn371EDqv//9r0tHdLgk6JAX78CBA9UCOhJyfP7550iW7jVFhLzBZdyXhB0yVq2whR2PP/64mpSdPn0aH374If73v/+pvWXi4uLUXg6//PILZs6cqb7AJFWTRNJVbB1nedNnN23V4MGD1V40Mubu7bffxvz589XHp5P9Smo7fPhwrF+/Xt0mYY88Pmvkw096EZH9Oo2ch5XfTsFT2mmrfLvi/0aEI6hyCo4um4NpcyKwPa4cmvcZgdFmLWXfB4fjvRfbo9yN7YiYMw0LNpwEanXG0PcGIv2I2bUvXzw4/D282L4cbmyPwJxpC2Da1VC8N9D6sQeaoVvjykg4uR3fyQinRs9h3Ecz8EbmIZ+u5/s0gmp5ImbvMji+r0YnvDFjLsaZfvxxqmbdGqNywklslye31SAM7tMYfjGm4zwnYjtiPGuh89D3YPPwEBERuTFpSObnxzb5Qa9du3bqugzFlnaVPhTAFYpSm60wsidIaFTdC9UreavTx5ZAGm55VMDVmMswpiTDs2wFtQeHj6+38lrwUbedW7UEp5Z9gbJHf0ebuOMYOuh5vPf2W2jRohlw9SIMx37FsTgvJBjKo6Gy7wb3eGu35Hry+omIiFBLJrh6NIfTg46iHnLoCmvYIUNQpAKx1KuQ59ZyzJh0N5MQRC4XGRnp8l4NtlI7CR1svfGl148UHrpz5w6mTZum1hjR9enTB59++qla2EbIcZF0cMeOHeprTeqP2CK9Ouzl7HSzKKjg74/SOYVDnYNRz0+CiXfw4bp9OLZvIxa+Ow97b3iiVvNuWi8Lf/Tp0RzlbuzFvHcXYuO+Y9jx9SRM23AOKZWD0Ecvnm3Pvvz7oEfzcrixdx7eXbgR+47twNeTpmHDuRRUDuqjNO+t6NQDjcvdwNG1W0ynywUgoJwfXNevyTr/PkGoh5PYuyxW2+JIAahcOW+Pcd0HL2PAy+/ia7vuVif0aKwcj6NrYXp243AwYhrenGQ6zvs2LsS7s7YrWyujeY9W6iWIiIiKm/x8r5RZRmT4thTilwajCA0NzTKk21lc+Qu8tK9y8329KLCn7dXsXh+UKOmhFhiVS6cZfXFz89cocWiT8tXqIpB4Cz4pt/D379tx5psvcHl3JIJbB6H/o6FocXIPUg/vVQu33te4Ia5dPAfPxL9xJfYqtv1ZAn4lS6B1vex71rq6fegqTg063CXk0BXGsKNDhw7qXxmeYu2DSAKOV199VV0kBHB1A97WGye77mVSeFSsWrVKDXAsSU8QeW2Z+/LLL9XXltTskHoe1rhyyE7xkoKUBPNisHHq+ELoNVH8e6B5gLL1YOaeC7HfH0UM/FAr6EFti8h+X/49mitNeKUxvSzTnvD90RjArxYy7Urli6fb14NfzF5kukqBa4Y+QQEZvUyKKN+n26OeXwz26k/uvq+xcOMp07rulHKcE/j+IyIiskYCCxmOIr00wsLC1B7KMiT7/fffx8cff6xuE1Jbb+/evepsgvJDpvzwN2PGDHVo95AhQ/D888+jR48eaN++vVqzwlFc0Qi+efOm2s6S7/EyzD6vIY6rhvTkhj1tr3ureCpfddOQlnoXvqVK4/CefWhWrxbqlyuJEnvWwe/AT0jcshJxu7YBd+7C08cX7Vo2xcb9f+BKmgGJxw6ZSgWkpuCO+lwaUcozFZEXS+HzXeVQwmC7F71w1x94nRZ0SENUanJIyCEFW2SYgTRApXdBTktBkV4COS0y7EN6GEhhSwk7pNBnQZLCPXJfjh8/rm3J7OrVq+oHo7XFFeRDyxrLoMJcUFCQ+nfbNuXNbGHZsmXqfNryuMzJB6SM/xL69S05ZuxeazwzYSFWrs14HteuXIgpgzuhmnYJXb0eYzHv25UZz/nalVg41tTn4L6nJqjnrdXP27gSi2cOVvZuh07DMOfbten7XblwLHpY3HjrZyZg4cqMy6i3PWUwOmW6XGsMnmL+WNZi5byR6PTUTKxUTr/WojRQugVeU89biZlPAf7PTcTnUo+hu5YMr9uAgzf80LzP/6F7I2Wbrz8eHDgUwZVv4OCG76G24ZUGfTkkIOaoRReBxJO4oTSA/crVMp22Y19BAeWAhBhk3dUN5Rb8oO8qnX8fBCkfKSf3LkOsWthzERYNbq5cUrmdwaYaEnOHm8aw+D84EONmzM2oD7JoLqYM75oxtEbh2+oF9TJ6/YlFc2fgDVvTufu2wsApnyuX+whvPGiRpFv2MhG+jdB9+BTM1ff9+UcY97T1udrlfkz8SPZtuuzcGf+Hp+U5Uzw3UbZ1gzwVtbpp+5qojWFp9jSGm9dAUY6lZa0UKaq6aO5w5dnKiT/6mJ5cZNspxbcWyvnlvhgwERFRcSA/VErD/tlnn0XPnj3VntrSvpB2kwxbEVJrT3pmS2N206ZN6jb5AUEmHpDZFvWg5Omnn1Z/BL1x44Z6GUew9V3ekeSxyWwyMsxehq7L48kLCX1kEoPs2hmuZk9QVLlsSdxNM6KUrwduxBsRdeAy/vnGG3ioYXUYkm/DS2nDlDAY4elbClL50MvbG8c/m4nff1qHkkrb1Ohl+hH4yKEjMJYoKQcNHil3lMt740RCBWz6K/vCa84Ms6T9LOHVuHHj0LZtW22razjtVdC/f3919g8hb1JpnOo9C3JaCorMT23PIj059F8npUCpTPVUUGTKJ5m+1VbBTxnLZ61ojyyuYOt+2Qod5PFIjw0pKiQ1RizJB7hMSyRzMVvSp/+VY+IcrTFy4UQMetAft06ux4LJkzF5wXqcvOWPNr3fwpSRGR/K1Z6aiZlvdlYam7HY8c1HmDx5AdYcuKq8GUxJc7029VDxajQ2q+d9hG9+v4WKLXpj2Nj71PNtq4ln3+qEUtEr8JGyz/XRV+FVqzNee/sZ7XzlXo5ciImDHoT/rZNYv0C5j3K5k7fg36Y33poyMj1MeWrm2+jdpiKu7ligXGYyFqw/iVul/VFh51eYoZxeEX0LuBWNFfI4J8/AV6bJXyz8ho/ficBRz8boM/pTLPp0Kga1r4yYDbPw4Q6tq0I5T3iqPTVMJzP8hhg5xJUDtEZ1zvsqJ+87pcGcdVcxMO0qc/O8WZ8gBKScw9G1cv2DiJg1DdOWHVWun4Cjy5T1adMwK+KgetlaSqO93I2D2BwxR9k+BxFRN1C5eTgGvaD94+D/HEYPlmN6EsvmKNdVa4j4yd23oi6eGz0Y7QMScHDBGHysPxcqrZfJjZPYnN7LRC4/An2al0OcWntkGhZsjkG5bk+isUVHCKl3MnVoZ+VxncSGBcr9WLABMcpz1mPECEj+tFa2TdsOGcQWs930GKctWGu6cvPGyv0/h6hlC9TtCzacU2ulDBpqK63JRrM+CApIwbmja02Blg11w4OU27yBk5tNQSQRERFltmvXLvXfZfPZPLZs2YIxY8Zg2LBheP3119Uh3WL16tVqLTuZbnb69OmZriM/ElruJ79cNaxB7vPy5cvV9fz8kCwzuBRk2ywv0lKU9tKdVFy4XhbTVt3ErbRSuHHmGK5s24TqideQrLabPJRjYYBBOR7JHiWRGHsJD/ukoX7wg6j/RB8cPKR8h928Ve0R4lGhGgzKddLSjPDxuAsvv+ynCHZmjw6pLyNhnAyt6dWrl8uGXAmnBR3yhtUTQGm06tP/2LMUFOkKZu+i/zopjzG3cyk7knzo5abIpqR9MjQkuxlKHMnWG8dW0qqPy7M1HlDS7cDAQKuPWV5nwllj+6oNG4hHankhdvO76D90Jr5V/gHa8u1MDO3/LnbEeintxRdgihuewduDWqD01d/x6dDBmLBwrfKP1beYPXYgBo5dqV5i5dj+eGbwWMxUz1uLhWMXQnIQ/3qmYTs2la6IqxtexcAJC7FW2efMoZPxeyzgVbONqWhotWEY+EgteMVuxrv9h2Lmt8p9VC/XH+/uiFVDkRe0TKRehdLA1QOYN+Vb9R/Tb2cORf+RM7Dz0h/YqZyOVf89vYNYeZxbduKPS0Ds1+/i5QEvY9I6rWnr+yCGvxeOxkrjebPawF6ADUdvIKDbeEx8zrwvxA3E5dTOtXdfN+JgX5P5AXRrXM5seEgiYk8dw7E403s3JU5ZP3YMp2JNj+W3j8firUnz8fXGfcr2fdg4/0vsjQMC6mnvlVoBqOyZgpMbPsS6fcp11RoiIzHte9PZGeqi6/8NRbdaCTj45TsZgY/O90k0r2dRhLR7ODrXAmI2z9Jqj0gdkw/w1rQo3MgUdDTDi082R7mEg/jynQ/w9Q7lfuz4GpPmbEecZz10frER4s/L40qAOuInwfQYj52PN13960l4c+yHWLhuh7pdaqVsOJkCv1pBdvTgyOyBbo2V+6EVIbWhbtf/w9D2lXHj4DIsKFRDh4iIiAqXkydP4t13300fti21OaRmnQyZt/zhMCkpSf374osvqj8oS3tE6ndIb01bPzIWBfJYRdmyZdW/eSW9CIqSKi0742KZB7FwT0Wcv5SI2zeu4fcF8/D7rztQuZQvUiVrUo5ratJtpZGUgpIlvHC4fC0ENW+G095l8d22SHw4/SOkJt6GsWodeNRrCeOdRJQsWQIG5bKpynWy48wwS35010mY5YoeQjqnBR3yJVqm/5QHI7/QS/Ah1VbtWQqKTMtqzyLFgKRHgnyQyDRIlsMoXElmJZFpWu19Q0t3MJlmtmXLltoW57IVdNh6kcsQFCEfcLkd0y/d94Qju+uZ61lPBgOcwM4plnOX78a8aDVtQJseysmn2qCml3LJnbOx9pLpElnVQ49hUzBHeY98u3It1q59G20qamdl6xxOzjbf6R84cOmW2lNEHfTVs546ZOHEzinKvcps97xoxMILNdU7qfyDek25XsU2eGvOSDx1nzam5dIl2LzLVnQaGo7m5eKwfda7+Eoa3VIc9IN38L06E0q42XSufvCz1WsuJUVtlNu9L+X1bntXZh/knTqjnp/F8JBslcUD3V/F/02cghlzP8fnn49GsPnIkXMxiEvxROMnJ2Jg12bKpUUiEi3a+Y2HD0V4Y+BoxBx8uEULGMz492mOWimZi5B2bV4LninnsP0ry/oWB9X6Fun8g1FPuU9xB9ciU36iXa5ygPVhWxl80ajTCxg+biKmfCSPcRH61Mvd+8ykEzrX8zMrQmqpLDq9MQOjw+shZe+XeOfDHdn2+iAiIiLTkHMZwqEPx37qqafUoRiWqlWrpvZwlr/yQ5/MuijDkJ3BlfUb9PqHV65cUf/mhfxYGh0drZ0qGrYfvYUVUbfg4VkSpUrcRdz1G7h89DDub1wPHv7VcefvSzCUKo3yLe6HZ6XKMNy6gSulq2LmdU/8d98JrP7hJyRdi4OxbBV4tO4OQ7kAXEsy4uapI0hNvIWUxCx9oV1GhiVJ3UV5TUtdGVf1EBJOHcAkdSMk7JAHJOPO7rsvp275hZ80pqVHgTh48KDau6Mg6dP0SPVle+gBh6um97E1RMVW2iwNVT3Jzm23M/2xnThxQv3raBVKeQG3bsNaOYJLWndCSEeTehVQGrdw+5ytyOApTPl2Pt7s2QLVcBsnf9+BDV9Nxo7s6hzobl2D0u63rUIp5S4ot239TsJ0L029YVaOnIwF0ssj8BG8Nut/WLt4JgZnLuKRg1ZoHuCntLqPYm2m9nki1p2MATxroXF6xyEr9TOU61cup/xRe2jkYl9+5dQwJ5NWlWHald7XI7dFSB/AGx/NxuA+zVHZ8wZORm3H919Ow3bzzlqxX2PavLU4eqMy2oePwOxFH2HiCw9ogYfGszHaN1fuidyuZVFOlfUipJX9ZEhOgjr8Jlu1yinPpHL54NFajQ19GYzmcka2/PHcxNkY/WJn1PJLQdzB7di8bA6WHc39P35ZipCa830Qr86YiReV7ypHI6bhrY+3IGvcQ0RERNZIcf05c+Zg//796mkJMyxJ72W918OUKVNw5MgRdd0ZHFPjLnsyJP3xxx9Xh6iL3bstf66zj1xv9uzZVoe/F2bL1x1D6p0UpFy7jMRrf8NoKIm/y1dDhXuq4/crN1GiRm3U7P8Kqj4ehprh/0TFBx7EnetXkJpwCz4eRpQq5YO7NZrC4+EBKFGuKoypd2GsfR+uXziDa0d248rxgu1Wu337drXHkavbzU4NOoR52CGJZFEOOwpbyCF27typhgMhISE5zgIjz70UOJLubjIdqyvYSoFtDU0Rv/76q/q3d+/edqfIUrRIeqtIsSbpdWNNfosh3paUoHQpq70JqqlDae7gjvTOMl0QpWx1OxjcDW0q3sGJFS/hmYFDMVb5B2r2tw7qFZTdbVfzUiOOO+qdFLvx7YSBeKrrq5jxzQ7Elm6B3m9NwGC7sw5PZN/pRjlf0oe9Uj/DD5Ubm1W8FL6N1aAjLmavcsK+fe2Voh5+lZF1VxJ0xEm+YJKpCKkdundD83IpSsN8JN4a+wHmf/UV1u24ITebSeK+7/DB2CF4bYwMq0lBQOfBGP+q2TjSlKNYJtPmBnTG0OGdMocgwloRUp3yBMjTlZnFHbgh1UWAmKhZ6hjcLItei8OaRk8iqJYn4ra/jzfHTsKHC79Sh+mkWN5GjrIrQvoA3pg6CMGeJxEx7S18aDXsISIiopzIzCri6NGj6l+ZBKFNmzbq+vnz59XvvEK/nLO4okeH/FgpRVRlaLu0UfLaI+Pbb79FbKxd3/wKlfgrsYj78wAuH/sDqal31WKjJ4ye+OzwWSQ07oBSnfsh8WYiUhNSUKJcGfg/8STKP/MGDO2fRVpwbxhDX4JXl/4oWa4y0u6mIC0tFSUq1kBa6fJIVvZ3O8V1w0UKE6cHHUIPO0RRDTsKY8ghZCybJGTSQ0KmlerYsWOW5FWKvsgH43PPPadezpWJmq2CM1JbxFbXJSmUKkNYpHCNTIlrToZASaEifQyfkKT7lVdeUdd/+OGH9GJNlmxtt9eKo9JTpD7ajbWsBN0agwP9gasnsUXaryuOQr1ku7HWZ1GRniG4g9uxZj0+WvdGPVvBSG5kc9utBwcqTdSrOKneSXMnsWHhBAzccQ7w8ke9dtrmHB3EuZgU5c3RGD3My3FIz4HGUqEzBic3K3+Obce5G0BA8/BMM5iYilTG4eT2Y8op+/Z1bPs53EAAmodn2hPCg2oBcSeh7kqhFiHNoX5Epva9XjD1htnl6/ZAY+uTniAxVobVLIN0hqgckDlgvPH1NMzafA5+zV/Ee8MfRMbXD9u9TDZrvVaCumb+suLbVXpOaCfEsaOIk9usFYQUqb1huei1ODSenmb7KydzzUgtG7PwwberGn7kilqENEE5bt9lGY7i/8KTCJLhR3M+ADMOIiKivJEGf506ddR1CTWeeeYZ9QeN1157DRMnTlR7Pcu/+6JRo0bqX2dxZfFI+R7//fdZip+5vVvxN3DjyiWUKKm04UqURMn7uqizp3jWagrvexogPvYyTpy9jlMHjuHkyu/x278G4/z/PoWhfiuUaPgASlSuAaTeUUMOo4eyj7RUZT+eMJSuhDupRtwxum74kTXyGtJLDLiSqUXc/rUJtc6tUVedRcacybSsMvWn9Dy4fPkyLl3KTTWAglNYQw6dPJfnzp1TZ4SR+/nQQw+hbt26uOeee9Sppp588kk1XJIxfEuWLHHpuDX5oNYLJlmSgqLWusNJb4+//vpLrdIr0xPXrFlT7aUh22VYi3TPk2594v7778fo0aPV2VqkiNN//vMfq8NiJFSRAji5GhcW2A3PtqmIa79/iw1HgdtRl1CtUwe0bNkZ3drcA69EL1QJfhrDRw9AkH8iDiwaj3lHb8sFcalaJ3Ro2RKdu7XBPV6J8KoSjKdfH46BnUrgh6hy6PlgHVSv1wJVEu+gcod/YPSgQJS746vs8yQW/2Ca3qTdEy+gPjJOB3Z7Fm0qXsPv326AKds3Ubcrt39y8Q/Yaeu2h4/GgCB/JB5YhPHzjkK5lxi5cCUGtvWHb6ovqjTtgpcfboPqXhex85O12K1cwL9Tb3SoUx0166XiTos+eKLyFpxqPREfjghHi5Sfse14Io5crY727Rqicbv2aCwTylQNRo8X+6NjLR/cOPgt5mw8j7tQXp8VgtBRed8HB1VGyo0EtSfES51rIPlgBGatksvctW9fl8+hQlBH5TMkGEGVU3AjIQCdB7+EzjWScTBiFladl55CnTDgxWD4nVuLT3eYZuLJpHQLdG5fBzUCKiufSwHo1rk09h2sjM7taiGgTj2kxl1F6eZPYvBLzeGX4gOfhJNYteUQ8MAbmPFmZwQgAUme5dC4Wy+0a1wRt45+j427L6N6SA/1+Oxe9yv+OBCFq/Xao13zdmhfLw5bI5X77h+O5/vUw63dn2PVgczV0G/96YHGnYPQOKg9mpdLxc2kcmje40UMelhCHuU+3NLuA84gplwQ2ivHNzi4HsolXUWKXy0EdXsS4YO6oPpPO7QCp7XQvkdT1KpcDynKx2yHbs2xb3OCcrmGqFMjCOVuxCCpVjcMGtxNeTzKLZSIU+53JC4q6xmPw3Ra2YAe8j7YvQ6RyoZOA15EsN85rP10h3JvMnu89/Oo53kOUbvj4KF8bspnZ8bih5S/42F65xIREZEt9erVS584QGYRke/3+ndmmb1CviPLX6lnJz/kRUVFqec5gxQ7tTWJgKPI45VFhutIGyC3pO0jPVucVadElClTRn2+pT2Sl1ltsu0Zo5xnNHiglK8PPJR2TKn7HkJKqx7wvLcpDN6+uHvpHEr89AWSv52NlJ+Xo1VJX7Qw3kVc6QpILF8VhpQk5frK60M5TgalqWNIuwu/0qVQ8uweXI65iLQStn/UkraRM3vtSI/7ESNGqD/GS6+kw4cPa+c4z7laPYHtn050WdAh9LBDGuTyQi4q46fkjSNf1KXwaGELOXRSlFSKvMh4vQoVKiAgIAD33nuvui5vxr179+LLL790+QwxetBhK2CwNUOK3E95TPLhLkGHfID5+/urH4JNmjRRp5164okn1CJN8qEjIYdMsaV347MkH0q2Ahdr1Dd94COZgg7gL+yM+gula9ZT/sG5H207d0CHoPrwvXMaOz6bgPE/nFevK/7aGYW/SsvlGqJl287o0CEItUon4nzUGmz47hck1myNFk0aoVnbDmjb0AtnfvwQ0RUezhRs5CnoUE6bbrsm6in/KN6v3XZ93zs4veMzTBj/A/R7WbNtb7Rp0wJtOyiPo20zlJPHsWAC/r1PYhClSX0oFYHtgtCoSRv1Pl76ZSV2l+mMzvXK4MaRn7Dt+F3g8m5sP5qCWg2bomnzIAQ1r4caUuNi+5eYNn+XGqiIW4ei8KdnPTRvGoTg9u0RVK8Eru1dgXmztyC93JRd+7qFQ1F/wrNeczQNCkb79kGoV+Ia9q6Yh9lbtD11fQYvBnniyJfz8dtl06ZM/j6MhIAgNG3cFMHBTeEZsxm/rN+MS+WUfTZtiKDg9giu54lz38/D0codUU85BmrIoBzP4GDlfrVpp9yu8hhqKY/hwAp8/ukuyGCgzAHBXZyP3Ikb9dohWMKOWnE4WqcjegbEYNusdThiOXLr7insOJqAespjb6w89uD2wWhcMQG7F61GSssgVNPDFsU1eS5TaimXa46Wyn1tr1y2ea0ySD55AL9EHoHpIR/HBW/l/ObyeIJQOfkI1m1ZhQtJ9dCwcUM0l+sFVUZC1CKsTmmJILNgI/ugoyueeTEInke+xHwrT27zzk+invJZ2VR5fuQ5yrzUQ4lVWzJmmiEiIioG8tKQbNu2bXqtOvmeK9/lly5dqi7Vq1dX2yV60X4JPNatW6euO5p8j5cfE51NDzqkEexuQYd+7LN7DchrJFVZSnp6oXz1GujYsIzSVmiJG0rTpYSHAQYYkfbNDJS5+TdCOvZGgP+98FO2JpUqjUsB9VEyNVXdvzEtFSVLGJFUsiy6lT0FY/RGHI9TzpMbyeb2nRl0yOxB8gO8kB/hZQpkZ8+8ogcdpkc1+pCx/fZX1VVXkBeirQZpYSVdbuSFXVRI+iohh1Qtzk0D3xnkw8DafZA3tdzH7LrESbc9GZIj4YY1sl+p5LtmzRqbx0duR2Ziyc3xy8s/SlQY+OLpcbPRw287xoz9yr76HC7RDG98NAKNY77EkA/snQWm8PF9ehxm9/DD9jFj8VXRGwJLRETkcnn5Tvmvf/1L7Y0tDcItW7Zg5cqVuH1b//nI1MtDhrPohUplBhYZ4uJo0mZzRdAhv/b37NlT7aWel94S0mtAvuePHz9e2+J48iOy3obN7Q/HOb0G9POl106DdiH4R00jrldtjB33PII/T12Cb9kySN69Aff88Bna398NacYUPNQiACu9a2JDuftQBqnqFLTepf3g41sKLZP3ofXf32HGdydx8Vqa3IDNoMPZbR6pIyl1F4VMNTt16lT1Np1pe/v5wLRm0sdF4aIeHbqiFBjobM0SUlhJNzapY1EYnmt501oLOuRNpU8/bIv0oJHkT7rkSQ8PCSzkTSI9VCS9XrBggZr+Znd85ANJH+qSG85805OTqMNDauHytllYl6XbRAHqNAAvBnviqK1eJkWCP8Kf74Nal7dh1rojKHqf4kRERK6X2++TcvkXXnhB7a0s08bqEw+Yk4KbmzdvVr/fyq/lEhCcPn1aO9dxpBeDs4etCOnl37hxYzW4kR9Bc7vIfZQfPvWZG53BmUNX1POUxr8EAJ4piWhWCqh89RTuLZOCSvUa4/JtDyT7N0CqMQUNLp9Fty7NULa8JyLu1kJy6YoomZaCUr4lca/XTTySsg33316PeT+ew/FY5dtaNiGHzpltHjkmUnvx4sWLav0VV/wAX6A9Oqj4kRe4rbDBz89PXZxBAh8JR/LyBnZ2wklERERE7isv3yXLly+v9miWIen2kKErUsA/r1Oy2iLDy6VxTybSVpHnQ9o0Uvcwt3LzWqhWqiT6ta2B8k0eQFzp6khOjMWetOY4bayKe49G4sWqCdhqrIat5QNRKvES4FECHqUrosGtXWh6ZSO+3/U3Tl9OVoe8KLeq7TUrd23r6D06TI+MQQc5mfTckJ4Ytki3OOkO5kjSy0NuU97ERERERESuVJQbklI40hW9OYoTe14P+mW8PQ0od/8jQIN26FQyEvcZDuPE3Xtx1qM24m+mKu0mD/gl/41jZUJQomJtJF45h4Q/NuHqns0ooR42af+4X4hhDwYd5HK2anXoJDmWwMMRH6rSk0MS1/yGHEX5HygiIiIiKhhF+Tukq2pzFDd6uyTn10VGSOFRqjx8azRCh2qxaOF/C15KM8nLxwsptxOw7m5n/JlcHXdP/o7EM4eRlmyq41Jce3LoGHSQy8mbKqeioBJyyMwxeZ2zW25DupPJ4qg3sLt/GBARERERCfkOLsNh+N3XOQq6XSG3L4pD0MH+SOQy8oaSEEOfB9wafbiJ9MawLLyUHbmehBtyXSk+6sg3r74v/YOBiIiIiMiaovx9UX5wZMjhXPLcFvRrpLgcXwYd5FLyASqFfLJ7g8l5UrhUn2FFggtbHwh65eOrV6+qQUdRmx2HiIiIiIo28++pRbURKfebIYdryHNcUGFHcTq+DDrI5aRLnFSUtmd4ihQxlXnDZWpZmXrKcpHpZ10xTZHgBz8RERERWSrq3xGlt7VM05pdr2tyLP01U5R7ABV2DDqoQMgHqaTGXl5e2hYiIiIiInIl+S4uP0ByhhX3JEFKcQ1T+IqmAiNJptTsKF26NHtLEBERERG5iHz3lu/g8l2c38MLjjN7duj7LK7Hl0EHFTgfHx91rm6ZXpbdt4iIiIiInEO+a8t3bvnuLd/BqXBwRhgh+yzOIRaDDioU5E0oRUql65x0oSvOb0oiIiIiIkeS79b6MJWcJgYgcgcMOqhQ8fT0VLvQVapUSf0QlsRZipbKuEF+IBMRERERZU++M0s9PPkOLd+l5Tu1fLeW79jyXZuKJvOe7+wFnzNTy3H0IWP77a+qq0RERERERERERc329vOBac0M7NFBRERERERERG6DQQcRERERERERuQ0GHURERERERETkNhh0EBEREREREZHbYNBBRERERERERG6DQQcRERERERERuQ0GHURERERERETkNgzqf0cfMj68b7i6SkRERERERERU1Pzc6kNgWjNDetBhnNpUXSUiIiIiIiIiKmoMYw6rQQeHrhARERERERGR22DQQURERERERERug0EHEREREREREbkNBh1ERERERERE5DYYdBARERERERGR22DQQURERERERERug0EHEREREREREbkNBh1ERERERERE5DYYdBARERERERGR22DQQURERERERERug0EHEREREREREbkNBh1ERERERERE5DYYdBARERERERGR22DQQURERERERERug0EHEREREREREbkNBh1ERERERERE5DYYdBARERERERGR22DQQURERERERERug0EHEREREREREbkNg/rf0YeMxqlN1VUiIiIiIiLKXuTve7HvwCGcvXARCQmJ2lZyF35+vqhdozpatWiGkDZB2lYq7AxjDgPTmhkYdBAREREREdnpwl+x+Gb5DyhVyldpAN+P+nVro3SpUtq55C5u3b6NE6fOIvL3Pbh9OxHPhvVCjXv8tXOpsNKDDg5dISIiIiIisoOEHB9/vgghbVph8Ev90bJ5E4YcbkqOqxxfOc5yvOW4y/GnooFBBxERERERkR2kJ0evRx/Gg23baFuoOJDjLcddjj8VDQw6iIiIiIiIciA1OWS4CkOO4kmOuxx/eR1Q4cegg4iIiIiIKAdSeFRqclDxJcdfXgdU+DHoICIiIiIiyoHMriKFR6n4kuMvrwMq/Bh0EBERERER5UCmkGXh0eJNjj+nEi4aGHQQERERERERkdtg0EFEREREREREbsOg/nf0IaNxalN1lYiIiIiIyB7nrgJTfzJiSZRR2+J4tSoCtZVlXj8Pdb2gvDHqHXw8/T3tFBVXfB0UboYxh4FpzQzs0UGF167JMBgMMLwfqW2gwiL26zD12IR9HattISIiouLm1xNGNJuYpoYcEkA4a5Ew5dcTQPeP09TbJCLKCYMOIiIiKrSkgTM4wogeSgNH1omo8Jj2oyl06BdswKF3PZy6jHnMoH4G6LdJRJQdBh1FyYUIhEkPB0ct7ClR7CSd2YcVi8bh9b5d0KV5QKbXQ0BzZVu3QRg5YyFW7IrG9STtSkREBUQaNfqvxfqvuZZhh5yWX3j5Ky+R68n7UswLN42Gdxbp1dHvAdNtnGXgSUR2YNBB5Pau4/SPs9CveQB86wQh7KXJmLtsEzYdyjzsJPaQsm3jQswaNQhhIU1QwTcAk3drZxIRuZgecoiH6pt+MZZt5mGHfpkeH0uPD+fWCKD8k+Mlx4jHyb1ICOEK5sNYqHi6eu06jp88na+Fig8WI3U3UtciZBzQZwlilobDX9tcJOmP5b2dMI4P0TZSrpxZgZEvDcGszRJq+CPw8TAMGdAPoSGBqONfHj6mS2mScP16DE5HRmLT6iWYO28dBkYa8XZb7WwzUqMjIHwFekfEYPlzRfpVRkSFkB5gCAk51r5h+l1GhrDotQDWKdt+PW5Ut+nkV2UJRKhwKjsszRRY/W1E+wYGjHk041g5IvyoVUleLzz+riTHVN6PMrTEFeRzQT4f4mcXzG+1LEJZcH7cuBnrlCW/KlYoj2GvvqT+zSu+Dgo3FiMlcnOnV7+OdnXC1JCjTp+Z+OX8aRz54RMMeSoEgVlCDuGD8uXroNVj4Rjx6VqcSozBQKWB4U6STqzDrNd6YNAyFlElKqxshRxCDzLkMmrPjmvaGVToydAiOZ5yDMO1IQg6mbFDAqv8LtKrp0hLM2LG2DR8dUo7Lf5Iw9OzjTiWop12gN8WpaG5ss8bciLeiM+XKeumtxxRoRS1e58ackg4Edy6VZ6XBvXqqL1C/rd0pbZncmcMOojc0Ollg9Cl11xEIgRDIo7gyNIRCK2RNdrIlo8//Ctr627i+u8LMXLeOly7q20gKnKUhtCwNDy/3kUNukNpeHh8GpZd1E47WXYhh8487JjqxkUJz65UnvtZRpzVTrvMMeV2R6Xh82PaaQepXdGg1laQUGP7SW2jRmovSKHJ/C7OrhPhdEeNWJWoPFfVtdOKA0eUxU/Z5qltcJCzZYFysqLs1+e0EWFfGuHK0lzy/uUQJrLX8VNn1L/du3bG832fytciYcnfV5mSFwcMOojcTNKuyejXdyFOIwSTfl2HT54LtNJ7g4goZ2ePA7/FA1VdEHraE3Lo3H+IihFb/1Ce+5KAXZ2rLxnx/LA0dRhBTssPcdp1bDirNKx/SwEa3attcBAZ3iBDVWpVANrXM63r9PPyuxT118RvUcp/2hjQ0dt0Wnp4bNsPDH3Q4Lx/x30NeOENAx45bsTHym25irzXJfQqnq5g/cx38MbMrWD/0tzJz3AToV9fenWQ+2PQQeRObm3CuKfGIRL+CI9Ygrfb5+8fBCIqzoz4LVr5U92AxnrDy0lyE3Lo3DrsuGjED8pzglNG1LQSVsgycKNZI7EKMPd9A85nsyyUXgK+QO1sQysjtkpjVzkUj4+yfrtlF+a9cSrHS1/IwnUjlv4BjOqe8dwk/W7EHOWtEFzDiBvxtpcky2EnidYvpy/l5KvBXWRsSwFeHmJA37qm00T5FX9kLT6c+j0Oa6edRYa0yEJkDYMOIreRhMh/j8SsWMD/rSVY+FwdbTsRFTl/WGlgqosR7ytn/7DOaOU8ZZlixCXTHvIvXvkSqeysYwOgmrbJGfIScujcNew4sBXY4Av8bCWwON/HdJnGAWaP28OAcmWzWUoDZ2KU49jIgBbaVaxJ+sOIz68DM1+zcrtjDXhZuUzHiqbLkmOd3WzErvsM6Kb/PpFmxNKfgEu3gYfHG1Ezm2X1Fe06mt++sX45fWmzRbnQIYvt041orq3/ZtoNUZ4l/HUKp68lSZ7mVFJrQxYpVEpkiUEHZXL96CZEzHgdYd3aoa7BAIO6BKBJaBcMGrUQ647ms6tXXDTWLRqJQZn2Xxftug3C5K8jEeuAAaJOfwyF1YklmPSOpNq9MWtoaIEMV0m6EGl67kPqas+7AQHNuyDstblYdyKPz7vymtn09VyMfKkLujQPSN9v3ZAwvD5jBfbl0A2bqEgKtNLQ1Ja3lLN7dbJ+3vlhDgwlzhixSvnTp5XzgoT8hBw687BDusLLPou0S0bMiFKOcWcDHrASWlzXGrUtapn+2uW4ciyVp7lvE+20VUqDeY1y83UNeKZR1tstl2iElO14oJb7BUsFTjnm720D7r1HyoJrm34xhZoH/+2B+LEG9FLWf56trFtZ+lh50/fqbrB6WVmO91QuoBzn81bOk+UB0y6ICo1K2pCTShUrqH91UnNDSKFShh1kiUEHmZxZh8l966JCYBf0GzUXKzbGwr9rKELVpQ6SNm/CwhmD0COwAgJCR2KFqSZQLlxH5Iww1K3SBD1emoWFG0/Dp7O2/84+OL1xIcaFt0NAnS4YtzGPDWKnPwbbpC5GO2mAh0zGvlyENXm9njX7Vs7FOuVvq+njEF7DtM1l7p7GiuFdUKdmO/W533mrjva8h8D30CasmPc6ejQIRJfh62DvDObXZYaU8CYIUF4zXcJfx6xFm3C6dBPtNROIxF0rMHdUGIKqtMPrq63vVabB1YMRNXQJX6FuXxGeEZhkLGGIuKCeTVTwPK00NNVFawj5wcp5ylLKcY1QKYJ4yVdpUDu4VoPOESGHTg87ZJ/qbCxFNuwwYsM3RvxQCnirq7VjacSxc8qfaga0UF4L9jqwD/hD+dsx0PbrIynKiLGXgPFPKK8jbZu5G8rtblX+tqhtOp0XPZRjI8dc/sosLCRMx3yZ+fCT60bMUP5BfznMgNpO+KZeTYKR28oxN52kwuzuNexe+R9MnvieOqXpG6Pew6iZ/8Gy/daLacaf3IEFc6ZguHbZtz9dj8M3/8ACOf0/5UPdguny0zF8tFxeWcZNxwf/24HTidoFNAf+J+d/gwPa6QxavRF935e3YrKyn8kbJJE9YrpdG7edGzJjysQxw7PU6JDtDDvIFgYdhOsbx6FdnR4YtywRof/8BGujryHReAo7N/yCX9RlJ04ZjUg8vRML/hUKbJ6FsJAumLzdzkDiVjQWvhCIdqNW4HT93pi57giupcTgyCZt/5uOICYlEac2fYKBgUcwuVsQBi2ztzls4vTHkAOftiMwa3wrYNc4DJln51jBpH2Y9S+ppxGCSR+PQKt8dcHYh00Rcrut0K+rcj9c6e5pRLzUDmH/Po1209fiyBUjYg6aP++JiNk0E73rx2LTv3ug3/uROX+52j0LQQ16YOTX0fDtMwlLIk8hMcWIU5HaftXXzDXsjRiiPHuRmNurHUZutLLX0nrgoi3N/NXN/s3MtqUvdVC+pHo2ESmNLymCmNNQh7wyDzmkEGV+Qg6dhB0SmBTlsOPseiOGnALGK4/l3u1pePpTI46ZNziSga3K+R0Dc9FzRytoWa2ZAR1shSOJRrz/DVC7jQF9rQZbRuyXei1KG6NFHgvT6sHGOuVYt29gwPYT6kmVzL4hr4f8LhKgFLXjrh5z5avIJ/dpG5Tjtexz5fm+z4A3lGNm7rpeU8NsyVKfwxap26G8flRVDOh1yWxGH5nWdpTFtLZU8BKP4Mup/8aXUdfge18XvBj+NF4M64iGiMG2iH/jg58zj1lKPPQNJn22Hkfu1MUjYcplw3so7/k/sfDDNfhTu4y52E3zMEG9fC088pRc/mk8dX8FxB9ajw+nf4MDFmGHXco1wZOyn2allRM10UHusywdctMFLSsJOGwVImXYQbYw6CjmpEdB926TEekfirc3ROOXz4ege+PyVoc9+NwbgoEf/oLoDW8jFJsw7qHumLw7pyar0gh+LRSDFsci5I3lOBW9HCMeC8zaoCzpgzqdh2CB0jBe0j8RC4eOwwo7sw7nPwZ7+CBk1EyMUNrRkcPHYaHZFzhb9s0bgnG7gJApczGidb5SDuDEXqyTAnIt+yG0pWmTa1xD5NR+6LcxFAuij2D5W90RmOVLsA/8O4/A8t9/wdvKfYt8Zwhm7crhOb+bpIZin0Rew6mlbyO8bR34ZHnNlEer5z7BunUj4I9YzHphEjZZ7Nb/8Zla4GJaloxtp25vN3ZJpu2mZSa6m3IQokLEiI/HpmHGHhu/ficb8dVsx08FKsNWNihfcl9opp1WGXFgpdL4Xpa/X+LNQw7xkNLodZRalUz7KophR9IfaRi4DujQ3YC3pIEbYECjGCPajE/Dx9rxvxGlvB6Uv92a2P+cJSnXnaMcy5eD5dPYCmlYf6zs1xeY1cfG7B5KA3nbUaBjSwPy0aFDJcGWzLxi7pz247Qcr/wsMn2t7L+o0I/5lJc90Fj/Rq4812dKG7DwxazH4mnzmhra8rGNH8qz1PEZbcSQLdp7txrQSPlzNsZ0Uoqefl5KOb4O7r0l4Vam+2C2CDlm1s6Tzwf2+LmLA8u/x+7bAej55igMf+pBtG55H1oHd8SgkaPwYjMfXNjwHTbd0C6efARLlh1B4j1dMGr4s3gkWLlsy/vxyPNvYNSDFZAls7i8FQt/ikHJ+57F5JH65e9D6FP/xOQ3O8L/trK/1dbikRx4V0FTZT9N7lE+UFAGDeU+y1JLgg/nYdhB1jDoKM4urMBAdYaOEExauRaTulpPSi2V7zoJa5e9jVbKNce9MRfZ9V84vXgk+i2OhX//JVgypzfq5PSLeck6CP90BSbdG4Ehwz/RNmbDBY/BbqVDMekraXSvw6CxEdlPGbZ/lvL4IoG2kzD3X62sf7HMhdh9m7BJVrq2QqC6xTWurxyHIe9Aee4XYmDjHB5F+VCMfG+I8vzsw7ivNiHbvjQ1euPIvuUY0jbn41n+sXGYO0BZiZ2MFXkd9kRUWEngcFv5622jYeutNH6VxspX+ywaBbmYbrTsoqwNikvHTMMUOtxnfrsG3Ks0UDfsVO5TPt5qEkAIZzZIzXt2FA1G/HFI+TxrY8DcR0zPebkGBkx+x4DvlA/1OV8Z8fjCNHwu392V562XtFLtYsRSpSF9SblO30zH0oxyLM/cBRa+4YEWNmbXkSKlXylPZZ8H7A9YLD1U36AGEdKIlVoq5mGHTA176F3r9SJys8g+ihSl9dm4uwF9ArTTwteAt16zPmTFWo2OtzKFkRky1+gwYHUT5eNC36fyt0V1IOq48t7Xip72VY6BM4bJqMGWlUWX3XnFWvIBRP6RBN+gLngky48wPmjd6X6URQx+36OlhMf/UHtgtHi4I/wtjqN/6INZeuadjopSvqcG4NHHm8hkTJn5d0So8hmTuPcPp8+aYm7OZ4tMw1zyuEhRUp2EHcdP5q53OLkfJ3ykUdGQhE2fDkGE0hoP+XAu3m6bu6a2T/txmPmW8sm7ayQmfW2jSR+3DrNGrVA+MIdg4YfhsHsOkNIheHveTATE5jS7uAseQy75dB2HhYOVfS4bgUmrbbUETmPh2JGmcCbfQ1ZMYk6oMQdCG9TJd2iSG5uWrYBPLp778l17Y6D8gz1vE/Zm16mjRiAC7Q7/yyP0qSHq2txf93LMMbkVPXB4oIHpdFYGdGgJ/LHfiAPmbfrywFsvKI0be5bO2nXSGRGlNLrRxIBgi4ZvuQ5K41vZ9vnmvP/aWltpyEg9jXn98t5ozsnox0w1OxzZW8S5DHgg3APfPW/xK76nAd0GeuDnp5RGxx/A+1eBFzra36tC6m7IdaSXwKUsP+lqKioN67EemRvbmWhhSS0DnpApavNBggh9ccfZcnLLJ9gDn2jBluMYcT1eWzVz+W+gcTX9tgxo0Vh5H0cDx34y4nXldfZyG8cfDwm3zI+5+SIk1LB2nixy3WLtxi0ohwyVKlcxnbZUI0D9Xn3hsmn4Smys/K2CmlXVk5l5ZP2VMV7ZPzyqoJq1gjwoiTo1KwBpV3DBRQXfr14zfWfWh6jkdSEyx6CjuIpbh4ipSuPeX2mQ/zMvNR18EPryJHRX1lYsWmu1wOTp1XMxV7mJ7u+NQPfcjult2RtDHtPWbXHBY8i98ug+di7C/WMxV9n3JuXfEUvSy2XQjw4asqJJSjQFNf7ls+TyTjYQI/vn4rn3CUI7tWfhJuw7qm5xiPLN26G3rJyIhdYTl8gN2A4czLVQ3oL3KY1YGVqQzltpyNxvQEd7lnstGhRKI2nbOeDlQPmUtOBhQK92wIZtRmzVx/vnktTjkHoazia34YrbcYXaIQY8Ih/vpYB/drDzMWl1N1Ad6KO8Pvp9nLeph/WwZPJj1ouUkutYrdGRop1p5sZtoFHl7F8nte8Huh0xos164BPlfeKM3hyUf57entqadb6e5iGGD3xz8zXQuySy33tJ+Gbzb48jSUgx9JUBasHRvC760BUh6w3q2f0TK7kpfqwVU9cjN2Gh8tf/tTCE5nXYXP1Q9O6q/N0YgU1ZalKcxqav1yl/u6N357x80NRB6FOh2rp1zn8MeVSjN2bNCYd/7CyMnG5RePNMBEa+sMJhQ1ZMYnFaa+A0qZmlf6Nz9QlFu1yFWOURoN7HfUhyZNcLf39Tj6GVp7MfMkRUlFw04qtzwFtBVgIHc40MeLkiMGeH0ujRNuXHjf1GfK787dbSekOpttLQfiENWBZZ3MfQu4oRv0UY8X4iMP5ZA1rY881Nr7uhrM592QNznweqKa+nsetzecxijBgiYUkTA/6Z7dS05ApWa3RIkVgLZ64o/9pafC86cwm417xzQGXltaS0chu1Ud7PTppZifKhXGlUUv7EXvzLdNrShRj1Bzp/f1MXDk+118Y1/G1tMpbkRNzVVnVllf0jMQYX9BofmdzF6fPKjnyrwL+MaUu1qjLW7C4SLAPutBicv6ytFyAZpiJDX4SEHFKzg4hBR7GUhL2/zlXX+rXNzwdBHQR1lkbrJuyLthimEbsPmzYqf7v2Rmh906bcCrg3u/vmgseQD/59JmFWH6U5//4IzEovdhqLFe+MwAoHDlkpcM3rILfRSsC9poKge087MJLw8YVFbTuiIu/AVmCDL9Dr/px+wTfgiY7ApUNGrM7LT/aZaLNr1DUg2NYMHeWBPs2Ar7aazdpATmLEgW+M6LcfeEBpkL5hq86GuTQjti40YuBFYPwAA7opx8tHeQ19eB+w7Ccjltnb7S3RiBkfK5dXXoNLXrBRpDSXpMCkzLAif6WGCuWO1Rod+mwtujjgaBrQKMCIS+dMvT4uKc/5KuUbf+30qXpM4dlXXoC38rlhPuztwLq0vM22QY7l3QKtm0idjF+wPsvXpSTs3rIH8R4N0aG1KdGq1LguKuGW8t17j0Xh0bs4/dO2LLU26tzfQrl8DH5afSRrodLYrdh0TNnnA8FoqG2qVEFSsj9x4I/McXrinj+sTDmru4ZYBw59sVVzgyEH2cKgo1iKQazae6E3ghrk76uL3mjdecLiw+dMNCLkb9smpl/a88CnTHZNVxc8hnypg/DpS5R7l1Hs9PrqSRgis884cMhKQetdvwC6Bd66jtijkdj0YwTmzhiH1/t2QbsG7TBOO5vILcQojcwooFdn+37BLxesNIKVy81el89eHcnAhiPAy8r3xPRhCjItZZzSMNqjNHqXpeH92UbMPK5sVxqqP9iY8YEcQAssno5UGqgtDVhjWb/DmhQjfvjUiMcPAW+FG5RGsB6MSA0Q5TWirI1dbMcQlqtGvD9FWe4A/1NeWA84YFSkBBuDlxix/SQw7UcjfpVCmGYkAMnvwpk6lCbwSeV9WtmARmUNuK48J9Lro8E3QMenlNeA+lmivJcXGfGw8h5eMt6Al5Vju3h7xvOWrLw45pidJidKjsGR/X9gt8VyOFb6X5RE62eeRQvfGKz5aDo+XLnDdH7UViyYOR1fKu/xFs8/jdb60JJ7uqBPkPIJcWwV3p2zFpvUfe3Ask8+xIKbAemBRbp7HsGr3QKQ+Mc3eHvmN1gfZbrtTSv/g7c/2opYZX+vPpZRuMfzvgfQuhRwePk8LPh5j3bZeZi0oyRaSNcTC/41asJX+a7+y5qtymX3YNmmPMzgYkYKjUqYYRl2MOSg7DDoKJZicVotTFxHevzni3+dIPXvvluZv1rHnt6r/g112lAK5z+GfLs3HDM/764WOx3377mY9PJcxDp0yIquPPy1bqcO7SVRSCRd2IcViyTQaIe6BgMMZSogILAdunTvh9dHTcbcZZsQWzkkz4EaUWF0428jyivfMd/qascv+MLXgL4dgGea5TDMJRtJMUZ8Nd803GHrRqWxPEqblWW00lh6X2kYfa2cLwGH8qX2n88ojejywLf72SByijgj3n9XOQZ/AI90MWDNADtCDrnOe0Y8f9IUcoy3LPapvEaGPgpcumjEjG02jluaEcfWp+Fx5Xh/pZxcPdYDvWwWKc2ds1eNaiFaqZsS/oAhfUpZIbOwDI7I/9Lj4yL+ekzV/uaZEUp7FR2VzwEpWNuoj9bz498emCy1XSQ8+48p5Fg9UgIs5XPjKeVryjojflN/1jeqU842DrDzc4fy58YRrIz4Dl9aLN8f0t4cvk0waNRghAeVwd971pvOX7kVF/zux4ujRmFQM/NPhZJo+uxwDH+8CSpd22Pa73e/4Xz1RzE8/L6sM6so/B8ejAn/eBANcQrrl5tue80fd1Gnxz8weajF7C3eDfHi0KcRck8ijmxYhS+/+R7brir375UuqFlCu4y5xo/ixZAquHv0F2W/a7E/0QFpqRX6TCsMOci20YeM5CYiJ8m/8kb0WWKM0TZltdM4SS6DScpaPum3917mPcVE9Fa3946wfS9yZGPfJs5/DI6x1zizrdxPWUKMk35P1LY71t4p/upttPpwr7bFufJzfO2+bswvxpl96mjPnSx1jCFdQ40D35pp/CRirfGXyCPGmGv682nf68Ehr0uiApVmnD401djvpzTttAPtTjXWfyvV2POdVOOIBanGz5Tb2LI7zXjmRpox8Y52GTP7v041lnkz1RiVqm3IpW3H04xllMfy6hLHPRbZl+xT9l0kXUkzfjlXOQ7KY6g/LtW49E87HkdqmvHoT6nGLtp1Vl3QtlujXHbOGOW4/Z9y3JK0bULZHvtbqnGIcn15/vopz+P1PB5XW+SYNJ2QapzyY5qx+xzTX93Zv43q6fwu/9tVRI+7IuoL5bn/wsb9j00z9lOOS5R20qbTqcYw5XJfWnsNKK+t95TjW/+9VOP+G9o2VZp62+rrbbNyfeU9vcX8tZEDeb3Icc0teT3k5X0qtyW3WVBef2u8tlaEpB4w/ke53299d1LbUPQs/naF+tz/eeKUtsVk1+97s2zLyTtTZuX7OBbJ10ExItmG8n2fPTqInKsVQntrCXPLUIQ2dmxfDl1AfVPh1n3HY+C4SiMF5/Tq19EuoAtGLgN6v7cEv0RfQ6LxFHZu+AULpo/AkOe6I7RtIPzLO+f5JCqW7vfA8ekeWD3RAzMHeuDlR0yzstQua4CPldL8LZoA3RobUM3KrA+UR8pz+dsFYOizBuxWjkMfe6bHVb7J3bgCNG5vuk6v7KaA9TDghUeBNzob0Mj8mCr7iNoGJNY14FdlH/8LN6Ccg78hynShMqVwrQpQe3SMeTTjsck0o3I6v0txn7I2KRnwb2NAX2uvAeU8n0DlNfK2B1pkqr9jwAMvGjC3BvDeSuX63ZX3vQtm2pDXQ7GfQtZV/jwFGTiiFy51J9KLg7OrkC0MOoo1d6g2VbgfQ9LuyRgyah/869eB//7JGPFvi1lYHMS/VSjUqGPeJux1xg24kDxn/XrNRWTbt7E25hSWjw9HaOPyDh7uQ1RUGfDWbKUh+kghaCDc54HvXjGgtoumHywWAgz4ZIoH3gjJTdCgNFSf98Anfey7TrkOHpisvH4yX9aAXiM8sHCAAS3Ka5ucQBq2EkYU90DCmgcGeCBeef6tqmbA/5T3/QPaSVt8GimvA1u1XKornx22AiwPA7q94oGDym18Yu9wOSoa0q5g/U97kWhWuJSouGDQUSz5w1+mVEU0Tl9QN+SZXoujVWmLf1ZLmk6vcGiBT3MueAz5lbQPs94Yh0j/IVgYuRNz+/sj8p0RmLXLCUlE/SB0bykrS7ApsignHbFYMV15ztAKM+dNQvdc1F9xh9iOiPLn3N9qb1UiomLmCtZ/8jHmf7NeK0T6ByJ//g4fTv4Ya/7yQcMnHskoXFoENahrKkYnNTnys7w79UNcvXad9TyKCQYdxVIA6qiN4hU4ckbdkGenT+xU/7azmH3Dv6Y24f7xGKXpmjd6AGGd8x9D/iQhcsYQjNvlj/A549C9sj96vzfLNAvLv2Yh8pZ2MYdphd5Duyt/YzF53oo8P+cF7sImLF+m/O06BL3V42unM6chM2ISUdEhv+7LkAWZLaPHx2n5XppNTMOvJ0zDINglnsg9cVpiWyqgTpMKuHFyD9ZoRU0jNv2JxErBCB86FG+EyPSwRZcEE927dlZDiqjd+/K8yPUrViiP4Ptz8yWTiioGHcWSD5q06q2urYuUiU/zah92rpAmdW+0a2XR17VxKwyRv4t34kieOhgk4ci+Fdq6NS54DPmQtGsWRrwTCf/+szCpj9YtIX0WlnFOGcJS5/EhGCI3tWwEZm4sor06LpyGetRb1kFuCv1fP7jTdD0iKlLUmg0VoQYU+V2kAST7kn0SkWs8VN/03pOZc5xNZtYRHPpkTUk0DH0e//f2WHw4/T18LMuUsXj7tR4IqeEeQ1Ye69oZE8cMx9BXBuRrkX2wrkfxYPqkkFlXpjZVV6mI2zUZhpBxQJ8liFkaDps9/+NWYFCVMCz0fxu/nJ6E0LyM2tg/C0GtRmKf1duKRUTfAPRb5o+3N53GpM65vIGkTRhXpwsmSwbx3k4Yx4eYtptz+mPIo1uRGPdQO0ze3xtLTi9HuDb1q8k+zAoJwshdIZgUuQlvt3XscJnT/+mBui+vA/xH4JfjMxHqpH/bYr8OQ0D4CvSOiMHy53L3rGV7Xf31a+uYW3UdK16qgDB1GvVJ2Gl8G7aumZ/7TUTO46hfaSXoICLXkfeu9KYSznz/mX9GrH2j4AqZvjHqHTVEoOKNr4PCzTDmMDCtmYE9Ooqryt0RPkZp6MVOxqzFeamjcR3rPp+pNNv9MeKfva0EBP7o/txA5W/ehlKcXjzLFHJkx+mPIS+SEDl9CCbvB3p/NdMi5BCtMOTjSUpD3DlDWOr88xMs6S/PySz06zXZCUNkXCQ3Q572L8TMH/0ddPyIqCBIA8kRCxG5lrzvDr3rkd6zw1mL/h4vyJCDiIoi6dFB7iFykvTrM6LPEmOMtsmm88uN4f7KZRFinBSZqG20z6mIcKPSsDT6919itD179V7jzLayf39jeEQu5rg+vcTYW7nOkMEDTY/lvZ3aGVY4/THkTuKGEeo+8diCbPaZaNw5vpX62EKUx5a7e22HmzuNk9TnXXlsnd82/nJF2+5AMRG91f33jsjxVZZFtte9ttY4RJ4/DDQut+d+a4+1++cLjG+r15tkzObVYoxZGq7edujnjjriREREVFy8/tZ4bY2KM74OCjfJNpTv+6zRUazV6I1Znw5EHeld8FQPTN5+XTsje6dXvo5+4RGI9Q/HrPfClevb0gpD/i29F2IREd4P4zbmvP+kowvRL6QfdvafhRHhdoyfc/pjyIVbmzDuhVnKo+2OBXPkPtnig5BRMzHCH86ZhaV0CN5e/QvebgvEbp6MLs27YOTX0bDvmclw/cQ6RJ7QTrhK+VD0ll46WIhJc3KoY3IrGgtf641xmIlJ/2wCX21zdvwbBCmvSmBT5L5cPx9ERERERFQ0MOgo5vyfWoBfliqN8lilkf5QILq8PBfrjlprAibh+tF1mNW3Lur2novI+gOxJHKJlaEZmfm0fRtLZP+IxORuyv6HR2BfXNbma1JcNNbNCEOTwEHYFDgJKz4NR52S2pk5cPZjsM91rBvVD7Nige6ff4KB9bXNtpQOxbjPh8DfWbOwVA7FpI1HsOSNEEB5XmaFN0GFBj3w+owIbDoai+tWbi/p+nWc3r8OER+PRL/mAerlN8VpZ7qMD0KHL1SLqu57vx1Ch8rrRTtLd/c6on+chbBWTTDoeBjWfj1CDS/s0jIU/doqfxdNwrhlmYc7JV2IxmmmH0REREREboJDV9xHboaumLl2cIlxRGd/03XVxd8Y2DnUGNpVWToHmoZj6Nuf+8S495p2RTtd+/0TY+/6+j6UpX6Iad/KEqgOPZGljrH39F+MMSnalfTHkt3QFTPOfgzZkSER6v7bzjTu1bblLMa4vL/p/jplCIsmJnKBccRjdbTHbu9SxxgyYJLxl/PaTiw4beiK7vRy4xBt+I0s/s2yHsc6fcyP4U7jJHV79kNXRKLyugqx3G8zOQ69jUtsPF4iIiKiUe9OMd68dUs7RcWRHH95HVDhpQ9d4awrZCYJsfvXYW3EOkTs3okjm6O1gpB1ENI1FO0eD0XYU70RUiOPM4XIL/Ebl2DuohXY9OsmRKs71/b9XG8MfLw7Aiurl8wHJz+GIizpwj6s27gJO39dh32/H8GmQxnlPpUGP5oE1EGrriFo91A7hLYMRPmCforuxiJy2RIsWbkc65ZFQu1/UT8EvbuGIeyFfghv669eLC+SzqzD3PdmYeGPptdhnba90T18CMb9MxT+xe+lQURERHb4dMFXaBfcGi2bN9G2UHGz/+AR7IzajdcGvaBtocJGn3WFQQcREREREVEOIn/fqzR0D2PwS/21LVTczPtiMVo2b4qQNkHaFipsOL0sERERERGRnaRxe/t2Inbs+l3bQsWJHHc5/gw5igYGHURERERERHZ4NqwXfvjpZ4YdxYwcbznucvypaODQFSIiIiIiIjtd+CsW3yz/AaVK+SKkzf2oX7c2SpcqpZ1L7uLW7ds4ceosIn/fo/bkkJCjxj15rxFHrsEaHURERERERHkkNTv2HTiEsxcuIiEhUdtK7sLPzxe1a1RHqxbNOFylCGHQQURERERERERug8VIiYiIiIiIiMjtMOggIiIiIiIiIrfBoIOIiIiIiIiI3AaDDiIiIiIiIiJyGww6iIiIiIiIiMhtMOggIiIiIiIiIrfBoIOIiIiIiIiI3AaDDiIiIiIiIiJyGww6iIiIiIiIiMhtMOggIiIiIiIiIrfBoIOIiIiIiIiI3AaDDiIiIiIiIiJyGww6iIiIiIiIiMhtMOggIiIiIiIiIrfBoIOIiIiIiIiI3AaDDiIiIiIiIiJyGww6iIiIiIiIiMhtMOggIiIiIiIiIrfBoIOIiIiIiIiI3AaDDiIiIiIiIiJyGww6iIiIiIiIiMhtGNT/jj5kjHzytrpKRERERERERFTUhHxfCpjWzJAedBinNlVXiYiIiIiIiIiKGsOYw2rQwaErREREREREROQ2GHQQERERERERkdtg0EFEREREREREboNBBxERERERERG5DQYdREREREREROQ2GHQQERERERERkdtg0EFEREREREREboNBBxERERERERG5DQYdREREREREROQ2GHQQERERERERkdtg0EFEREREREREboNBBxERERERERG5DQYdREREREREROQ2GHQQERERERERkdtg0EFEREREREREboNBBxERERERERG5DQYdREREREREROQ2GHQQERERERERkdtg0EFEREREREREboNBBxERERERERG5DQYdREREREREROQ2GHQQERERERERkdtg0EFEREREREREboNBBxERERERERG5DQYdREREREREROQ2GHQQERERERERkdtg0EFEREREREREboNBBxERERERERG5DQYdREREREREROQ2GHQQERERERERkdtg0EFEREREREREboNBBxERERERERG5DQYdREREREREROQ2GHQQERERERERkdtg0EFEREREREREboNBBxERERERERG5DQYdREREREREROQ2GHQQERERERERkdtg0EFEREREREREbsOg/nf0IaNxalN1lYiIiIiIiFxn57nD2H7mIGJuXkVyaoq2lQqSdwlPBJSpiPb3Nke7WmwrFxWGMYeBac0M7NFBRERERERUAC7EX8HEX77EisPbcOb6JYYchYgcCzkmcmzkGMmxoqKDQQcREREREZGLScN51q/LcOnWdSSk3NG2UmEjx0aOkRwrhh1FB4MOIiIiIiIiF1v4+zok303RiwlQYaYcIzlWcsyoaGDQQURERERE5EJSk+PmnQSGHEWJcqzkmMmxo8KPQQcREREREZELSeFRDlcpeuSYybGjwo+zrhRhN28n4GZCAu7cuQtjmlHbSsLgYYCXV0mU8fNDmVJ+2lYiIiIiooL3r7WfsvBoESWzsfy7x2vaKSps9FlXGHQUQXdS7uLy1au463EXaaWUD0ifNMCDQUcmacpLO8kDHrc9UTKtJKpWrAgvz5LamUREREREBee1H2Zra1QUfdprmLZGhQ2nly2iJOT463Ic7pRKQlqVJMAvlSGHNfKcKM+NPEfyXKnPmfLcERERERERkXtjj44i5sKly2rDHaXZaM+VWyXhddsHNapV1TYQERERERUMV/XoqORXBm1rNkGDSjWU9bLq8ndCvHqe/P07MR5R56Lx598X1G1kH/boKLzYo6MIkpocMlyFIUceKM+ZPHfyHFI+pV7AlumvIrhlE9RtGIxuQz5DJKcUJyIiIio0ejQKVhvj7z/8krLeFg0rm4IOCTf0wEO2hdRsgjcfDFMuN0C9DpG7YI+OIuSvK3FIKnXbNFyFci+hBHxul8I9VSprG/Infv9yfLJkDSJPxuPyqXp4b9t0PFJWO9NRDn2GpyefxKP9BuCR0EDULOi6qqkXsHTI4xi9qww6PRmGpt4XEfn9GuxN7ol5m5XHX0G7XEG6sgYvPfg+LjSrAW/UQP9/z0bf2tp5LhGHpYM6YPQ206lOU7fhizDHvOaySNiPWcOXo8GY99HLpY+RiIiI8sNZPToaVqqhBhe6P+Mu4PjfF7Dr/BH8nXBT22oivT3k8vW1wENIECKXXXssSj1N1rFHR+HFHh1FkMyuohYepbxRnjv1OXSQshWSsXdVFA4fisaVhI3Yc1w7w4EOb12OvXvWYMrwMHRsNwmRydoZDnL4s24I7BCGx3uHYfCE2ZgVsQaRO6Jx/tpNJFvJ05J3/RfvbqqCQfM34osJwzBizHR8t2Y6ekG5j0ujtUuZ248pDaXnRy6XlqOw/pq2i9y6k4xk3MQJ5bgcPqQ8Yd7adncjodPwAZi7aTne7NoTo5dHI54ZKBERUbElPTL0kEMCjvE/f4GPdi5XQwvLkEPItsjz0Vi8b6N62bXHdqk9PaQHCHt3UFHHoKMIUaeQZeHRvFOeO4dOw1u7LZ5opq0rTevII6e0dQdJjsLS/2SMl6w/OAwhDm20R2PLNxeQHCuBQDTWR3yGuRNGod+AMHQMDkZgYBO0fHQA3py6CEs3ReN8AhAfq1weD+PRtmZ3pEpbtGsNnI+5opznIAlr8Ob7G2EaQZpLsScRqa0CdVGzirbqZs5/PwnvbtKf8VNY+v5sbMnHEKLki/uxdLZy/J/ogMD00KkVgp+Q10AEtpzK+gWJiIiICoc324WpAYX0yPhox3I14LAWbtgil5VARK4rZF/9W3VV14mKIgYdRHlWFyFPBWrr0vtiHxxZqiJ+03IsTi8p0hWv9824LYc4tA1LL2rrNsSfisIPi2Zg9Kth6PiPCFz2l+EgP+OnXWaRxpVd2LkbqBlQxUrnicqo31ZbTeeNKoGBaNrMbOkahl4WDy95UwR+OqudyIX4y3HamqJZDVQpoa27keQ90zFwzLaMYMmvA6atmo9e/trp3Ei9gB/GhaFl53CMnrsGkdFxZoFVMq5Ey2tgEl56NBgtByzC3jylT0REROQs0vtC6m1IyCG9M/JTWFSuK707ZF8ynIU9O6ioYo2OIuT0+RgYayZqpygvDOd9UadmgHbKAU5F4PFHJ+GweqIrPoqajV4VlOZh/E3Ex53EiSNHsPPgfuzdtQtNlYbp2CyNfltu4odhwXjzR9Mp7/6LsH98sONHYSQr9zMhGZdPncSVmJOm+/r7ERw+dCpLb4pHPozCvMdumGp0bPJCSHg4ghxUo+P898Pw+CizHhwVumLa0rzV1jixOAzd3teG0YTPR/SEDvl73mKX46UO47FFO+lY/8B3f45CkHbKHhJyPP7cf3FCOy2B26Cvl2Ps/Xl4lAnRmDswHLP25KIvTl3lPq9Q7nNB14shIiIqwhxVo8O8Jof0xnDU7ClSv0MKmYrF+zaoQ1wc6fkWDyPongb47vA27Dxn+iZdlLBGR+Gl1+hg0FGEMOjIv/wGHRJgmGpXaOFA0kmsemsSlmqdCMr6V0ZyrPkv4hlyVZTybASe7joJe9UTNTBixQYMSR8m4xrJ1y7gxL4oRG7bhlW7qmPsqlGmoTMJp/DDJ9MxOWIbriSUQf2uL2HihFcQkschIllCjrrh+GLxOHTKcX9S/yMcC7RTuTYoAqdGtdROZKMwBR0XlfvSQ7kv6T196qLv7PmY9lgN7XRuJGPv7DA8Pdd8yFUZhAwbj7E9O6JmWXkNHMFPX0xX66+Yv6brj1iODa84uIcRERFRMeKooENmS5G6Go4MOXR6iCK9O8b/vEjbar9GlWugvE9p3Em9i+gr55B09452jhZ0VG+Ab//YjKgLR7WtgE9JLwRWqQWvEiVxPekWjsVlfkzNq90LP08f7ZR9vEp6qvv75eQ+bUv+MegovBh0FEEuCzpiN2Bshzn4za8C6g+biPkD6mpnFH25DzouYOkL3TB6l3YyH7yHRCB6mB0Na0WmXgktx2Hr0nDUNJ1yqvPfj8K/onti3qgOLhnyYRlyeIeOw+oPw1Hfrt4CxSzoiI/ClL4DsCA9l/BGp6mr8UVYXkIOxbU1GBw8Cuu1k7b3l4zIqY+j3yKzLxp+r+C7/cNy1ROFiIiIMjgi6AipGYj+rboh8vwRdciKM0jtDxkWk5deHcNCeqNRlbx/gz125TxmR67QTpmM79wfAWUqaqfsl2Y0YuvpA1h2aKu2JX8YdBReDDqKIJcHHcrqA1MXY0pY7scj3Ll4FEfOZKS2eXH17AHcrNsTT7R13JyluQ86Mk8Vah+pQVEX9RsGI6hRPdwf2AT1mtRA1bJl4G1PeJAajbkPh2GWVj9DHTLSs4zphBMl75+Nx/t+pg6J8A4MwwdznDtlqWXIUT9sNhZO6oqadgcsLgo6ci3za2bQ10cw9n7Tep4lKI+1t/JYzUOOSavxRd88hhyK+B9HoeWwNdopRbNx2LAiHPW1k5lkGqIlOmDatvnom5eaIEREROSQoEPvzWGqqZG/ouFSi6NtzSZZppbVh7DkpVeHBB1lfUrh/c2LtS32k0AjPul2lqAjN6Q3Sb+WXdC4ck0cvHQGSw9uUXuJOAKDjsKLQUcR5LCgI+E2bmU3JD92MyY8MV9pRgItx8/BhJ7VTNtt8CpbCl4WjdOryyeg75jd2qn8qIk+X8/GK/d7aafzJ19BR4W6aFpdq4NQrh5CWlaXSAMNWteD967ZGPyZPGOKDu8jakGYck4e7ZmOwOf+axoqUP0f+O6nUQhyeHEOCxKu9AjDLK0h7X3/MHy38BU0dVIdhvM/jsfAYcu1OhPeCBqxCF8Maomy+e1Fkqn3RTi+ODgOnZz93GURhx9e7YA3N5lO5TvoSNiPWc8NwNxo/U0rz1cElrwSqKzlQ/wp7N29D3sPRmPP1l2IbDsJ+20FP1l6tXTARzvmo5ebzmhDRETkbPkNOhzZm8O8zoe1QEPv1ZHb4TEFGXQ0qVIbYc06qEGN1ABZetAxPTl0DDoKLz3o4KwrxdCRT57Bk8HZLFrIIfa/P9T6ZcyWRfqFneI8Vn2wAXmYfMNBKqPvgiM49aeyRK3B6hXLTcui6Rg7bBhGDAtHrweD8cjgV9FfDwW2TcIn27JLkrKTjMh1X6fXQwj6pxT81E44UfKu5fhE7y1Q/R/4wokhxxXl+ckIOcrgkamr8d0rDgg5xJmTGY3xZnVRw+Uhh6iMGo4a7aUWC3VCyCHK1kVQaBgGDRuHeSvW2A45FMl/RmceulO9Feox5CAiIiow9SubenWesKhhkVvmIYewFppEnT+i/m1Qubr6Ny+kXkfr6g3VXhbWyHY5/97y2f/AmhOp8dG3eUcMatMdpbx8sOLwrw4POahoYI+OIsRRPTqOTO+JoXnu759Vn6/X4JX8ds3X3IpegynPzcdvarFFL9QfMgEzX78PpR3RCFY4fNYVM1e+fxUdRmlTfuZ1Zor4jXiz9TD8oJ7ImMXF2fbOboWn55oa003Hr8Hq/s6pyxK/azqefkGbMcQvEEPm/xcj2jpuWE6m2iYDFuHUGH1KtJvYG/EFNl9R7sOf27A3xrT18qloXEkv7GmSmx4Y8crr9T9fLMf6bVE4cU3ZUKEuQjqEoemdGVigzZiT5x4dCaeweHgY3t3khJAjN1IvYOkr3TIN36o5bDm2DmExUiIiorzKb48OvZdFfoet6MNfxJ9xF/DRzuXqujl9+Iqt8+1hb70Oa3U57CEBSa/AdggoUwmlvX1xXLmvUo8j5uZV7RKOxR4dhReHrhRBDg86OgzF0gXdkPtyPgqzOh4OCTpSb+PEt7MxcsJOmEbO1cRjH76LET0dWwTAmUGH2iBUp141NUzrD4rA6lEtc9UojV8zDC2Hm5J0p00pa8Xe6U3wtBZ+1RyhNGKdMKNGpmlRK3TFxA/D4b17OVb9uBWRp0z/QHv7B6J+81boGxaOJzrWzWUvj2RsmdAKL0WYTnWavg1fPKnPcmN/PQ/7ggmZsSQc/eZmno3EmjwFHRavJQk5Oo1fjnn967o25JDHOT1MeW2YzcziF44vdo5DJyf1+CEiIioO8ht06AGFrf1IzQ1hXm/Dkh6WiJxCDGnY53X2FVeQHiMvBj2C1LQ0/Pjnb06fspZBR+HFoSuUTi0ceuoabl27ncNyDWf3HEVMTi273Dq7BbN698ereshRtxvGbpzn8JDD6UrUQN/xGQ3AEwsGYEquhrBcwKqv9O6CNfD6U8FIjl6Od/sGo27DJgjsEI43F0Thijq9rWPVb95TWwPOz1tuNn2pheQLOLxmEd58ridm7dG22SFTyIGW6PXYFcwaMACj565JDzlEcmw0Dm+MwLuv9kTLdgOwYH9ufqGIxp7vtVXl+bu/kZ1T+eZB/I/jM0IOv0D0GjUdSxYtwkcTwhGS7x44yYicYh5ylMEj01fjC1eHHKk3EWkZcqAuBi18iyEHERFRAdN7YVgjPTB6NGqrLhKIWCNBiB5ySICRU08NuUxuyBCSVgH1EVyjcZ4Xub7sJzfibt9weshBRQN7dBQhzurRgVwVDm2NEdsm4DHks0fHqTWYMO8Sapc6iVURf2i9OLxQf8BYTBnVGhUdNFTFklN7dGgyNer9OmDa2vnoa8+QxrMReLrrJOyV9Zbj8MWAaExJr2WRIS89RTJEY8Gri4C+r6KveY+J5Ci8GzwAi7WAwzv0fWyYG2YxA8oFLO7bDe9qNVns7XGSfOgz9Ht+NvZahCfe/i3xyGNd0S64CWrKTq6dxOata7B01f70mVjUhvXXyzH2fjse7cXl6Nd5PCLVE5aFSC9gy/JTym16o2wN5fbU7wZeKFshL8+i+fNQFyNWrMGQZuoZJsr9eEm5H3pNi0FfHcHYttoJu1j0Pgmfj+gJHVwcclzA0uFhGP2jWdAkQ40WRmCEPceCiIiIspXfHh3Z9bCQoOPNdk+nhyGWl7Osy2FPkdGcepBY0ntY2KrJYQ+ZIeXLvetxzI46JPrtXbp5LV8ztdiLPToKL/boKMbqPzMTMxdNMdW+0LblWpU2eEn2sWgmeuVllIOfF+6sWokleshRtxtGrFqM+WOcF3I4RGoyzh9ag8VTR6Ff755o2bCJ2tvC1OMiDI8PmYSlMd0wcWpP0zSdCdsweuD0LI18aw6v+a8p5FCatP0fvJAecpStG4imSgNdd2LBdCzNa3XW5Cs4v2kNpqg9JsKxWP+x3jsYI5T7rN9K8qbxeHz4GpzP1HukBh59poO2rlxm8UZE5tRh5exyDLYIOWTq2mkrohC9LQIfjRmAvqHBCHlQWXqGY+yMCOzfNh+DAvV7cgoLBo7Heql/kYP4P6K0kEMR2hJNM7XHa6BTWAf1dprWLoOyFWTJY4M9Php79AK8bQegl3nIIap3xKMZTxMWb8t9tV5v8x4T30dglSur8V7Zhim9H7cIOTpg4lKGHERERIWFhBe2enVIzY6Pdn6X3gtDLqf37FBDkFyGHEL2kZteHRJOjN2wUA1GzBepwSEBxuydy9XTO88eznTafJHr2xNyEFnDoKMY8qrdGC0fvA8tW/pDOoNVDJuAn/9cY+cyAY/JiJISFVBf9vFgYwTksxt7QPhYLF07FI8FltK2FE5Xdn2Gfu1aoWPvUXh30RpEHjpl1vNAafjrwy6Gh6PfmI04rz8vp/6Lp3vnEHakRmPLd/oHeTIWz/0vTkjjclUU9v+0HKt/mp0xqwv2Y/O+OG09sytrJuHd5dGItzW85eIFLUxRXCuLcmZ1QMs+9j6WDMooQhr/4ygMHKc8DrN9VQntiUe0dSACm6OySTqkZ8MT482GwZTBIxOWI2rF++jbLJsCpP4dMPZrs8ebsAZTIrQCozYlY2/UGm0daPpgk7xP75sT5R/59OOuvIF8tFVbkn+MQu46ULZE3/FmPTgkLHsiDFO2WT/mDiXBVM9XsSB9lhcJpv6BLzbOR/+GDDmIiIgKCz10kN4Z1tgKO/q37KaeFlKXw76Qw/S9LTdBhy2eJUoiMeUOAwxyOgYdxdCdeGv1N/Kx2NFbITs1mwcW7l4civPLX0WHF2YjMr1ngTeqBAaj14BXMGSItgzoiZBmdWHK1pORbP68nPoa/9lku6GqTu96UTshtCEv/QO1QMCvFdqFmlbFlj+t/+Nw/uRyLB4Tpta3mLsna32L+GP7MxrdWaYIlVk9/qvWgtCdWD4M7y43u60KHfFkRjkPLN4UZapTYeniGgzubR5y1MWgr37GvPBA+wqMKo9/kNl0p+e/25ZDWHAKh9NnDvNGSBPnzBqjqlAF6TXDd0fjhOUTkHoFV05q6+Kicjqnni8WaobNx7YF/8iY4jchGgsG9cDgiFPWn28HkCFGTz+RufdM/bDp2LBiFDpxKlkiIqJC5bgWUGQ35au1sMPe4qPm9DDl78T8BR11KvijvE8pxCfd1rYQOQ+DjmLnGn4Z/gyeDHbg8slRbd9u6mwE/jVGmzZWUT/sfayO2oeoVYvw0ZhhGDFMW8ZMx5IVa7A/Wjnvp0WYNqgDqmgNVe/w2fiop63imMnYu2m5WQO2BgbNn21R16MMajQyS+xPXcAVbTXDTVw5q+3lWhT2nMnaJD7xp9nc6B0DTcNrzJWojE5j52NaaMav91vGjcoY4qLcj5DQrtq64vtdOGzZeyR5P+YOHGXWYNbqbORyGtmarTpmBAoX9+FwrLZuTfQ2LE0PisLQznI4iSN5t8L9j2nrCRF4d8JyHNYfa8IFbJnyFmaZh1a4gMt2DL2xVKXDKKxe9T4eSS9uehPrJ4Th6anbHF6QNmsdFel9swarp/a0qNNCREREhcHxONOXjQY2enToLMMOIeu5mSa2vhaORJ3LqYdt9ppWuxelvH1x9volbQuR8zDoIMrB4Z/02hmKDu9j4aQwNM1uZo0S3qhSNxh9R81H1LY1+GLUOCwZlU0xyWsb8dXijFDCu+dbeL1t1ktXrWzWS+Fu1hBDGtQn9mmrivr3WgYr0ush43qdmjexfp9k9pip09HLbKjMlCUZPTfKtu6ATto6En5G5J/aus67JfqODddCFG90mjrfvmKilipURj1tNScndm/AeW0dPYMRlIebs18ZPDLglfSQ6MTy8Xg8WKvV0rIbXspIhfKvdhjmrZmPjE42yTi86FV0zVI/JR8uWtZRqYv+C9ZiXrirp7IlIiIie/2deEMNLNReGnaGHdKLQ66zeJ/ZD185kGErITWbqOv2DHOxpWnVe9GuVlPE3b6OnedzHtTbMqAe3mzXG/ff00DbQpQ7DDqKnQp4bIG12hsz0Ue7xANTF6dvnzNI2ygztGS6vNkyqrF2IXcUh8O/Z3yod3qsY+5+4S5bF50GhSMoPTTIKn7HRqzX1tVpZV/qqg1/yaxsFbN/xE7G4bK2mi72CPak9yQIRn3L2XnjT2LPIW1dpl9tks30qxW6YoTZ0JFMhUf9W6Fzeo+JC9hzJOuQnCodxmH116+g05BFmBem3e/UOEQuGIWnO7TSQoEOavHWxTvyW3siDnu3ZvzCENQ60Orz50jeLYdhifnQkkzK4JERr5jVMqmb9VjkRpUOmLhieaZCoFI/pduQCJzI57AxJOzHlIEWQ4y+Xo6JHZw3NS8RERHln4QX647tUoOO7o2Cta22mcKO5ersK7kJLPSaHov3bVD/5kW3+q3xQquu8CpREtvOHMTlW9e1c2zz8/RB9bJVEFC2kraFKHcYdJDJlVikT+zAruo2JacmaWuOcgGrvjJL1R8biv42hl14lzKbR/ziDbOhLibx+6LSpzSFX0vUtxiymbw/Cj9o6/B7GCENtXUbarbtiYxJp5djT3qWoDTc22irii0Hj2S5L8L7/mH4Ypg2De7FjRjdowP6TV+DvbHapRPiTMVbB3RAy2HLs/ZQuBYH81IXNsVuxU/btHUE4om25r9qXMDSF7RQpfds7LV2R/NIHVqyJwobvp6OiVqdlokfRmBDVBQ+CryZcSw61MsYgpNX6tSuyzHRbEhR8qZJeHzgZzic57DjJtaPG4AF6R1Q8tH7hoiIiFxOAgvpoSF1N3Lq1ZEXsk+9pkfk+dwNWwkoUxG9m7THpIcH4InAdki8ewdf7duIX88c1C5hkgYjSnn6oNU9DRBco7G6dKnbCg/d2xwGA/BX/N/aJbMKrdsSL7Z6BL2U/UtvkVKevkgzpmnnUnHHoINUd6KP4jd1zR9NG2U3LqO4KYOqZv9uRH4RYddUsXY7tQ1L02cf9Ub/vtZ7c6hKeJsNJYjGiUx1IJSG9U8Zs454h7U1CylEMiI3RWjrcn5HNM0p0PLzNpu5JBnJZkFE05ZmFUm3KvdFW7UuDkvfHYalWoO6rHLdQUNewaAnWqY/1vgfx6PbkDWZ6o5cObIvYziK0tC31Sviyo6NGaFC9W4IylSHNA4ndil/JFRRHk1ZR7fhS5RB/ft7or9Wp6V/z5ao770fs6ZEpIc/QaHBjpkBxq8u+n9oEXbsmY2n8xh2xP/4Pt5cY5b83D8UI0LLIf7aTbsW89cDERERuZ7eq0P0b9U1fXYURzCfhlamoM2L5v6mL2UbTuzGtK1f44/YrMN7D8ScVIuctq/dHC8GPaIuTzV9COV9SqtTz+7967h2yaz8vHzQunoDPNqgDe6v3gjXEm8i6oKb1w4kuzHoICA1Fr98pTWS/ULQKodf+tMl38YtB/xCfj4uD5UaXcYbQcFmjfpT/0W/58Zj8Z4LDmnoHf7xv2azoLyKvlZqc6SrXg8h2ioQhc37MmZVSd41D7N+1E4o97lvqNaTQpesXD4957ByvjVxtntUlL3XrJfCxX04mbUyaoYru9J7XNQcsAhRS6dj7LBhGDsjAvs3vo9O2vCP5E3jMflH7TGlnsJP36Z304B3eEcEaeuZxWHzj2aXeyw4c8Bz5UJGCOOKxvnZNRjdOzyjl4RfOEboQ3ccwWFhRxx+Wr4mc0+cPTPweHAwWtq1vIVV2R1zIiIicgnpabFWG8LyZrunHRJ2yD70ISuy77zU5oi5eRUTN32FcT8vwqronUi6e0c7J7PDl8/gvU2L8frqOXjth9nqIutjNizAiiPbtUtZt+boLryx5pP060zY9CV+Y9BBGgYdxd4dnI2Yj4+1tmKTEd3QxN6hK9d2YEpwf7w6ZEXWKTZzIeaG9Q++wqJst1cxMaNcBZKjl+Pd57ohMDAY3XqHod9b0zFr9mzrS8R+2JyIKzUaW77L+Iej5tMdsu9lUaUe7jcbjrJ+3D/w5tTZmPJWOIJf+G9G74eWb6G/RWASv3E5Fmvr8AvDo61N51/5fhRemhCBHw5dQHy82UG8Fo3Fn8zP2Cc6ZB4KU70uWmmrwDYcOqetWpOasd96DetlDlik2OaccG1bMn6Y/R1OpN7E3vnj8G56T5eWGPu02QEwd3YDlqbnHN7o38XiclVqZMwsc3E+Rk9fgxOxTgg8lOfrh+kD0LLrqPSeK2q9i4VvISTzocg/NexYhEFmPVfUsGO4leE/RERE5PbWHovKFHb0sKNmhy0yXOX9h19Sh6xI8VLZN1FRxKCjOIs9ilVjhmHg+7uhRg11+2NoeC6qCZw5j98SruHExmu4VVLbZsPVjQsxZepiLJptWj4es1AbKgN4Oboh6GgllIbl3PkYFGh5R2/ixKFoRK76L+bO/cz6sulk5l/NzSTvWo5P0oeftMSgnoHaui2B6PS0We+ABKVxvegzLFhlHqbUxZCxYaifKTCJQ+RWU7dG4R3eM73xXaVmZWyJmIQ3e3dDy9ZakVBZgsPw7qaMe+4dHo4nzIeOlK2BBmbBx4kz2RQUVf7R1YeobPnPF4i0SH68gzugr7aOU3PQr/PDeHp2esqB+iPGm806ktn5HWsyZsTxCzMrkqoLROf++nGTGUtGoVuHYAQGao/T2jI947ZtSb4WhxN7tmHpgkkY/Giw+ny9uSAq03HoO9uJ9S78WmLsUouwY5MM/2HYQUREVByZhx09GrXN9VAWtReHch19uIrsKzdT0BIVNgb1v6MPGY1TM4/op8Ln9PkYGGsmaqfyKP48jmw7gF/WfIsfN10zBRyibk9MWfwqHrAoJnBkek8MXSBrjfHE1GfxkL9WEPPaCXz/yRfYLr9eN3sVC1f0RG3TOdYl78bHzSdglXYygxeeWPQN3njQrNCmExnO+6JOzQDtVC7JrCHzx+HN/2zDFXuHCXR4H1ELwqzUaEhG5Ptt0U+fVrblOGxdGp5z0UqZJcN8aEQmpsb1tMesD5WIP7UNi6fPB16PwBA9ENgzHXWf+692wjrvwFew5OthFjPHxOGH4UOxqUk4/vlYVzStnl2D/ibWD++Awen1IMqgftfH8UhD0z++yReisGrjfivPqTeaDlmE7/SCplmcwuLePfGuNpOMd/9F2D8+OOtlE6Ixd2A4Zu2xFTlZGBSBU2Yzzlg6/FlPPD7L6gFQlX1wGOZNfQUh+ZlpxV4Xl+OlHuazpgBB49fgO1vJEBERERUKMtzCGUJqBqJ7o7Zq4CGFSmXYyQl1WtmbWYagSLjRtmYTNDArOqpPP5uX4SrFyae9hmlrVNgYxhwGpjWTWrYKBh1FgkOCjtRTWNJjKBalt9NKoeWwtzH21ftQ0cqwiavfT0DfUbu1U9Z44YHpCzHlyZwKmN7G9uHPYIJeL7NCTdRvUg9dBg1EnwddV/w0X0GHLjUZ56M3YssvR7BnfxROxlzA4VMZ9TJUfpXRtG4VoMmr+GJSV+vFKGU/+9dg6TfLcaXjZ5jW087UPT4aSz+cjgU/RuGElDepUBePPBaOF14Nz33jWn8s323E0j9O4vyhU1qvhDKo/2BHPBI2AP98LBBl7R3OZEvCfsx6bgDmRtsXNngH9sSIMaMwqG0O05ym3sSJXRuwdPEioP9yjH3QRuCiP87V2/DT7ydx4lS01WClSmBdVH18PFYPsh10IFl5LE+EY26mrEPCmzC8PngwejVzXCEweyTvmY7Hn/svTkgwNGA2vhjVAVXye7yIiIjIqZwVdAg9wJBFAg9zEmRYbhOyfdf5I2rPEMoZg47Ci0FHEeSQoENEf4uB//gd9f75LPqFtUbt7HKG1Fj8NusLfLFmN07EmtfSKIXaD7bBoy4OKvLLIUEH5U16sLNGnZLWPBzy9g9E/Xr1EPJgMDqHdkNIXdeGBbmVvGs6Hh8VhXqhPdG5a0d0bl0XVZw0SsUe55ePwiwMxUeOLHxKRERETuPMoEOnD13Re21IwKH39BDy9/jfF3A87iJ7cOQSg47Ci0FHEeSwoKMYY9BBRERERAXNFUEHOQ+DjsJLDzpYjJSIiIiIiMiFvEt4amtU1PDYFQ0MOoiIiIiIiFwooExFbY2KGh67ooFBRxFi8DAAaabRRpQHynOnPodERERERAWo/b3N4efpmlkHyXHkmMmxo8KPQUcR4uVVEkjiIcsz5blTn0MiIiIiogLUrlZTlPHyA4zaBir8lGMlx0yOHRV+bDUXIWX8/OBxm2PC8kqeO3kOiYiIiIgK2sA23eFdUvluz7Cj8FOOkRwrOWZUNDDoKELKlPJDybSSwC32Ssg15TmT506eQyIiIiKiglajbBWMeKgPqpUuz2EshZgcGzlGcqzkmFHRwKCjiKlasSI8bigfhAw77Kc8V/KcyXNHRERERFRYSMP53S4vonfTDri3fDXO6FGIyLGQYyLHRo4RQ46ixVSZcfQho3EqxxoVFXdS7uLy1au463EXaaVSAJ80wIN93jKRoq1JHupwFenJISGHlyfDISIiIiIiIndlGHMYmNbMwKCjCLt5OwE3ExJw585dGNMYdJiT2VWk8KjU5OBwFSIiIiIiIvfHoIOIiIiIiIiI3IYedLBGBxERERERERG5DQYdREREREREROQ2GHQQERERERERkdtg0EFEREREREREboNBBxERERERERG5DQYdREREREREROQ2GHQQERERERERkdtg0EFEREREREREboNBBxERERERERG5DQYdREREREREROQ2GHQQERERERERkdtg0EFEREREREREboNBBxERERERERG5DQYdREREREREROQ2GHQQERERERERkdtg0EFEREREREREboNBBxERERERERG5DQYdREREREREROQ2GHQQERERERERkdswqP8dfchonNpUXaXCa1fUb9oaERERERERFYS2wQ9oa1TYGMYcBqY1MzDoICIiIiIiIqIiTw86OHSFiIiIiIiIiNwGgw4iIiIiIiIichsMOoiIiIiIiIjIbTDoICIiIiIiIiK3waCDiIiIiIiIiNwGgw4iIiIiIiIichsMOoiIiIiIiIjIbTDoICIiIiIiIiK3waCDiIiIiIiIiNwGgw4iIiIiIiIichsMOoiIiIiIiIjIbTDoICIiIiIiIiK3waCDiIiIiIiIiNwGgw4iIiIiIiIichsMOoiIiIiIiIjIbTDoICIiIiIiIiK3waCDiIiIiIiIiNwGgw4iIiIiIiIichsMOoiIiIiIiIjIbRjU/44+ZDRObaquEhERERFR9m7eTsDthCQk30lBWlqatpWKKg8PD3h7eaKUnw/KlPLTthJRUWMYcxiY1szAoIOIiIiIyE53Uu4i7up1tWEsDWIfHy+UUNapaEtNS0NS0h01wJLgqnLF8vDyLKmdS0RFhR508FOZiIiIiMgOEnJcjL2C0qX84F+lovrrP0MO9yDHUY6nHFc5vnKc5XgTUdHET2YiIiIiIjtIT45KFcqhbGkObXBncnzlOMvxJqKiiUEHEREREVEOZEiDDFdhyFE8yHGW4y3HnYiKHgYdREREREQ5kMKjLFJZvMjxluNOREUPgw4iIiIiohzI7CpSeJSKDznectyJqOhh0EFERERElAOZiYOFR4sXOd6cOpioaOKnNRERERERERG5DQYdREREREREROQ2GHQQERERERERkdtg0EFEREREREREboNBBxERERERERG5DQYdREREREREROQ2GHQQEREREZHTbNmyBZ07d4bBYHDYUqdOHXWRfVPxtiTKiGYT0zD1J6O2hQgwqP8dfchonNpUXSUiIiIiosxOn49BnZoB2imylx5yiHvvvVf96whnzpzR1oDNmzejU6dO2inH4nEv3CTkGBxhCjhqVQT6BRsw5lFTE5eKJ8OYw8C0ZgYGHUREREREOWCDN2+k14WEEhMmTMC7776rbc0/2eeXX36p7lcClNOnT2vnOBaPe+FlHnJIwCGnGXaQHnRw6AoRERERUSF1ffNkDPr3PiRpp00iMTmkHyJOaCetObEQYeFzsS/zFV1O73nhyJBDSLgh+5SeHHIb5j083EKaER9PTMOGS9rpFCOSUrT1HCQl2hjCoezzqylpeD8y8/lJv6fh8X+n4ViytqEIMA851r5hwLxw03Luquk8DmMhBh1ERERERAVl12QrNSjCEHHBdHb55q3gM30clpiFGkmb1+KTCqEIqa9tyCIJkV/Pxen6QQj00TaJu0m4fv06rt/STpu7pWxXzku6q512AD18cNawEnd2Y7sRczwNaFFN2xBtRNWRaSg7LOel6r8BPR8xJ/tcFmDAWyFmvR3SjPjPSqBDFwMaeWvbCjnLkOOh+qbHIz05GHaQjkNXiIiIiIhyUJBDGPbNCEL3azNxekoofHAdK14KxM7nTmNmV/MUQyNBxZmF6PFQNEYcn4nQ0qcR8fJc+IyahN5xs2AIGWe6nA29I2Kw/Dl/7VT+SNAxceJEdOzYEf/4xz+0rY4l9T+kDogMXXFkDRBdgRx36c0xTmmkv+iBNxoZsXWZEcltDOh2bz6GYyQa8fZYZb9p2mk79epuwP8eKTzDQMxDDiFDVQ69m/m3e/0yHMZSPHHoChERERFRgUpCktWhJdr2JFMvizqPz8WKoRJyKPYvxKTYSRjSGabeGdfNdrB7Mtq9NBmT35uMOp+PQ2hpZRcb52LEwQoI8NdCkT5LEGM0wqgsO98zBRuyrp92JAkeFi1a5LSQw/0Y8cOsNMz40ohvGxjwz0bKpjNGfLwTuOGdj8Z6ihHLPlb2U8WA47M9EG++DFTOr2Zlu7YU1pBDem48VB9q7w2ZccWcGm48ltGzg4onBh1ERERERAVh1yz4+loOW5HFF74zIhG7ciAqVKiACoHt0C5AO6/VSOz7cRDqevqazqswC5Ha7tB6CGY1WItxvw/BwMfLKxv2Ye47S9DvvREIKW26SE58SmorDiK9LdyufobTGNCxE7B+P/BCewN8JPhYCpTrbkCfAODGNutDVSyX37S9qRKN+HiaEd96Aw9om4oi85BDhquow1T6eVgNO349YcTUH02XZW+O4otBBxERERFRQWj7dnpviizL+BD4P7c80zbLHhim5W2EaLsDyiNk/DrsDF+OIe9HYt9/xmHmQ0swydoQFxua1HTMsBUhAYcMLRkwYIC2hXJS7n4PLA8Hli5Kw4ZfjHgbBrzTxdRYLyfZVUuD1Z4X6jLWgF7qJXVGfDXNiA11DPhfZ+C3S0Y0sAxGFioXs7ZdWZ5fXzh6Q1iGHHpNDhmaYhl2SMjR42PTZaXXhwQiVDwx6CAiIiIiKigXIhBm2aOjbwRitbNzT8KOJXj9eG8EvVMHC0dpQ15cTHpySH0OIYGHhB3s2WGfcsEeWNgeeHoN8E5/A2rnucVmQN9hBix7XnqHKKwNUclm6EphGLZiK+TQWYYdDDlIx6CDiIiIiKig1AjH8kw9NJRlaThM/Sq0WVK05VqisunWtUzbbM+S4oshn09C9/KRmNx8HDa5eJpZCTb++9//qusScMj6l19+qZ6mnBhxKQbo86gBfbyNGDklDWe1c7DfmKXnRfoyxYgftIvpfCpqIYcoYj06cgo5dBJ2hD+QcR5DDhKmVwBnXSEiIiIisqlAZt+Q3h41+2GFdtKaSZFGvN1WO6E5/XU/dNk3EEemS2+OJOz7dyjGlV+CtYEROc66Ym1/eSHhhmUPDmdMM+uOs64k7UlDz18MWDjSgNopRnz1byNuPOWBN5LTUHaPAfED8tCI/0O57hoDjo81QJ+xVmVrewGzN+QQHK5C5jjrChERERFRQctu6IpFbw9rNTrMQ4nrq0eiXbd26BIegdMzusDXEIAmoT0w8kcges4K7JPeHy6adUVCBwk2zBfKQbJyPIeloepXwG8XjWj+rzQ8PMWIZfHAt/uMuHRJLmTEDIueF1mWRQXbEyO/GHKQIzDoICIiov9n714Ao6gOto8/QSUWBUXFioSigLbhokEsN21EKiCvAdQgaiiWIAoWFCtKAaFAQUBsqFGoQVGolFiRaCFpEVDBVC7xFchbLvnEEEVAkHCRgMiCYb85uxOySTY3SCA5/H86ZGf2NjM7uzPnmXPOADhbSmy6Uj6X3v605r35b6078IPzOqs0UR00+s0P9eHSf+vPv1qnjC/cB55BpsZFXl8dKEWoNHxMiPb8pcbJjkUnja+h5KEhuu2YtPuE1ONqf0H+g/ga+uJ/nPH/MZ2ThmiMO83X50Zxytl0xTec4dCEkAMVhaADAAAAqIKOBvTFYYZgfXT4hrz+Ny6+Steev0vrdgR2yPGdMhZ/qVYvzVNMuDvpDDFNV0yzEjOgLEJ0yR6vRs/3yld5wzju1YQErx59yCnEZ0uh5S29Oc8/6HH+3lCwo9G84YMIqUfXEq7k8hv5n38GEHKgIhF0AAAAAGfJ0WVPF2y24hv66N3dqxVXt67qBgx3TZbefbRZgWlmePi9/Gu07F4+UX3ey3DHjAu16z/RSlzjjpZiV/Z37q3TY2pyXHvttb7bJugwy0XNjjL4UXr1a/e2cYH0C2f4v71efbvPuV3OjjS+XeFVw+FBamq4wx3p0qIlJXRw+rRXg53XqGyEHKhoBB0AAADAWXJh7brSn1YFNF0xTU6aqf5V7fVsYHMWZwjWR4cZkh7Mb+iya0eGOv3CHzD4XagOt9+r6ctWu+Ml23W44i7PYvrpCBwaNWrk3oPiHDQ5Uz0FdAwaokb1pc93O8Mu6edX+6feMfSErvu3tOjfJqTwaoI7zdcUJcBPOweppeEMX/xG6nKB9EwL6bbGzu1QafqQ4DU7Kvsys4QcqAwEHQAAAIAVditjtXTTdQV7+LjwupvUYfVmfemOnwnLly/3XQklcOjXr597L4rz1dfSfWHuiOvnt4eot7xaGirdeIV/2in10eE4usurlyed0K2LpMdH1VDX86VLfhGiBUND9PmbXnX/q1f/VzGVesqEkAOVhaADAAAAqA6Ou3+Lk/kvzftPtDpEuON5rolR0qKH5avn8U4f1XebyHT4o/RuTH23uYx/vDIUvswsiuPV/30h3XZdwQL8JdeE6Lv/SqGtQ3RKdWI8Xn2++oSenXRCV8Z5tdt5nc/G19Btl7n3Gw1C9NwfQ/T0pV4NGH9Cv5xyQu/816ujpW1zpyEw5CgttCDkQHkRdAAAAABn0x87nAwbQkI6aLTW6csd7n0n7daX/8+9WZywaE1cFqP27mgB57t/Ay4vW3ioyMvLGibgMMtE3xxl5JGOXia1vcYdz/OdV3P/V3oosvTC/VHTYW2AT/9+QtcN96pXsnRphxBtn1xDz3UN0SXBSoEXhOi2mBr63/Eheq6J9PabXl359An98q9eHXQfUlFMcJEXchgm9DBBhpleGCEHTgVBBwAAAHC2/OCUTAv00ZGlf039H117sXt/gAsvdG8U58JL1apFYP8chTS9Vx8O76RL3dHC2v/+gF6/51QubFtU4NVW8m5Ts6MUoSF6dGgN/dwdPckpsd3wPyHq4X5wlzh/Q52/P+0YohnOYPrxeHxCiH665ISu/If0+HW+h/m0cZ6XMjZEGybV0DPOYy+5wL0jwFcH3Bt56oSoy301tODPNbRneIj+/oDzPPeuipL4qf/vyG4hvuFXTf3jZroJPfIQcuBU+beUERu93snNfTcBAAAAFPTl9l26tmF9dwylufbaa4sEG7Nnz67wfjrM1V1MiGL6ADEdnlY0PvfKYa7oYpjOTo3J73s1eXF+wGH66zAIOVBeISM3SVNahFCjAwAAAECFMqHGuHHjCgx0Rgojr8ZGYHDRp02IL8z4mdtviKnZQciB00GNDgAAAKAUnNmvmqjRUf20GH9CX++XNo6tcTLYyBPYQalByIHyokYHAAAAgEoVGxtLZ6Q4yQQZJuQwfXIUDjmMT7a6NxyEHDgdBB0AAAAAKpzpo2POnDknOyUF8oKMmDb5AYYJPkwfHabfjrxmLYQcOF0EHQAAAAAqTWVebYUruVQvgf1zmHDDNGMxQ15HpOYKLKZJCyEHThdBBwAAAIAKZ/rM6Nixoy+MqIzmK6ZZjHlt8z6V0T8HKlZeyGGarJjaGybcMLU5zLgJOMwVWEbemd8hKXA6/FEZnZECAAAAxaJTylNjmq2YDkONigwjAmtyLF++3BeoVAY+94qT1wlpHhNu3NrU9NdB7Q1UnLzOSAk6AAAAgFJQ4D11JpQwtS8quq8OE5yYy9hWVshh8LlXHHM1lf984fU1SzE1N4DKQNABAAAAlBEF3nMTnztQvXB5WQAAAAAAYB2CDgAAAAAAYA2CDgAAAAAAYA2CDgAAAAAAYA2CDgAAAAAAYA2CDgAAAAAAYA2CDgAAAAAAYA2CDgAAAAAAYA2CDgAAAAAAYI0Q378jNnq9k5v7bqLq+nL7LvcWAAAAzqRLal+kyy6t447hXLH/uxwdPPS9Owb4XduwvnsLVU3IyE3SlBYhBB0AAAAAAKDayws6aLoCAAAAAACsQdABAAAAAACsQdABAAAAAACsQdABAAAAAACsQdABAAAAAACsQdABAAAAAACsQdABAAAAAACsQdABAAAAAACsQdABAAAAAACsQdABAAAAAACsQdABAAAAAACsQdABAAAAAACsQdABAAAAAACsQdABAAAAAACsQdABAAAAAACsQdABAAAAAACsQdABAAAAAACsQdABAAAAAACsQdABAAAAAACsEeL7d8RGr3dyc99NVB9b93/jDLt04MghHT/xozsVAAAAAHA6LqhxvurWqq0ml9V3hqvdqajqQkZukqa0CCHoqIYO/HBIq77epBNery698GJdVPNCnV/jPPdeAAAAAMDp+PFErr4/dlTfHT2sGk6xucPPmqvuT2q796Kqygs6aLpSzZiQY+kXa3XRBReq0aU/1SUXXkTIAQAAAAAVyJSxTFnLlLlM2cuUwUxZDNUDQUc1Y2py/PTiS3VZrTruFAAAAABAZTFlL1MGM2UxVA8EHdWI6ZPDNFch5AAAAACAM8eUwUxZzJTJUPURdFQjpuNR0ycHAAAAAODMMmUxUyZD1UfQUY2Yq6uYjkcBAAAAAGeWKYuZMhmqPoKOasRcQpaORwEAAADgzDNlMVMmQ9VH0AEAAAAAAKxB0AEAAAAAAKxB0AEAAAAAAKxB0AEAAAAAAKxB0AEAAAAAAKxB0AEAAAAAAKxB0AEAAAAAAKxB0AEAAAAAAKxB0AEAAAAAAKxB0AEAAAAAAKxB0AEAAAAAAKxB0AEAAAAAAKxB0AEAAAAAAKxB0AEAAAAAAKxB0AEAAAAAAKxB0AEAAAAAAKxB0AEAAAAAAKxB0AEAAAAAAKxB0AEAAAAAAKxB0AFUdxmvqn3fV7XhuDsOAAAAAOcwgg5UAce09rX7NWxuug67U86ULQsG6MFh72iLO166DM3peZde+rS4Od2vJX/qrPZzMtzxCnL8sA7nOMP3x9wJheQ4wwX+m4E837vPCxaC/ODeV65hl77aFWwe/MsdlXgay71vsUbe/4SSd7jj5fRNyjN6dPJifeOOnzFfztOj/QdpQaY7fhZtmFMJ2x4AAABQzYT4/h2x0eud3Nx3E1XX39M/0A1XNXbHKpIpvD+hme5YUG1GKuXZTrrcHa1Qx9M18zfPaNV9r+hvvZq6E0tgajCMeMcdKcGFffS3t/vpene0qG1KHjZAM3/xgpIeiVCoO7VEpjDe/y21fPFNxVzrTivAFPjv17ifvaTV/cLdaadv3wfPKurlT92x8uv4+NuafMdl7pifKRQ/+p47Ui6NNOylWerVyB31cbah+5/Q548UfZ8y832u2zTujefUtdwb2i4lD39Ik346VsuG3aqL3anF8n2O07TCHS1eG02e85w61nVHg/gmZZCi57bQ9L8PUesgYVMBucd0+Pt9+ibrWx3yTTimvV9u1r4ffCPau22Ntuz139aB7Vq7L6Jc68P3mapitz0AAADk++/uLP0m4g53DFVNyMhN0pQWIQQd1UjlBR2SJ+ewCp/0z8lKVNzYd7TKKTZ27DtJz/YKD16APL5LGz5OVvLiT7U2c5vvjPrllzdRy5bt1PXuXup4bcnFTk/6dEWPXah97nhRNTVw6r/U7+fuqK+wWEzNBp9MLXjiGc1sWUqhd8dCDRk8XWvd0WD6TVymgS3dEcNXGN+nuMSR6nCRO62ASgw6dvzmlF7TFH4Tw04jgHB9kzpN4+I2q/WzUzWwTeHX8odlnwcJVMrKs3a6Ov6ppl5d+KgCV3mZ7FqoYYOmO9tq8br8/m2N7+jOW6nb0D6tnDFA47L66W+v9Sk1LJtUUm2OHi9o9cMR/ttm+xn3oVqH+ZOTq69rp2vqODd+8lNdc219heZ8oc9WLNGcTYfUod2v1bH1r9ShfbguLy1AcRF0AAAAVC6CjqqNoKMaqsygo7DDG+Zo7MR5+rz+fRo15lF1KOaM8uG1r2rE1Hf0Vf1OiomK0KHF0zTnF88ppVtNffbBPL363mbVv//PiosJL6bGxGGtmHqPRuopJQ36lUyZL9A3K0bpt6/XLvWsegHu2XqVWOg+5hQKB+jRzd31t9HddLU7NY8n/WVFxW3TqBkJ6h7mTnT4Aoe3m5VQ+LUw6Mjdr1VzRmnSivoaOHGkujeq6d4R6DSDjuOH9dWS8XpwaSON699G+nKzvvpqkzZkZurmIe+ptMXe8vZD+u0HnfRqXC8VqWizeY46T15cMCwrTa6zPDFPaEG3l5RSwpt7Ml7VoyM2qnvcJN15pTsxz9FPNfORyfrykVmaHlWg+ktQhz+fp7F/TJR6PqdR90fo8vPcOwKcas2eYDV6AAAAUH4EHVVbXtBBHx0oyCnUrn19kB4Y/Y5T4HpB/4grPuQwhbyn/rRQofe95DxupGLuuE61c5xC1bVNdXlYhLr2e0F/m9hTx95+2ikk73efVZAnI1GzVzoF6O6/1tV1LtbFBYaaOvRNhnRlM11d1pDDcfj/pWuFmqjDL0oo2O37UInv7VOvnt10fZH3vVienG3Og27SNfX9D8+zb0+6zETfKjGBSs/Oal9guF/jTBWR957In/anxSXUVjkFvv46SqqN4KzXnMPy5Lojp+Hwl4sV98T9ivv615qWMLaYkOMUBa6/XvfowdecdXsgXclz39Dab6Xav+im2CEvqlfx1Sn8nNeZnbhLHe/voZZBPsucvRudB92q6wMCq1J9vU7Lj0pdWjZxJwSzXyveeUf7InvrzqZF3/fiY4f0pfOolo1KDzl836Xhy3X98LmKiwkIOXYs1LCxC0/2O3L5bSO1bO57xQ5xUc6Dop4rMv3Z2wg5AAAAcO4g6EBB512smj+5XN3/6C9wXRzkrLLPD59q5rh3pHv+rEmmSYvvccd1bI9U83zfI3wubvmono65XEvnLdaWwgXv3EwlTTcFxUfVKzxYAfprfb7WKdzdclMJTQcKO6z/rvlIuvJX+nmxBdtjWvvOdK34+aN6sF2whi2H9dXnW6U2TXV1geU/pkMmYGjgBh2X/lrPFipQLpv7ikaZdhf3vKTVC5f5hz92O+2+TS6/47mTtTn2fTxZnfvelR+kBBk69r1H45b7w6WW/ZaV82z+YW1YPEcz4wbpgRELdcE9s5Q4/j5dH7SpzmkIWH8r3n1T45z11rHvBE2PS9CoQf0U062TWoc3Kn4b9DmsVXOczzKsn2JvD7aM7mfZOkI/L8f8b1m7RFvUSTf/ovhgx7M2US+vDdfA+4M3jzq8bbPWqk0J26Frz2JNGrdQ9R+foIGt/cuwb+VkDXsvUwpro44/JGlFXtOYC4IEKgFDbdPE5YLaRe8rY9MXAAAAwAYEHSikplrGPHeywFWcb1b8XW/VuU+P9wloknJgl+8M9rU/Lfjc62+JVus9S/TZ1+4En2PaMHeKXt7bRk/3u1XfLHhCI99O1+HAMGTHJq3aU9pZ9UJyPtWKVKnDvZ2KDUc8a1/V2MX1NfDhboWCDNfxzfrMeY3WNzYpFFAc1l5nfjpefal/9LyaRQuUdS5TzQqs9BCML/TIC1FKGE69qcIxffO/87RKPTX9jQQ9cUejsnXU6rim0GdfooD1F3piuz7fYCrLFKpCU4pvPpisSanOZ/nEfbp6zTQNm7FYX7kde/rkfZY3NSt72JSbqc+W7NLlUd3UurhwxAR9Uxfq6vsfU5egQcYxZ3k+kpq20fUl1kY6rFVzp2tp8yHOes5f9stbttXl/3hfa4/XV+vbL1XiJ0GupJJ7WF99MF3D+vtDr+jB45W42b0PAAAAOIcRdOAU7NeG/83Q9V07qWXgmeLvD2mfIlS/cIky7HrdrF3asDW/+co3H4zXyPekgePGqqPz+MubtpVSntEDw6ZpyTZ/s4wta5K0tpSz6oV9s/KfSlYbdWlTTIHZnD33FVCH6cGfB39dz6ZPtVRN1DWicJODb7Vrk1SzZknF/st0dQP3ZgU6eZnYUx1K7HgzuKtvbKtrylmLIzSgNk+57PiiYO2Hz9/RkGGDNGTwPQVrqwQ0AzLNPca9nK7Wj09QP/NZXh2uRl9M14OPPqPEDf5t7fCnH+ot1VeH5qU3H8nj2fC+EvfUV69bmwUPeHJ3acm08Xrrij56+r5i+p4xActyqfXtEUX6fylg33+UnHq5Ho8pVOunTht1bLNQS1Yf1tVt7laHXbuKXDb3m8Wj9OBru9T+mVlaNvdNjetWU9987t4JAAAAnMMIOlB+xzN9TUo6/LzgpWA93253CqvX6eoip84vVf2WTsHsOzfoOL5NWz4/pA6/dwqobpOVyyP6aHLCKxp49X807on7Nem9eUp+p5Sz6oUdT1fynAznOff5wpNgDn/7rY61fkrj7i+uc9Rj2vi/TmH65877BjtTf7RojZUiSmxqcSr2a0XcPerc9zSGuA8rtp+QCrZv22ZtCeyL5YpWiuk7SLGPvKCkwKZBw37tBgKHteW/21T7/j9rlFsT4uJru+mJuLmK63hIiaP7asjr72jBwo+kn0erY9BLAQezS0sTFzqff7S6BG1O5cj5VruOtdG4sf10fTFNQjybPlHy0XB1bV1ywOLrT+bCW9WyyPxdrNYd79O+fdvlubyTRo3sVCgwydSKhRnqPnikeoXX18V16qtlVD/FmGZT+/Y5awcAAAA4dxF0oPxy9jnFwTa6ptCp6m1ffiq1bBjkahGhpkWMthx2L2B7QSN1HPySRnUsVOvioqbqPmyu/ta3oVbNmaMFR+sr5vaIMjeb+GbJG5pz1LmxZ5f2FdMR58Ut+2ny8GKarBi7Fisx5Zi6R/265DPxZ9Rl6vrHok1TUh5vI7V+Sil506bcV3A8cKiAfkJKtO8rnXplgmP66v8520675vnNjS5vqg4REWod0bRgJ7UX5YUPF6vl/c8VvZrPeZepw8MJenXYr3Vs0aua6cxUeT5Lz9ok33P0/bfaF9gEJlDdCPUbP1ZdC19l5SQ3LLnlbt1eSkucnAPbpOYNg26Poa0fVdw9xQVyx3Usx1lNdQN7B/F/z5S62deEDAAAADhXEXRAWxY8oUcTPjnNs8D79eXmXbo+4roghUp/k4/ry9Ij4nkX6/rbu8mcmL488lH1KFhppHg7FirutQy1vOVW/fzTaRr3doY87l1ld0xrF76qVVf2U69bgnUvWbV4ju6TfnZN5QYYFcp0HDpZCzIKbWm5W7VhudTrF2X9sEt3dftu6mCCiLByfJZuvxtqc6u67H1HI6d9dEq1YPxhSX09fm+noJ2UBtq3d6t7q7yaqOUdNZW8aKG++t4/5XD6AiWZK/5om/Yd8E0CAAAAzkkEHec80/Fihq5pFlFqoaxE32/WxrU11aHpz9wJAczZ/qPSDfWvcieUwPR/kDBdKy5so8f7Br+aRRE/ZGjO5Ola5RRqnx42VsMGt9GGt+P0Vkb5+qUw/YaMXSw9OOg+XX+6zU9yyx+zlM9hbdm8VR3DfuqOVwO527Vl8Udau7PQ5+K7lGsbtfhFRYVLx7RhXpxm7mmkgUPK+Fnm9buhThr1+FiNGn2fLv80Ti99sMt9QBm5fcCo2xBFlyG3uTqsjXTw2CmEcjXV+jd/1cAL5ujBGH//JZ0nr1OHe7o59zXS5XX8jwIAAADORQQd57oDX+vzPfV1TcNyFDIvrK0rlK5de91xx+G1H2rBhd10c/Oi/Rp88+lirdCtat2ylPdwCpurZozRuE+lLo8NK6FpQIAftil52tOaudf0mdDHV6i9+tdDNK71Ns2cPkcbimt+UIi/Y8tPdfU9f9bA1sX0zRCM8/4r5jyrB+93O8u8/35N+tCZvvlTrQ1WHeCHTCXGTfNdTea07PuPlqwMV4fmp3pllTPPs8HZRo4WnedvNv1HW5q2UcsKqZpyTFsWPK2R721TS9PhbHH9bATK3a+1b5jtrr4GjhumDnWk0Jb99HSPy7X0telaUtbPygRu46dp6RX3afJv25SpydXlTZrp+sxkrTiVtiY/aaTuw9/T6n+4l+hNTFDHy7ZITX8apPlYgAPpSnzufkU522v08Omnvy0CAAAAVQxBx7nuhMcpGtZS7TK0Kjnpoia6/ufHtDw9052wS8tTPtHld9yqFoVfZ89izZyToevv6a32JZ1lNoFF3O807MNd6vL4LI3vWIYC/PcZShz/O036b4RGTQ3oM+G8+uraf4g67HhHL79XehOWw2tf1bBx72jfLSM1rm9xfSIYF6im8x779uc1vTisVX/9nRJz2mjUi/7CZtJzw9T9OueuzHc0pP89vkvmFugv5NDX+ip9sYaNn661p9q8wK31ss9c2rSUPiD8tjmF4E/0jdtFSqWoEerrHqJYzjyvWLRQiuxdqN+KbVq7fKuub9/8ZJMnz9rpaj96cZGrjJTKBBavP6Gn5mbo6nte0suF++8IxszXjOEakiL1++PUk53j+i+zPEQP6lO9/FoZmrAc+FQzRz6tmTm3avLYR9XyJ+700lzbTTGtt+nlP79a5lCuiJ+4l+jdt1iz521VhzvaFN8nSW6mEkdP17Eer/v6cvlb35qaM36ethTTpw0AAABQHRF0nOsuv04tr9yq5A/SdbjMhZ36ur1nJ+1LnKK4xZ86hejJmrmtjZ6+t2DHoYe/XKhJw/xnuJ8u9ion7uMeHaBJa3/qFDbnarx7FY2S+J4z6Am9vLONL+To3qhQMTusm/rdU9/XhCWpuLPl32dqyYxBeuBPTgG8y3P627BOxXdS6nOZLm8o7f0hr+nFdm1Jra8uPXuqZX1/YfPqphH6uQlcIkfqrfE9dezdZ/TbYU5BMi9kuLKTRsU9pS57F2rI6FMo3O5LV+KffqeXs+/T48V2VFlI7gF9/vZibchxxytD3fq69kJpw1fBmnoc05b3JuvlTUGaI+1K14rMmrq9eX47j8MHytlcxNj3qWYO66shi75Vh0Gz9HK/Mqwb33MGaOTK830hx8DWhcK1n7RRn0faOA+L05yVxfRgk3tYX30wTUMGPatk9dT0l8aqY1lqIp10mboOMtvDO3r06WlaknkKPeXkHnM2izka9vg0rb3hKQ0rKf36Ok1Lfhqt7m7tqotbxqhf40StysssAQAAAAsQdJzzmir6qfuk957RA488q5feW6xV6elaG2T4KqCgfPEtwzSt30/12Zxn9ecPaqvfc04BzzQ9MAW/9MWa89z9euDJ6Vrbcoje+nPwM9yHd3yqxLH3qLN5XON+mv7XhKKFzcLMWfvEJ/yv3fhR/S0hSMjhU1Mt731UvS7cppfnLi54Rv74Lq11Ct5D+j+mcWtqK2biXE1/uI0uLrUvh5qqfZFTmN/zrTveUNfcsk1LFy7Uhl2HdThnv7Z8MF0zF9dUr3ZtdE1EP8W9/JQ6NL9OjQJrulzZTaPG3aeWpsZJWTpNdQqyZl0t+MsTiu7/rFZd+bhejetXdJ3WqKnL136qVTv2O/Ni5scZ9m1zlvUdJV/ZTNeW1DRkX6bvM97gPPebDGcb2OQs7fnufWUSrg73NfJ1NjonNVPf+N5/v39bGHu/fvvOMfUaV/RKJd+kf6hVF/ZU65OXWzHZW4RabkjSW4udbW6fuxx5w/eF+vfYl6HkGYMU5ayXZP1a416cq1HdGpUccrjhxKPucya/WPx2d/ntsXo87JgWzEnUhsAaMb5w4R1NGna/Hnz5P6p97wv6R9yjap13edzycLaH8Qkv6PEr/qNxw+5xluUJxb3+jpZkuJdjDsZZhm8yPtWSxMka1u8uRY01/YI8p7+NKOGKQgAAAMA5IsT374iNXu/k5r6bqLr+nv6BbriqsTtWwfalK/mdhVqyIV1rdwQ7q3yxBk55O6BqfzFM1fhhz2pto16Kvq+bOoQV3y+H6Rdj1Oxj6hgbo+7hZWiqYphmGy9O165fPqoHI0sp0DpMTYJV1w5Uv4iA19/3kSb98UNdfX+set3StAwBR74NczprZO4LSnk4wj/he6eg/eorSlyToa+OOgXjy8PVJWaYBt5RhnlbMEC/nXtM/SbO0sCWJa3XY1qb0FeJP5SyTk0fJ69N1svL/fPic+Flah3xa/WK6aeOQQMh177FGtl/mlaY285zOtzeT4//tpuuKWsTDMMECCsTlfjuh1r15X5fuHR1WBO1/mVvxdzXSddc5H9YvsPasMCZ32O/0asx4e40v8Mb3tHMBR/qs/+3NX9ZjKZDlBTXM79phun8c/wnuua3j6pH60Zl/CyPaUPieCX/5D490SOi1OccXvmq3vihk/rfHrit7NeKqcO1/MoY9bm3k66voM4/TaC1PGWx73uobi9qelQj957CnPd/7jElHotQx18520SbCF1Tlnkw388npujYIy8634mLnfX8qp5KuEhPv+Tv3wYAAAAl++/uLP0m4g53DFVNyMhN0pQWIQQd1UilBh04845nKPHVLerQv2f5AgXgdJjOSP86WYmf7lfoz3tq2NND/JfiBQAAQKkIOqo2go5qiKADAAAAAM4ego6qLS/ooI8OAAAAAABgDYIOAAAAAABgDYIOAAAAAABgDYIOAAAAAABgDYIOAAAAAABgDYIOAAAAAABgDYIOAAAAAABgDYIOAAAAAABgDYIOAAAAAABgDYIOAAAAAABgDYIOAAAAAABgDYIOAAAAAABgDYIOAAAAAABgDYIOAAAAAABgDYIOAAAAAABgDYIOAAAAAABgDYIOAAAAAABgDYIOAAAAAABgDYKOauSCGufrxxO57hgAAAAA4EwxZTFTJkPVR9BRjdStVVvfHzvqjgEAAAAAzhRTFjNlMlR9BB3VSJPL6uu7o4fdMQAAAADAmWLKYqZMhqqPoKMaaXLZ1aoREqL9R3LcKQAAAACAymbKYKYsZspkqPoIOqqZDj9rrm8Pf0fYAQAAAABngCl7mTKYKYuheiDoqGbq/qS2ulzXWt8fP6pt332rg0e/p4NSAAAAAKhApoxlylqmzGXKXqYMZspiqB5CfP+O2Oj1Tiadqm627v/GGXbpwJFDOn7iR3cqAAAAAOB0mKurmI5HTZ8cNFepPkJGbpKmtAgh6AAAAAAAANVeXtBB0xUAAAAAAGANgg4AAAAAAGANgg4AAAAAAGANgg4AAAAAAGANgg4AAAAAAGANgg4AAAAAAGANgg4AAAAAAGANgg4AAAAAAGANgg4AAAAAAGANgg4AAAAAAGANgg4AAAAAAGANgg4AAAAAAGANgg4AAAAAAGANgg4AAAAAAGANgg4AAAAAAGANgg4AAAAAAGANgg4AAAAAAGANgg4AAAAAAGANgg4AAAAAAGANgg4AAAAAAGANgg4AAAAAAGANgg4AAAAAAGANgg4AAAAAAGANgg4AAAAAAGANgg4AAAAAAGANgg4AAAAAAGANgg4AAAAAAGANgg4AAAAAAGANgg4AAAAAAGANgg4AAAAAAGANgg4AAAAAAGANgg4AAAAAAGANgg4AAAAAAGANgg4AAAAAAGANgg4AAAAAAGANgg4AAAAAAGANgg4AAAAAAGANgg4AAAAAAGANgg4AAAAAAGANgg4AAAAAAGANgg4AAAAAAGANgg4AAAAAAGANgg4AAAAAAGANgg4AAAAAAGANgg4AAAAAAGANgg4AAAAAAGANgg4AAAAAAGANgg4AAAAAAGANgg4AAAAAAGCNEN+/IzZ6vZOb+24COHcd+v6IDh05omPHfpT3hNedWr2F1AhRzZrnq3atWqp9US13KgAAAADbhIzcJE1pEULQAUDHjv+oPfv368caP+rERcelC09INewIOnTC+Zk7WkM1vr9A5584X1dedplqXnC+eycAAAAAW+QFHTRdAc5xJuT4Zs9eHbvoqE7UOyrVyrUn5DDMsjjLZJbNLKNvWZ1lBgAAAGAngg7gHGdqcpy45Jh08TlQ+HeW0SyrWWYAAAAAdiLoAM5hpk8O01zlnAg58jjLapbZLDsAAAAA+xB0AOcw0/Gor0+Oc4xZZrPsAAAAAOxD0AGcw8zVVXwdj55rnGX2LTsAAAAA6xB0oJJkae5DUerzTLyWbPO401DV+C4ha1PHo2XlLLMtl88FAAAAUBCXl63CspMGqe3IVHesBLU668Vl8epRzx332av5AyI1ogxPlyI1JTVBva9yRyvC7iT1jxyjFQrX+PeT1LexO71Y6Zp0fYxmuWMlaTo0UcmDIxTqjuPUfbl9l7wNf3DHKsoBLR7QV3GpdRX77lz1aeFOrgy5znCe/2Z5hWz/ia5tWN8dAwAAAFDd5V1elqCjCstePEb9X9vsjgWxN0ubdpvaElF65bOp6lrHP9lvr5aMHqjpJTw9XzMNmTlBXQsEJadne2KMbhuX7o4FF9ptqlLjo+R/23TNuneCFvpuB+PR9o1ZynFuNRyWpI8Hhvsn47RUbtBxs4aljlO3sgRoa1/XHQ++546UQ61fKPbvk9SnRU13QtkRdAAAAAB2IeiwwKaZXdQ9bocUOUFps6LdwKAKOJKqsR0Gae4RqU7jcDWs5U7PkxfQdJqqtIS8oKMUOcv05M1DtUihGvDWeo1q7U7HaTmdoGP/4pc06rVMd6yg/VlZ2n+kpi4LD9NlQWtcNNVvZj6hW/M+/FMNOoyr+ioh9X7nFcuHoAMAAACwC0FHtbdDc3t30dh0qfmYFCWX3jbkjNk0M0rd47KkxkOV/K+Bal6ooJsX0JSnZoZn5URFxCbKoxi9sWG0OtJupUKcVtCRNE69R37mjpVXOWp7FHJsS4om9U3QJwekmp0G6ZVpUWpUOEwrA4IOAAAAwC55QQedkVZX21K10NcyJFy9bykccpj+LpqpcTmHSWvdp58Gz9qp+r0JORSmAeP6FQk5TCel65bscP6GquvNZW1+4tG6j5Kcfx0xkWpPyFGltJk8Vx9sSSnz8NIA94nllfu9MhMnqXeUCTlqqmnsOP19xqmFHAAAAADsRdBRTWWmpmiduRERrY5BKnNc2SJczYMM9dxCoWlSUvi+K0+xU8eTdibpsYfnyDRmaDpgqoa1C5JIbFujhRvNjWh1KGsnlUfS9H6SiTlC1bdzWzohrYrS39Wge58oZXhXZeoypoBj2r/zgA5v+69m/6avBo1bpcO1Guu+hNeVMPLmYprFAAAAADiX0XSlOvKkaWzbWF8fGF2npemVqNruHaXJ0tx7ozR2ozTgrc3F9nNR5qu9GHn9g+xephH9hmp+lhTaaYKWzohWQ0+6JvWbqj23ROuhXlG6qUGoMufGqMuEdCkmQRnjIssUWpzs2LTBUCV/ULQpDE7d6TRdObw2Re98ckCX3XqveuofZehj4x69tOVh1V02V+9vrqu2sVFqVqAD3WDyOjb1j118S1+Nm3q/IiqgQxqargAAAAB2oY+OauxkWNCgnxa8P1w3lbmKQ94lXEM1eP56DYtwJxdySkGHPMpMmqgRKyP0lxei1fA8jzbNjlWfyem+K6WY2hj1OrVVwzWpWnckVH1nr9H4W8ow4wEdm3acnKo3oq9w70BFqJyrrlSk/KCjzchXNC62ocp/fZXgCDoAAAAAuxB0VFc7k9T/9jFaYW7XitSUfyWodwPfPWWQF3Q4z0t1nldcR5CeQ8o54t4uzXk1VadOCYGFZ4fWJc3U2KlJ2pT3msV0UlqUR6snd1ef2aZPD9McJlHJwyNoulKBTj3oOKBPRo/V38vfFuWk6x4Zr2Hd6rpjxckPOu57K0UDK/BqOwQdAAAAgF3ojLQ6OpKuSQ/7Q47QWk5x/0iqRjw8VevKGkrs3CrnY3eE6cqSypehtVWnbhmHkkIOIzRMN8VMUPLfh7qX/wxVj6ExZWp+sj1pqPr7Qo5QZ3mlzFmxeizJH3rg7Du0O0uZG0992FfW7RYAAAAAyoGgo7rI3aH5T8VqlrmgSa1IPf/ubA02nZBmzVGfqan+K5KUYvvHSVptbkSGq/mZrBaRk6ZJT8f7Oik1/Xc82630PkXM1VseHulfrqaDZyvZ15+HRytGDtdcsw5wltVVt1mFrqiy8mm1MXe1e0JzfdPmalikmWAuJVvosc4wKbq02hwAAAAAUH4EHdVB7g4tGT1IIz5yiv21wjX49Xj1aByhYX/x15LwJA7VHxYf8j+2OEfSNPc13/Vo1fXuLqqAvhzLJjtVY3u7AU3jfpo3LarU9/ZsnKk+7tVb6nSbqteHRKjp3S/oxSiTzqRr7O9malOu76GoSvZ+q+3m7xUXq6zd4wIAAABARSPoqOpy0jXjN931WFKWG3IkalhrtzpGeD9N8VXr8GjRyHitKK4pgK82yCDN2uncbjxQj3Q+M8XQ7JXx6tV5kL8GRuNovfL6cN3kXt62ONtTxqj7vfG+5jgm5EieFqWGvmYutdV1+AR1NM/PitfYRKp1VC3HtDl5mXY5t5rd3FgX+ycWj6AKAAAAQCUh6Kiqcg9pU5JT6I+MUdxaj1S3s8bPDwg5fEJ10yPD1dcU/o8kamx8WpEmLJ6dqZp0b3e3Nkikprw+tBxXaTk1OVmpmhHbVm1jZ/oDi1ue0YL5E9S1pE5Td6f5nnPbU0nKdJareWyClp0MOVxXRWmUe6mYdROmar4JblAlHF4zV3Gzdju3OujubsX1cpvn/2lm6756Iu6/OuxOAQAAAICKQtBRJXm0aVY/dR/pv1JJ0+gJWro8Xn2vD5JQ1IrUkDG+jhC0fXa85gdUdMhMjFHE7YM0KyMvKIkvxxVaTsUhrZ4QqYg7Bylu5SFfDZTek1OUNjtWN9VxHxJM9jI9eWes+5wIDX5zmZJHRqpekA5Lm/YergG+ZUjVpNdS3UvX4mw5tvP/aeHoJ9T7ofe0TTXVZnJ/dSrS9caxgjU4sjKd7fqANn+x39xTVO4xHc5x78k9oMP7/TcBAAAAoCy4vGxVlZuluYOnKqfvRA2+5Qp3YjFyMzTjiaW6acxQtQ88mW769hg7XG/XH6rnB7UNGhxUOHNlmH5T5bl7uIbcH1Hm9/SkTlWfj5po/FPRal5SKOLISZmoSZ5ojbo7XHXOxDJZ7JQvL+vJ0jv9ntbMtW4gUaux7ntpvAZGBqYcB/TRoL6a9JE7WkizcbP0UkyQ2h+e/+rltqO0sEBTrJrqM/9dxfor9FQILi8LAAAA2CXv8rIEHcA57JSDDsex1AT1Hr1b3YY+oB5Rv1D9IBWOjm18V5OeflufZH3vTpFqXtVYbe4foCcG3aDLigmqNk+9V0/M8ocoFze+QW0eGqCnYxqrpm9KxSDoAAAAAOxC0AHgtIKO6o6gAwAAALBLXtBBHx0AAAAAAMAaBB3AOSykRoh0wl+x65ziLLNv2QEAAABYh6ADOIfVrHm+dPQc/Blwltm37AAAAACsQ9ABnMNq16qlGt9f4I6dO8wym2UHAAAAYB+CDuAcVvuiWjr/xPnS4XOodoOzrGaZzbIDAAAAsA9BB3COu/Kyy1TjYM1zI+xwltEsq1lmAAAAAHYi6ADOcTUvOF9XX3mFan5/oWpkXygdOc+uDkrNsjjLZJbNLKNvWZ1lBgAAAGAnf2lmxEavd3Jz300A565D3x/RoSNHdOzYj/Ke8LpTqzdzdRXT8ajpk4PmKgAAAIC9QkZukqa0CCHoAAAAAAAA1V5e0EHTFQAAAAAAYA2CDgAAAAAAYA2CDgAAAAAAYA2CDgAAAAAAYA2CDgAAAAAAYA2CDgAAAAAAYA2CDgAAAAAAYA2CDgAAAAAAYA2CDgAAAAAAYA2CDgAAAAAAYA2CDgAAAAAAYA2CDgAAAAAAYA2CDgAAAAAAYA2CDgAAAAAAYA2CDgAAAAAAYA2CDgAAAAAAYA2CDgAAAAAAYA2CDgAAAAAAYA2CDgAAAAAAYA2CDgAAAAAAYA2CDgAAAAAAYA2CDgAAAAAAYA2CDgAAAAAAYA2CDgAAAAAAYA2CDgAAAAAAYA2CDgAAAAAAYA2CDgAAAAAAYA2CDgAAAAAAYA2CDgAAAAAAYA2CDgAAAAAAYA2CDgAAAAAAYA2CDgAAAAAAYA2CDgAAAAAAYA2CDgAAAAAAYA2CDgAAAAAAYA2CDgAAAAAAYA2CDgAAAAAAYA2CDgAAAAAAYA2CDgAAAAAAYA2CDgAAAAAAYA2CDgAAAAAAYA2CjirrkNYlxmtWUqpWr0wrMKxImq24ZTtKfMzqlETFzUpVtv/F8uWmadL1bdXl3olakeNOK2TdzGh1HzxRs1L3ulOqlpzFw9XYLMO4ZUWXDwBgnczEWPWfkartR9wJBWRpbmy0HhuXpE1B768AuR55PO7tKoD9IAAAJQvx/Ttio9c7ubnvJqqKvZo/IFIjUt3RwgYkKmt4WMmPiZygtFnRqueO+uxOUv/IMVrRYrSWvhujpu7kfM4B471RGrsxTAPeTNaodqHu9Mq2V0tGD9T0ze5onv8Zo+QBEe6Ia+1UNX5wjrsOCt0HALBLboZm3BGtuJ2RGv9+vPo2LrRf2paoXp0nap2zz/t4ZrQanudODyZv/3EqakVqysIE9W7kjlc49oMAAJyukJGbpCktQqjRUeU5B1apm5W1xR3e6udOD1ToMakT1NG9p4hcyXdS6oYwNfRNKGTbGi3c6PxtEK2evyxLyGECmWZqfH05hoh4rXOfHejg7gxt2lho2G/uSdese6PVPW94Nsn3eCWNzp9mhtGc2QIA23hWJmn6TqnpsKHq2yhLs56ZqRVZh/Lu1eo3X/DtUxqen6H50+MVF2+GqXrymdkVW8PjSKpGjEjUdnc0H/tBAACqGoKOKi9bmZ8FNEn5r3O0V0Shx3y2tfgDne1btdr507B+PQWLMbavTPEfMPaKVPPznFdOT9Ik56ByXUUeLN5cTMji008LgoQ1ewIP+vIOcA9kFTwY3F1MWxwUtTtNMwZHKcJ30N1WXQZP1aItBetlr5ta6MC8yDBI83e7Dy7ikBYNbabwCWn+YM3I3avVM4aqS1v/8yPuHKpJKVn59wdjnhMfo/5J5WxGlXtIm5ImqldkK997hUfG6MlZacrOde8PdCrzlac8zy3DOgcQYHeK+veMVf9JifLUitGovuHyrElS3MJ49f9dotaZr0/GHI2d6/8ebf8oUTNmzHSHOVq08AX1mZ3uu++k1sPzTwqUYfh4WvTJmo91uk3Qx3+PKWH/VQ7sB8++s7EfDJC9Jl69BiWVLZg6kKLHzPsNKOPjnXfc/tFMPdYzUuG++XSWL3ai5mfkBYT5PDtTNeuZWHV395eNIyLV65nZWl3scgUqIeSbWui758jJSNLYB915ynsfkjkAlco0XUEVk+19++Fw77XXFTM8v770xzy8wLvH/2LePf8e7Y26515v1K8ifPf94lfObTNuhtfMaxnbvW/eZ57b2Tt9s3/KnvcGen9hHj/2Y+9R/6RC8ufhuc/cScX57Pki85Uv73We9641o7sWeGPNY33LWUje6wS7D6Xb4azbG53P9IHnvW9/uMa76sN53j/0cLaLGwd6397hPsZx8HPnvk+CDUu9f37AWf/3zfN+8aP74MK+mueNNtvRBnf8x+3etwea93jQ+9yCj53X+Nj75rP3OttWhDd2wXb3QQXt+cydL+ezjl2Q7U4ti6Petc/f5TzvLu+g15J987xwej/vjc7rdHa2mQLb8SnM10nleW4Z1zmAfF+8ca//t958p95zfgN+3Oruox70vrnVecD3673PdTXjhfZR+5O9g8zzOj7vXfW9O628nO/3Qt/32f/+0QnrvQeL+71jP1j9nI39YJ5d6919RXHbQWFHvasmdS5huynKHLtde+OvvLHPL/AuN/P74QLvcw+Y/eldzjZa8Ghuz3vPeGPHzvMudJdt+YLnvTFtnPdy1sXCXe6DirXe+2dnPUZN8u9rCwyf57iP8ft6gTmejPBG/f4N/3slJ/jfp81o7/v73QcBQAUw2YabcjgIOqqgvAOee73PJQfsON54IuDgppjHJD/vjSq0Q9zj7GB8zwsyRCa4qcaGBG+kmebsuL/2T3HkvUfnIjtHPw7wqpcc78InnHXXNcG7MfDg7PuPvX80B32/X+o96E4q1uYEb+ditwe/jdOdg7KA7ehgstlu7zoZoPkd9S4faw4snyl4kPOV89n7AjnngOjZ0b7toFxBh287jvAO/XfBg6wv3nywyDyUa74KKftzK2CdA+eivDDR+Q0wIeXX/37GVzjsbPZZAff94kbzN68Al+N9//dmvOhvQKmO+n/TDm5e4P2DG6Bce6Ozf/24tN8f9oPVy9nZD5qTSW8P/JVvG/5Fj9HeP5jPuizBhXmvG+/ydu5Yxsc79nyy1Lu28EL8uNk7vayv8fkbvuPIKF+iWJL13uecx5W6j96/1DvUWbdFTjbsSfZNjyy4IwWA05IXdNB0pcrL0KynYtUn1h0mL3OnByr0mKfmaJN7T5560QnK2rJUU9qZsRi9sWHzyf4+mtSSsg/s1ZIFCb62x01b1tH6RLeNc+xAzd1iGrns0Kznk5QZrOp/JVs3K6D9sRmKa5tshllFq0oiwO6l+udiqeuQGF/TpJNqRar3Y2HypCzT6hJrPh/SooR4ZXZ7QkNaF9OHiydN81/boa4PdXerZu/V+/90tttug9Q33DfBFaqO9w9SwyMpWrwmoDrt3r3a0fJBvbgwVckT86uNl9W6fzvbcYNBeqRLbXeKX9OeseqhLM1PzXCnlHO+CijHc097nQPnqPPC1HvabA1oLGXOitFtQ1PkadBP400Tlm2pen+NR6GdJmhparz61srSrIeHOvutZ/Rkin/6s90K/gaUan28r8p9RM8xmp/lfJtbD9S8ZUkaFXmF+4Czh/1gBTor+0Fjr7K/aqW+05KU9u4E9b7enVwS0xHv7+MVNmqMBjRxp5VBvVs666Y67kie88LVvpvzN3VrkH5mCrm+ldo7fzL3l7JzysnWHudPw3olf9dy1izToiNtNaBPRMFm0/Wi9MgjYdr+WrLWnYXjSwB2I+io8gp1NJo3+HpZv0K9ZwW5r7jOSD1Z2rTG+dsuXE2cPU32V86RnKOOZ43+0DZSjyX6W5Fmzh2uJ8e5bZxXZmhTTm3Vq+vckf6C5joHlpUrSSPMgdrAeF9fIj77A9ofm6G4tslm8HXahuLkrE/TCrXV7a2KHpQ0v/EO599l2ujfLILbmKi4xWEa9kiUCh9D5clZlqi5itFDnd33yFmvValS+1siij7n+gh1df4s2bLVP244hYulM4arR3g5Cyk+GVq92NlGu0QUPIA16oSrQztp+3q3D5vyzNeW2eoe0copQLghSTmee9rrHDiX1YrQqNfz9mlhGjAxRvXWJGqJJ1qv/CtJS6dFq2GdSOcx/dT0SKqz30r1hSFvTIsqeMWxsrjA/avG6j3ZKYz+fajal/tFKgL7wcp0VvaDPhEa/H68RkWFq07h/VNQHq2Le0ZxYRM0ProcKUcJPCZMqFVMOBNo22atU6h6Ngt438L7QeNIjkwUEnpRya/pcR4nhatpA/94oCuvauy8ToYyy9QnCACUHUFHdbFtmduTfMnDkm3u44PJynB27uYsVRPfGYY9e82ePFQNb26n1uGN1TVmoAYPfkZTEmZr3uwkfZyWpnRT8yM9VanTYnwp/DrnIKq4qGPWg4U6oio8lOmSfoeUaQ7UMvaefJ+bhhcKck4OaVr6ppnX2Upe6U7jMnsl2rPXFL6b6MpgJygbNlF7Z63n5BT3CR/SotfitT1yoHq3cCcVsUML31ymho9Eq33ecc/ebJl3bXpVkBLDeQ3UtJ1zEHQgp9jtqlw82dqz0zlYDQtWOglTQ1P7Yk+ODprR05mvcjz39NY5AE/2DueXxfm6xE7QsFuk1QkT9WRcinIahKthLeeO3B1a8l5a/lnqnUmaPruYzofLJFK9o8taGC2I/WDVd1b2g6fAszZeIxLDNGV8KZdMLqvcDK1b6hz1RbdTc3dSEbkeZWelKm7EC8rsNkGDO5VywsH5jpk1dXK7dzsYXbEt2PrLUGaQ/vSPOu8ppRF0AKhwBB3Vxd71Ab3JFz+sLeHiFNmb1/sOBHu3MqW9vdq63hw6ttV1zsHi4IUpemXcUA0bGqvendqq/S3OAWTd2qrj7qRD2w3S0tT1Sh5YqNphhQve23xwHq2b5W+us/BrdxJKlLPLnImpefJzLcA5kDKTt2cX01wjI1HTF4eqb2wJZ0o3/kuz0iM0ICqgPceBHb6mVMHP+FxoZsc5Lsz2nRU6bQeyfdt4vVrBz7OFmoPFjTv871We+bo+VsnpzvY/wF2ucjz3tNY5cA7LWZsoXxPKETOVqSsU5lmmJ+8dqrkm0E+dqfkbDynzo5nq06GLnpyfodBuozVvWj81r3VIq+Nj1bZ1tJ6clarMA/7Xqz7YD1ams7IfLK+dSXrs4bcUNma0egepBVF+bu2QA5Ea379tkeO47KRB/qAivJXa3jla2+9JUlp8VMGApfB+0KjVSkNm+4O2ebMTNCW2nfPdfEH9O0dr0tr8sKPezZG6SWmaNS/dF4ycdCRdc99Ic0cAoGIRdFQXeZfEc/vV6Dg51TeeNjnSNz7gLf+ZnFGtfaNBHNK6lanO37Zqbtqt5G7Vxo+c0Qat1KTYvXWA865Qw6vc28XIm4diB3fey6tI2+STw0DFfeZ/zPxn/dNGLC7nZUhRRh6tXpCgzAaD1LtdsKNDw3nMewna3i1GPRu5kwDgFHm2m6Yoc7TE14xgr1YnJmrJTo9Cr7rCKajtUNy9bdVlULxWe8J9TU1MzcP2UcOVvGy2ht1S21cdftHUQeoyMPGM9S/FftBmZ2g/6BT+Jz08RjtiZuuV6DB34mnI3aFFI6PVK7GOhv09PmhwUqfdoPywYngXZcdFKaLnVK0o7dKvdRur/S3m5JgZItV76FQtWJ6oAY2zNOvpOdqU971rFK1RAxorc1asej0Vr/kfpWlF0lT1v3OgMq8xx7FhusTUzgKACkTQca7wrNeqFHMjTWN/N0bzE5dprjMW2q2tvwpj9jJ/m+AShrN28FS4bXLAkH3E/5CcLP/4HnccxQgt7uDMccTj67uiaYMg9Xk9aXp/rkfN+3cu2vdFngPL9KazUfXt3blgu+XzQoucPcqXI49pT94krPzt6YNx3qt4HuWY7aNdE/97nc58lee5p7rOgXNcvdtGa2mq24QyLyCInqjkhf9S8luzNb7TFbopZoKSU5M0/ppU/TEhVZmmGlW9tho8O01pb41W34ja6nh/FzUt7nerumA/WHHOxn6wrHJ3aP5TsZp7zQS9PqwCatBuS3GO7brrD5tb6cWFiRrcIvgrhjaIyA8rBozWvOWJ6uuZo/4jk/x9WpVHrQgNGdJZ2rlU6042pw7VTcPeUvLkaIV+NkcjBsXqsfh0NRz6ll7s19i5v7EashsEUMEIOqqFQ1rnuwqKM/zD35v61mUJvvHpy/w9Zq37h3t/Yrq/qn0hnvVrND/vdkaSRkxIdIp9oer7a7ctb26O9hQ6eCo8nK2Dp5Ntkz9L1Lx31wecHUvVFH+FlpNn0d6IZk9ZkoZhbZ1/s4K3hd1jmmOEq+GV7niAnI9SNFcR6h1pDkiC2744UUuCnem6Kszfe/tXQYKy3Gxt31hcnxqnoF6Y7yotK7aaZlmFZWuP+bo0riffIp7OfJXjuae6zoFzXt0LtXX6aMUlpCjzqDvN+R6vmztBIxZkq2dCqhaMi1bzOlma/+c3tCh+kLrc3FZ9Zvj756jXOkbj56dZsV9gP1hxzsp+sKzSEzXiI488H43RbeFuvxe+IVIjTKXc1DFqa8anln5lnZw18erec4wyOyUo9d0J6lGeGia1ItS3v7OeUpdpdbmTDqlOfVNtJEPbA5uNnVdbzaNHa0Gqf/vNSE3U+OjG2vNFWtlrFwNAORB0VAseXztkXz8cC/07t+0fJfrG537kL9CtW+je/9FW59FFhbYbrvTlSVq6Mk0LhuZ1VObR3D/P1KbAACNygtJOHkD5hwUD3PvOpqxE9YqMUZ/fDNUiOqw6ZfWatVJDpWrTlqJbyab/+8A5uGmr5kUOhg5p9bIUqUWU2hd3oJSboUWvpeumR+4qeqbrqmZq7RzzrNiwuei2uSVdSxSq9s2KP3AsnyZqHeX8WbNZmf4J+XIytGqN1LFlM/9ZstOZr3I899TWOQDj4O5lmrvWo9AL3Qmqp3qh2VqXtEwrThaiGqvvW/4aHL3Dj/n753gwsehvQHXHfrBCnJX9YFk17uU2ISk8TNUA0/lpi3560YzfXcpVWDJmqtdDc1RvTLJzzNdW9U65RlOdEivAFMd/Vb/IoFdZKcBZZ0veyFDDByKL7yAVAE4RQUe1kH8Z2aVjTCdQoRo83z9euI+OrFnR+VXt93v8V5dwhTYIV9N6NZWTnX9pMNOrd/d7Z2pd0f39WRLksnpG42gNuz9MOpKqP4xLKX9VSviFd1Zfp/w9980UbQ9ss+6s1/mv7FDTx7rrpsIHRG6zp4ZdW/lqSwTjWZOk6Ts766FuwdoTh6trH+dNExO1sECP6x6teDtB2xsPUs8Ku0hAbbXvFq3QjXM0v9ClkDMXztaiWlG6v1Pe2c7Tma9yPPdU1jkAxw5tN/1PXFFHl/gn+DRs2c4pqC7T2g3mO35ImSsztP2IvwbHlHeXad5QpzD4l5hif6+qPvaDleqs7AfLqECfF4FDOzW9zLn/sib+8etLuhrKIS1KiFdmdPyp9/GR10lot0i1L28bHOe5r72WKkV21u0l9u2W10FqlEb1Po2OWwGgGAQd1YmbfEvRal2WfULe1SUCbE8aqscSnYPDxkOVnJaoYa1D1dT003GKtSwDVdZl9fxC1X7oaPWtZY43UrWOI7xT1Fh9n+unpqlj1H3AVF+HYKtTZuvJB4dq7lX9NKVvkA0rY72v2VPHcOfIMKhDWjI/Ueobo6513UmFNI2ZqAGNU52D91hNSkrV6pUpmvVUjLMtNtAAZ35O+exXEHU6DdT4TtmaNShGT85Kcd7LOXidGqteEzLUccwTBeaxzPO1Zba6R7RS91n5IWHZl+kU1jkAafdWX43Dhj8PK9jfQYPGauX8mb8+Q57UeHWPjdZtEc0UcedQTfrnVtWLGa4epZ1JdnkOHFKOO2R+7m8KejrYD1YHZ2c/eMbkbtbGxc4+qlaO1q10li3IsG5n3paVrhm9h2tSotlX+u9blDhRfW6P0awDnfXi8Kj8716Q/WB2ykQ9OTlRiwo/d3ek77K4+a1R9mrRuOGK8+0rncemJGpsbKR6JYZq8OsTzv46A2Algo5qw02+dzoHfQOiSr42e05OkDM9HmXOHaQuI1PlqeXsgF4fqOZ1IzT476la8EhAh1efxat/QAekvk5Ik9z7KkqhmiYFlXBZPWe+h7yeoORlU9XVt/c8Kh3z3YNyCG09XAsWTlDPoykaOyhWfSYkyXPLBC19d7huCtLrefZWpzCRd7WeYLYl683FYRpyT9FL1p1UK0Kj5idpSjePFk4YpD6xEzTf01bPpyRpVOsKSNkCnRem3jOWad4jYdr82nDnvYYqbn09DXlzmd4ofHbrdOarHM8t7zoH4Pz2rFmmFc6vStebCxU867TSI7NTlDooQp7LwjUsprOaOgWlnKxlmjUyVl3atlLbQTO1Iqu0yzY7+9XpkYpo29Y3dBlnOkFwRFRQ58glYT94Vp2V/eCZkr3D12wrc67Z//kvPVx4mL4m77vRRO27SJvenHDyvj8kbFa9mKnONhZfamAYWr+ePGsS9IeTz12vOtHOc1MTCl3dJVRh9T1aET/U/z4TEpV5xSDNez/Jd8INACrPiI1eVDXZ3rcfDvdee12E98/rvd6Dq1/0Rt3ojN84wbv8e/chjj0LBjqPCfc+95kzsnWeN8q5bcZ9Q98F3q/9D/Pu+fcz3l/4pt/lPPaoOzXArgXe2MDnBhliF2S7Dw6UN5/uPJRk/RveqHvudYY3vGvdSfmyve8/W/C+o/tzvAcDlvWk7z/2/qHAvA30vr3LvQ9n3Mbpnb3X3jfv5LYGABVlzycfezeaXdZnz/t/7593dojB/HjUu2frx97Xnn7Qe+PJfcNd3tc+d+8vxtFPJrj7Rmdoc5c36nfPe5fvcO8sM/aD5zr2gwBQdZhsw0QcISeDjsl0A1S17NX8Af5etk3/G6NaS56NKVpdN0odA1Jyz850rfvKo3rN2qpp3XTFRcRoxhGpTuPOGvJn03lVXlK+V4uGPqEvHpypYe2CtO3cnaT+kWO0wnRGGtjPh2NdfCv1muFRx8mpVaQ390Na8lRbPZYihV4Vro4PTdSLA8LP/lmUc5EnTWPbxmrPxDS9ElVSm2EAOA3ps9X9T86P/v+MUfKAUjr18ezQ6rkvKW5XlOaNibR038B+sMpgPwgAVUrIyE3SlBYhBB0AAAAAAKDayws66KMDAAAAAABYg6ADAAAAAABYg6ADAAAAAABYg6ADAAAAAABYg6ADAAAAAABYg6ADAAAAAABYg6ADAAAAAABYg6ADAAAAAABYg6ADAAAAAABYg6ADAAAAAABYg6ADAAAAAABYg6ADAAAAAABYg6ADAAAAAABYg6ADAAAAAABYg6ADAAAAAABYg6ADAAAAAABYg6ADAAAAAABYg6ADAAAAAABYg6ADAAAAAABYg6ADAAAAAABYg6ADAAAAAABYg6ADAAAAAABYg6ADAAAAAABYg6ADAAAAAABYg6ADAAAAAABYg6ADAAAAAABYg6ADAAAAAABYg6ADAAAAAABYg6ADAAAAAABYg6ADAAAAAABYg6ADAAAAAABYg6ADAAAAAABYg6ADAAAAAABYg6ADAAAAAABYg6ADAAAAAABYg6ADAAAAAABYg6ADAAAAAABYg6ADAAAAAABYg6ADAAAAAABYg6ADAAAAAABYg6ADAAAAAABYg6ADAAAAAABYg6ADAAAAAABYg6ADAAAAAABYg6ADAAAAAABYg6ADAAAAAABYg6ADAAAAAABYg6ADAAAAAABYg6ADAAAAAABYg6ADAAAAAABYg6CjGstem6RJU1O0PdedYKyJV5fY4Zr10Q553ElA1bJX8wdF6rGUHe54IRmz1evemVpXVTZgj0eewO9Yccr6OAAAAACVKsT374iNXu/k5r6bqDrWzYrWazsi1bSuO0EebU+vp4dmx+omHdKSp0xhUeoRn6oXu9X2PWLTjC7qHr9DTYclaenAcN+0POb1xv7bHSkgSuPfdV5zd5L6R47RirqN1bxBqHuf4bzvxizlDEhU1vAIdxrOObke5eQcc0dKEFpbdWq5t4PJmKkuD2ZrfNpotQ/czFxmG/6d4vXx4ILbb+XbqyXP9NM/b0nQK3eHudOk7KRBajsy1R0rSaSmpCao91XuaDH8r9dYC7YMd77HVdv2fw7Vw59FacHEzqrjTtPuZRrRL1HN/zpbfRu700rgOXCoSOgaWqe2Qs9zRypCVqJ6TZD+MjtGDd1JheWkTlTkEzX1xlpnvVfkexdSnT5fAAAA24SM3CRNaRFC0FGFrZvaTL1muSMn9cs/gN44U7fdG6/tEaP18XznAD83QzPuiFbczs56MS1ePU4GJH7BX89wXzMv6HCnFkHQcW5bO1WNH5zjjpSgpO0kd4fmD+6uER8Fr64xYFq89oweqkVH3AlFBGz/leFIuibdG6vMR5L1RrQ/7PAVXLcOClimQ9qUul66vq2aX5WX1DjPuz5BTcsQdOQsHq6IoVeUvBy+UClb2zfvVI5vgkfbM9Zr+/e+EeVsSdW6Xf7b2pulTbvbBg1Zts+P1W0pUfr4zehiA4CS+Oe1jt7YMFodT4ZS/pD1SU1V2rSAACQos15iFPRnxydUHSfnr+vyynbm77GdsVowoLbm9u6vnD8u1eAW7p2F+X7fZqr1QucxpWZopc23o5Oz/AlRqueOnuT7nmTpxZUJ6lHkTgAAAFSmvKCDpitV2E3DNytrS+EhoHDU4i4NaBeuHl2a6MJcpyi0JknTdzpFh74x6loo5Ag04K2810rVlEh3YqDICUoLfM+3+rl3oLozhfbG1zcrcZi01n1wMIW3jUJD2uRgG1S+7f+cqLE/jtbHGf7HLx0T4at95H/+enX4bLg2xyYqwzeephe7hTnb63r3fjMECQdMKHDgUPmGnGLaxdSK0KjXR0sThmtuljutCI82vTlIC3cGqY5SBnWuvMK9VYL0eEXcHqMRcVM1yRneXOaGHBeFqfXN7XR7tyi1v8yZj6xshbZ9UOOnDVL7IN/5HVvTpPCwUwo5jDqt2qqjkrRqozvBp7a6DnlGzVNe0PS1pbUvctbnyc8uYMhI07zB4QpVTWcoA1OLpGcrhfeM17qAEKxeu0jVm56k1Z4wdbz7Ck3/d7p7TyFmGwltotbX79Dyfy/T6o+SNCt+qp6MjVaXtlO1ukiTowgNS0tTeqHh49n93O2vttq3Cgs+7z9r5qyzNH3h/BYDAADg7KBGRxWVvXiM+r+22R0rqPkjM9V758AizVA8OzOUeUAKvSpcTZ2ylHnclG75haq8Gh0m6BjV2kzZq/kDIjUitVCNDlOYnRWdf6Yy70w+NTqqPc/OdK37Kljh1KPMf47W2GVd9Maq0eoYrOmJ2Q5eaVJw2yikaO2HfObse2R8Hb0y13n9vBfYnaInR+ZoiGlysHG2+rxWR3+ZFq2GbtMCz8qp6vXZbVowtG3xBeKy1jQJVHgbL8zjrKNQ/zueXKZfLw3+Pr7XaqLXitToyPt+uaOlKW2eXDnpM9W/X4IUm6BXhrRVvWKbYezQ/Ie6aGHUUs3rbWpM7NWS0QP1x5QMZQepMdNxcqreiC4cwmRp7r1Rmn9PipJNO5UjO7Tpo1TNX5yohcuy3NomtdW0c3+NHzdQ7UubeSN3hzMfg/RYktR31hyNjywt+PE4v13d1WtLtMY3Stak3OFKHxfpbg+mdklb/bNTml65+WM9OUEaNiNKDZWhGbeb2m2+BxXizO8tt6ljRAM1bNJOzZs1UfNGV5TalCZ7TbweGzRTmxr10yszh6tjsTV30hUXEaN1o/LWOwAAAM4Umq5Ucf523sFLSKZAMmRrZDHNUPIVLriUOeiodYWaNw4osZjCTdYhgg6bHVimJ28fqpwxwQq7LhMoxIcpOb57sTUEtqc8oe67hgbfTnIPKef7g3r/qS5lL/yfVMlNVkpQNLzxf28yH8v7HhnBm654cg4V7aB0fbwiBklvpA31L0+t2qpTpmoNzus5n0H3B1PVvnBAEKyPitw0TQqPld505rOdf1LQ+clTzHxsmhGp7slN1LXuVq1Yu1ehjTurZ69I3d6qle93IjRnq+ZOjlXcmujiQ7I8punSU9Ea8XETDfv7bA1uUYYFP5Cix9q+pBbvLtXgxqka22GiQhOSnWXyP9eTOlV9tnTRvAERBcKwwGU92SfINmc9dU5Sz/eTytS/iE/uXq2YOlCPzc5S88GlhUuGP3x5rE6CMk4GMo7daZoxMkF1xpStbxMAAACUH01Xqrh60QlKn/2MBgweqMEBw4CRs/ViQEE0vxlK/lBa84H5z0ar+71mGKi4z9yJgY7s1aaNGfmDCTlgtU2JL2hR3aEadncpZ9fXTFT3tm0VUczQfUKa+8AgznMK0nXC1HtW0W325HZrwrTC96VOUEf3JaobU8CuU7fQcElN556a+eNlKOv77EzSYw+/pbDJCSdDDlNLptesDKlxpHp+P0eLApuYZO9QpsLV8Ep33BF0fvKGwPk4skPrkuL1ZG/nM43fK2XtVOj/vKSl6ZuV/n68xg+IVsfWjVXPPK9RhAZPi1dfJWr6P4u5ko5xJEMzftNdI9a005SFiWULORybEl/Skoh+6mH63qgVqWGTIzR3XMLJq/KERg7XgkIhhxG4rCdrazTqroe6ZWjWYmedOTzbMrRolrMOxy1za6cEYbbbWvXUd9YyX82ikkMOo7aatAqXPs5w1r8jd69Wz4hVRGSsXlM7NQwtrbkPAAAAThdBRxXm2Z2mWTNmakbAMGvl6V82NicrP8QIVoWdPjrOMQdSND1+h7oOi1Hz0gpxhbeNQkNpIVuV5inYj0fhmg+mRpS/HxN/c5RZD5axX5MKcUhL4iZqxc2j9XxAx50l9lGxe4dWq54u8V+QqVy2/3O4+sRn6JK7X9DS5SbE2KFLGoWrYXG1NWq11e13O+vos4zggUFOmuIejNH0Iw/qjZR49W7kTi/NgWV67bVs9R2S35lqnS5PaHzYTI1ISC/zb6Gp3ZFzYIc2rdyso3XDtD0+RuERzRTe+xm9/Xm4Hrq/VQmdqobqpqEJGlVqE5t8TVtGKnTneq1Oma0+HSLVf2mYRi1MU/rsgepY4IpWAAAAqAwEHVWYqdVRpDBZhjb8pSm1M1KcU3xnzBv00yOdT6FEfCpylulJNyAIHHxNtWbFFJneuKQrAVWgdfEFa6dMWukvRu/Zm6WGlziF3aCdA/uH/CYsBQXt/NXXz8cc9So8fWoxHWkau5fq7ZR6GvZkoe9/3dt0d6dEvbnskBp2ilHXbTu03b1LRz3yqLHCTuEHo+H9icpITdD4mEg1bdBKzZ3fifnr/bUgggvN69KkqJ3LNKJ3rJZcM0ij7pfeHhCpcN8yt1LbnkM1KSld2cU0p9k0P16Lrhqk3rcEvPh5Yeo9arTqzBituJI6QzVN8dx1G36z+Uy7q//UqVquO9S1sUd17k5QelqK5r0Qqx7hZQ8xyqRxM3VVqiaNTlHD4UlKe3eCeoefoe8XAAAACDqqspy1iYqLjy84JKYXOGOa3wwlf+gfX0LzgZL4zgDjnOI7Y75DNz0So5tKOdGc/VWxlyEpny/Wa0mDoUouFBYU23TFN1R+/xz5QYY/AAy9yL9CPAd3qMkVJi0w/XA4Bee2Uf7vWk9/gb3/P/f6HhdMvagXCly1wzckxDj3tNV4c4Y/cPqQ4vu/yVmfphW17lD7IpdFra2Od/dT9u6t8lwVpRd9HXH6Ze90Pq8GlxRp0lEmBWr2XKGbbguX5+PN/qYYweRmaN1SqeHPwwrWjNiWpMfuHar5WU4hP2er9oS205CX/qU0s7ypSXrx/jpaPSFGkYMTlVk4szDb5itZ6jokSE2jxjEaP0ya9WzBq7AUcFW0XnHXbYbvKj/rlbYwSa+MG65X/jJUlyRO1dySsptTtS1FI3oP1Ypuo5XsLOOU6HDVKbW5CwAAACoSQUcV5vkqtUCzFd/wkVOgce83ApuhnBx2l7VCdyG+M8COz+LVPzA8eTbJdzfss33xbC060lkPdSvj1SHqhupoQPOOwsOeI6Vve5vWfCB1a6vC3R/XqefMw+7s4vtKOEsKNmGJ1JSFKUp+N0nJC1M1b4DUtGEJtQFC8/uJODk0C1dHUwOi8PQSOvHcs3erdHOTk1ejCVRcHxU+Ta5QQBcdp6xps7YK3ZiqzdnuhACe7CwtmvSM4g5EaVTv/CTGsyVR/XuO0ZK60c46+0BLZ0/VsOhINW/kLu9VjdU+ZoKS/zVB7ddM1Iikgv17+Gpz1B2qId2C14RoPuAFDdMc/T4+rdgmLHnruMgVVcIH6vXJYZr++6nFByWnYmeSb5kz70lU6rQYNS++PQwAAAAqEUFHFVZS0xX/2ee8pif9NC8j77ZTEEv1P7a4q2cU1xnp9q/d05t0RnqOyNKKBelSTLS61nUnlWD71lRp4XDdFtC8o/BQYmekRm6G85475AnSRCV8QKKUMlQRhaYHDpXfF0Zhe53ldgr611Rw04ZyytlVGVUPyqFFO/VWqtZmuJHCmqknP5PwW6L13M7umvf+1ALb0Z6tGcrpNFpLS2u20SBaj9wvrfsoTSdzlN1JiovLKrnfmPPCNfgvQxU621yqtphOUHP3al3SVD3m/N61jcjbjvxNZmZ5ojSq5Qfq81SSthdqOrNpZoy6jFuWPz9lkZulub8fo633J2jewAhqcQAAAJxFBB1V2LqkiUWbrkxOCag+niPPfv+tImcsSxC8M9JD2rzGX0jtEZ9WMFyhM1I7ZSzTrI2h6tu5bRmaN+xV5hap/cSlBbeNQkNpnZF6/jdZ0zVUyb6mBHnDeiUPi1Dzxo1L6Ow0UQPUVk0DLt16Rng2a1Nq4PumakRkfvBiLtecub34pivOCygzxSlo39n25HMa3zlRq5WlVcvStb2Mla8aNnHW636PDrrjp8QXTkzVOne0XEIbq3k7aUWG23zpl0NPNrnJyFivtISBal/os2nYbYIWTItR01rmssMT1SuylW/5I3oP16w1BddZkd+vOq10e+9niq3NcVL4QP11TLhWjBykSYX76ziSrkl3RarPm3vVuv8YzXvfbSKUlqw3hndW022pWpi6Q56PZmvRhsDnZmjFP9LV5OZ25esPKX2BJqV31rBBZfk+AQAAoDIRdFRlWxOLNl2ZvTm/an/OVq01l5OMbHKyXX5ZBO2M1NfZobkRqQ6t6DTvXLApNUnbFa3bby5DsezAGi1PDVOHlmVs4lKM0HbDlbF8YP5Z+pwMzR0aqd9/Fau/jishJPHkyGOKj2f4LLnns1TNb9BOzRuYsQiNKhLAbNYbJVySN3NurLpMP6QOY97y90uRtlTJEx9UU+3QkrhY3dY2Wk/OSiu2M8489Zq1UsONiVpyGhU7fH12lPO3Il+Ymt8Spu0rN/s7Oz0v9GSTm1JD1o0z9Zun1qj5uGTf8r9yyw7FPdRPcel54YI/RDO9pp5s6VGrsfpOjC39KkCOpjFTNaXTTs16eKjm73QnOjbNHa5Znn56462pGhAVoaZXuU1m6ppliVLfkVO1YNV6ffx+ggZEBHwHsp3f1Z1hatGkfL+Dpg8bT7tItSpD7SgAAABULoKOKi+vKUrRK6R40tO0yPnb8JfNgpx59CincGcHl4WreYtwXXmy8HCFek5zCl8ru2vTuInyXdmiW5TuPNNnzXEWZGndkh1SVNtSOyE1MlOcQnaDaHW83p1wujw7tHrWcHWP7KdVbedowcTOaniBe18we7OVqcYFa3Q4r7Fu446gfYWUbdihTelBLtecs1WZW6Xt2zO0ZH6iruwVWaQ/kZNyne+Zea2gfYuka2FcugaMm6C+tzRWvbxCdqsmToE+TEP+nqrkMc20dXqsIu8do0Xb3KcFEx6twZFZiitvnxKfBVyFxdi6V3tKCVWK0zTc+QFak6bN5exEJfvz9doeGashncJ8y99+6Ey9GLVTM6an+JqGbJ8/WmNTwzSg+ynWhDBXYRkzWh1NbZvfzXZrvHmUvcvZvrt1UfsS+j4xgU3DxmEF39f5TE0nr3VOaWYAAABQFRB0VFe5GZo1KdG54Rzk31LkUgyOQ3r/qbbqMiH1ZAHspgFJvk4UBwRc3CH0ImnT7Gc09iNzcB+h8UOj8s+q5hWIjh5zb8Aa2Zu1fKPcQncpdiZp0oQM9RheQn8JZeEUILOzUjV33CC1bdtdkzaHa9T7aXolJvhVKTzZO5TtCyT2avW82Vod1UpN3ft8DqRp+r1dgvYVUrahi7pPTysYUGSnamzvWK1oFy3PuHh9ETFao6KDfb9c2Sl60rxW5Git6xml2wuFhJ4goUTO+lStdr5rTX9WW82jJyh5WYL6ynmdnjGaldcHRhFXqPf4Ceq4e4563TtG8zeW3m+Or3PXgM5h690cqZt2xqvPgImam5Km1SsLDVtKfs3Q600nqsu0sZwX36nXsq2aps5WXGKaMnebz1Nq1qmz5Ezr37OVbhu9Xh3HJWhY69NIFhpE65XXB2rAoF7uNhKqevWd5V+8VKvLGczoqmZq3SBDcxc420Y5QqF6P2+lhmuStKKc6wcAAAAVL8T374iNXu/kYs9Z4ixZN9X0ARCmjn3vUvM6h7Tpn4lasbOfFmTEKPOpaI1YfEihUfFKm9bZKazu1fwBkRqR2lZTls9W76vSNDY8VnNNnwduB6ZFeHZo0choPZliCjiN1Ts+QVMCrr6xPTFGt41Ld8ecosPgRGUMLf4SmKhG1k5V4wfnaMCbmzWqnTstmJw0TTIF/06JSh4e/Moenp1Z2lOrni7RQa2Y1F1P1putLOexRWyZ7RSyl6neQzF6JCpKzQvXHDLz9EqT/O11W6J6dZ7o61MiNDxaL/51grr6mpBUjpz0merfL1450QmaNypSR5eO0cMjN6tZbIzuvrWVmjeuV0yNA4/2ZG1V9lFzO9v5r5163GKas3i0ekI79VkZpfHPDVTPxs4aykrU2IfjtbpT3vfWdSRLcyclq/moobqppBoI2WmaMfwJxa10vvtXRahrt87q0KW7era+oui8+T7jLL24MkE93B+A7DWJmj43Se+vDOyfx6/073eGZtwerVWPLdW83uVrwpSTnqg/xju/Xyuz3GApVPXCI9S+U5Qeuj9aN1VGLbIj6Yp7MFYztplL8A7S3Z1bqVWzMGc7dZkr4hSzrj3OuuvufD+2XxWp3g911u3hhWp9uOo1a6umJ5uqHNKKcQ+q/z9D1WNIrB7q1M65r+CzQuuUoakPAAAATlnIyE3SlBYhBB1VmD/ocEdOCtdNEVlaZ9q3N+6nBe8OdwtGHucgu5X6m0oeARoOS9LHA0s4I71zma+6d8PxMzU4olCb9IyZuq1nvLartpre0l3DJo6u1IImqhqPMpOGa0RqZ/1lWlTQS5v6OIX37ndOlPOT4hS+o/T8W1PV41S2k8JBx5m2O0Uj3g7TeKewf7J4ujtd81NStPzf67V1Z4YyDxtQY0kAADaoSURBVLjTC3C+Hy3yCsJ11HvKbPXNa+KTu0Mr4l5QXEqq/7LPta7QTXcP1ZTh0b5OOk9VTlaqFr6ZpPlr1kh93lJy38buPQF2J6l/ZKI6vJ+kAUHuLj/nN2ZCZ8WdP1HzRkaWXhOoKsg9pMw1S7XwnylasWFz0StIDUgMHsoZu9M0NyHRt46DX3mqtga8lapRhWqiZK9M1PTEJK3+rJjtpaTwGQAAAKeFoKMa8Acdpo+OBPW+6pDWJb6h5dnNdOetmzV2+oUaFT9QNwWUNjxrZ6rP7xO0zhSoTOGrc39Nmeg8hs7xAAAAAACWI+gAAAAAAADWyAs66IwUAAAAAABYg6ADAAAAAABYg6ADAAAAAABYg6ADAAAAAABYg6ADAAAAAABYg6ADAAAAAABYg6ADAAAAAABYg6ADAAAAAABYg6ADAAAAAABYg6ADAAAAAABYg6ADAAAAAABYg6ADAAAAAABYg6ADAAAAAABYg6ADAAAAAABYg6ADAAAAAABYg6ADAAAAAABYg6ADAAAAAABYg6ADAAAAAABYg6ADAAAAAABYg6ADAAAAAABYg6ADAAAAAABYg6ADAAAAAABYg6ADAAAAAABYg6ADAAAAAABYg6ADAAAAAABYg6ADAAAAAABYg6ADAAAAAABYg6ADAAAAAABYg6ADAAAAAABYg6ADAAAAAABYg6ADAAAAAABYg6ADAAAAAABYg6ADAAAAAABYg6ADAAAAAABYg6ADAAAAAABYg6ADAAAAAABYg6ADAAAAAABYg6ADAAAAAABYg6ADAAAAAABYg6ADAAAAAABYg6ADAAAAAABYg6ADAAAAAABYg6ADAAAAAABYg6ADAAAAAABYg6ADAAAAAABYg6ADAAAAAABYg6ADAAAAAABYg6ADAAAAAABYg6ADAAAAAABYg6ADAAAAAABYg6ADAAAAAABYg6ADAAAAAABYg6ADAAAAAABYg6ADAAAAAABYg6ADAAAAAABYg6ADAAAAAABYg6ADAAAAAABYg6ADAAAAAABYg6ADAAAAAABYg6ADAAAAAABYg6ADAAAAAABYg6ADAAAAAABYg6ADAAAAAABYg6ADAAAAAABYg6ADAAAAAABYg6ADAAAAAABYg6ADAAAAAABYg6ADAAAAAABYg6ADAAAAAABYg6ADAAAAAABYg6ADAAAAAABYg6ADAAAAAABYg6ADAAAAAABYg6ADAAAAAABYg6ADAAAAAABYg6ADAAAAAABYg6ADAAAAAABYg6ADAAAAAABYg6ADAAAAAABYg6ADAAAAAABYg6ADAAAAAABYg6ADAAAAAABYg6ADAAAAAABYg6ADAAAAAABYg6ADAAAAAABYg6ADAAAAAABYg6ADAAAAAABYg6ADAAAAAABYg6ADAAAAAABYg6ADAAAAAABYg6ADAAAAAABYg6ADAAAAAABYg6ADAAAAAABYg6ADAAAAAABYg6ADAAAAAABYg6ADAAAAAABYg6ADAAAAAABYg6ADAAAAAABYg6ADAAAAAABYg6ADAAAAAABYg6ADAAAAAABYg6ADAAAAAABYg6ADAAAAAABYg6ADAAAAAABYg6ADAAAAAABYg6ADAAAAAABYg6ADAAAAAABYg6ADAAAAAABYg6ADAAAAAABYg6ADAAAAAABYg6ADAAAAAABYg6ADAAAAAABYg6ADAAAAAABYg6ADAAAAAABYg6ADAAAAAABYg6ADAAAAAABYg6ADAAAAAABYg6ADAAAAAABYg6ADAAAAAABYg6ADAAAAAABYg6ADAAAAAABYg6ADAAAAAABYg6ADAAAAAABYg6ADAAAAAABYg6ADAAAAAABYg6ADAAAAAABYg6ADAAAAAABYg6ADAAAAAABYg6ADAAAAAABYg6ADAAAAAABYg6ADAAAAAABYg6ADAAAAAABYg6ADAAAAAABYg6ADAAAAAABYg6ADAAAAAABYg6ADAAAAAABYg6ADAAAAAABYg6ADAAAAAABYg6ADAAAAAABYg6ADAAAAAABYg6ADAAAAAABYg6ADAAAAAABYg6ADAAAAAABYg6ADAAAAAABYg6ADAAAAAABYg6ADAAAAAABYg6ADAAAAAABYg6ADAAAAAABYg6ADAAAAAABYg6ADAAAAAABYg6ADAAAAAABYg6ADAAAAAABYg6ADAAAAAABYg6ADAAAAAABYg6ADAAAAAABYg6ADAAAAAABYg6ADAAAAAABYg6ADAAAAAABYg6ADAAAAAABYg6ADAAAAAABYg6ADAAAAAABYg6ADAAAAAABYg6ADAAAAAABYg6ADAAAAAABYg6ADAAAAAABYg6ADAAAAAABYg6ADAAAAAABYg6ADAAAAAABYg6ADAAAAAABYg6ADAAAAAABYg6ADAAAAAABYg6ADAAAAAABYg6ADAAAAAABYg6ADAAAAAABYg6ADAAAAAABYg6ADAAAAAABYg6ADAAAAAABYg6ADAAAAAABYg6ADAAAAAABYg6ADAAAAAABYg6ADAAAAAABYg6ADAAAAAABYg6ADAAAAAABYg6ADAAAAAABYg6ADAAAAAABYg6ADAAAAAABYg6ADAAAAAABYg6ADAAAAAABYg6ADAAAAAABYg6ADAAAAAABYg6ADAAAAAABYg6ADAAAAAABYg6ADAAAAAABYg6ADAAAAAABYg6ADAAAAAABYg6ADAAAAAABYg6ADAAAAAABYg6ADAAAAAABYg6ADAAAAAABYg6ADAAAAAABYg6ADAAAAAABYg6ADAAAAAABYg6ADAAAAAABYg6ADAAAAAABYg6ADAAAAAABYg6ADAAAAAABYg6ADAAAAAABYg6ADAAAAAABYg6ADAAAAAABYg6ADAAAAAABYg6ADAAAAAABYg6ADAAAAAABYg6ADAAAAAABYg6ADAAAAAABYg6ADAAAAAABYg6ADAAAAAABYg6ADAAAAAABYg6ADAAAAAABYg6ADAAAAAABYg6ADAAAAAABYg6ADAAAAAABYg6ADAAAAAABYg6ADAAAAAABYg6ADAAAAAABYg6ADAAAAAABYg6ADAAAAAABYg6ADAAAAAABYg6ADAAAAAABYg6ADAAAAAABYg6ADAAAAAABYg6ADAAAAAABYg6ADAAAAAABYg6ADAAAAAABYg6ADAAAAAABYg6ADAAAAAABYg6ADAAAAAABYg6ADAAAAAABYg6ADAAAAAABYg6ADAAAAAABYg6ADAAAAAABYg6ADAAAAAABYg6ADAAAAAABYg6ADAAAAAABYg6ADAAAAAABYg6ADAAAAAABYg6ADAAAAAABYg6ADAAAAAABYg6ADAAAAAABYg6ADAAAAAABYg6ADAAAAAABYg6ADAAAAAABYg6ADAAAAAABYg6ADAAAAAABYg6ADAAAAAABYg6ADAAAAAABYg6ADAAAAAABYg6ADAAAAAABYg6ADAAAAAABYg6ADAAAAAABYg6ADAAAAAABYg6ADAAAAAABYg6ADAAAAAABYg6ADAAAAAABYg6ADAAAAAABYg6ADAAAAAABYg6ADAAAAAABYg6ADAAAAAABYg6ADAAAAAABYg6ADAAAAAABYg6ADAAAAAABYg6ADAAAAAABYg6ADAAAAAABYg6ADAAAAAABYg6ADAAAAAABYg6ADAAAAAABYg6ADAAAAAABYg6ADAAAAAABYg6ADAAAAAABYg6ADAAAAAABYg6ADAAAAAABYg6ADAAAAAABYg6ADAAAAAABYg6ADAAAAAABYg6ADAAAAAABYg6ADAAAAAABYg6ADAAAAAABYg6ADAAAAAABYg6ADAAAAAABYg6ADAAAAAABYg6ADAAAAAABYg6ADAAAAAABYg6ADAAAAAABYg6ADAAAAAABYg6ADAAAAAABYg6ADAAAAAABYg6ADAAAAAABYg6ADAAAAAABYg6ADAAAAAABYg6ADAAAAAABYg6ADAAAAAABYg6ADAAAAAABYg6ADAAAAAABYg6ADAAAAAABYg6ADAAAAAABYg6ADAAAAAABYg6ADAAAAAABYg6ADAAAAAABYg6ADAAAAAABYg6ADAAAAAABYg6ADAAAAAABYg6ADAAAAAABYg6ADAAAAAABYg6ADAAAAAABYg6ADAAAAAABYg6ADAAAAAABYg6ADAAAAAABYg6ADAAAAAABYg6ADAAAAAABYg6ADAAAAAABYg6ADAAAAAABYg6ADAAAAAABYg6ADAAAAAABYg6ADAAAAAABYg6ADAAAAAABYg6ADAAAAAABYg6ADAAAAAABYg6ADAAAAAABYg6ADAAAAAABYg6ADAAAAAABYg6ADAAAAAABYg6ADAAAAAABYg6ADAAAAAABYg6ADAAAAAABYg6ADAAAAAABYg6ADAAAAAABYg6ADAAAAAABYg6ADAAAAAABYg6ADAAAAAABYg6ADAAAAAABYg6ADAAAAAABYg6ADAAAAAABYg6ADAAAAAABYg6ADAAAAAABYg6ADAAAAAABYg6ADAAAAAABYg6ADAAAAAABYg6ADAAAAAABYg6ADAAAAAABYg6ADAAAAAABYg6ADAAAAAABYI8T374iNXu/k5r6bAAAAAACg6vnuiJS+w6uMXdKGndIXe7zafVA6+IN05Lj04wnphDPUqCGd7wy1LpAu+Yl01SXSdVeGqGUDKby+FBEWoktruS9qkZCRm6QpLUIIOgAAAAAAqIJ+OC59kCEt3nhCH2+RduV4dVHNEHmc6Ud/dB8krzP4i/bB5d9/4flS6AXS98e8ql8nRLddL3VrUUN3hEs/caZXdwQdAAAAAABUQUnrvXpzlfRxple1Q6WDR5yJIaUFGuXlvJ43RJfUkg55pNuahuihDlJ0q4p8jzOLoAMAAAAAgCriy71evfofac5qr6/ZiWmO4ss1TL5R2dz3Mc1cTPOXfu1D9OivpGuvqF6hR17QQWekAAAAAACcJZt3efXbOSfUetIJzfyPV997vP6QwzgTIYfhvo95X/P+Zj7M/Jj5MvNX3RB0AAAAAABwhu05JP0u0avIOK/eWy/9mBviDOaes12Lwj8fZn7MfJn5M/Np5re6IOgAAAAAAOAMeuVjr5qNO6F/fObVsZOdilZNZv7MfJr5NfNdHRB0AAAAAABwBphmIB3jvJq02B8g+GpwVPXswJk/M59mfs18m/mv6s1ZCDoAAAAAAKhks1d51WGqV+u+Nn1wVL9+Lwwz32b+zXKY5amqCDoAAAAAAKhEpo+LMQu9OnHCnVDNmeUwy2OWqyoi6AAAAAAAoBIcOOJVp2le/fP/pJyj7kRLmOUxy2WWzyxnVULQAQAAAABABftyrxT5gr+px+Gj1bOpSmnMcq37+oRvOc3yVhUEHQAAAAAAVKDPv/Xqjr/kats+6YSdGcdJJ7whvuU0y2uWuyog6AAAAAAAoIKYmg3/89IJ7TkcIjn/nxOc5TTLa5a7KtTsIOgAAAAAAKACmL4qesw4oexDIedMxpHHLK9ZbrP8Z7vPDoIOAAAAAAAqQHSCtP2AU8g/11KOPM5ybz/gXw9nE0EHAAAAAACnyVxq9f996++z4lxm+iQx6+FsXnqWoAMAAAAAgNMwe5VXi/7P3qurlJdZD2Z9mPVyNhB0AAAAAABwijbv8ur373iVc9SdAB+zPsx6MevnTCPoAAAAAADgFP0uUTpxwh1BAWa9mPVzphF0AAAAAABwCl752Kut2e4IgjLrx6ynM4mgAwAAAACActpzSBqzyKuDP9AvR0nM+jHryayvM4WgAwAAAACAchqX7PVdYQSlM+vJrK8zhaADAAAAAIByMB1szl/n1Y9VsG+On13mH6oSs57M+jpTHZP6L/A7YqPXO7m57yYAAAAAACjeb+ec0Hvr3ZGzpE/bEN3aRPrVdf5ifbBw4+v90rb9/nAh8VPpP194fdPOlntaSX/rV3n1LUJGbpKmtAgh6AAAAAAAoIy+3OtV60kn9GOuvzh9Jo28M8QXcJxOjY3/ZHr1yRfSvE/PfOhx/nlerR1VQ9deUTnrLi/ooOkKAAAAAABl9Op/zL9nNuR4JSZEOfE1NLLb6YUcxq+ahvheZ+PYGr7XPbPNXELc9Ve5CDoAAAAAACijOau9+jH3zPQ1YWpwmIDD1OKoDOZ1TeBh3udMBB5mvZn1V9kIOgAAAAAAKIOk9V6d7ytFV26NDhM6/Otxf82LM8G8zyt9zkTYEeJbf2Y9ViaCDgAAAAAAyuDNVdLBH9yRSmKalphaFubvmZT3vpVVeySPWX9mPVYmgg4AAAAAAErxw3Hp40xvpVbmMGGDqclxNpl+Oyo17HBe2qxHsz4rC0EHAAAAAACl+CBDqh3q3KikVhdVIeTIU6mdlDrrz6xHsz4rC0EHAAAAAAClWLzxhA4ecUcqWF6fHFWJacZSWWGHWY9mfVYWgg4AAAAAAErx8Rbnn5DKqc5hOgKtiiptvpz16FuflYSgAwAAAACAEnx3RNqVY0KOii/4m0u7numOR8vKzJeZv4oX4lufZr1WBoIOAAAAAABKkL7Dq4tqVnyB3zQNOVOXkD1VZv4qowmLWZ9mvVYGgg4AAAAAAEqQsUvyVMJVQvq0qdohR57KmE+zPs16rQwEHQAAAAAAlGDDTunoj+5IBarUy7hWoFuvc29UILM+zXqtDAQdAAAAAACU4Is9Fd/EwjQHqayrmlQ001dHZcxrZaxXg6ADAAAAAIAS7D5o/q3YQnl1abaSp+Ln1+uu14pH0AEAAAAAQAkO/mD+rdiCfnWpzZGn4uc3xF2vFc//SY3Y6N019ArfTQAAAAAAkK/51Ct0PLdig45/PV51LysbzH8yvbrr5Yqt1XLBeV5tGr7XHTt99eOd15rSIuRk0LH/Dw18NwEAAAAAQL5rx9fRiRPuSAXZOLZGtarV8fV+qcX4il0JNWpIX47NccdO32XP7ywYdHgnN/fdBAAAAAAA+eoMreCUw5ETX/16kqjq6yFk5CZf0EEfHQAAAAAAlMDUPKhopoZEdVIZ81sZ69Ug6AAAAAAAoATnV0LJedv+yrm0amWpjPmtjPVqEHQAAAAAAFCCWhe4NyrQ1/vcG9VEZcxvZaxXg6ADAAAAAIASXPIT82/F1mig6YrXXa8Vj6ADAAAAAIASXHWJ+bdiLwX7SaZ7o5qY92lFN10JcddrxSPoAAAAAACgBNddWbEhh/GfTG+1qdVh5rMy5rUy1qtB0AEAAAAAQAlaNpAuPN8dqUDz0qpHh6SVMZ9mfZr1WhkIOgAAAAAAKEF4fSm0EjrOnPx+1a/VYebPzGdFM+vTrNfKQNABAAAAAEAJIsJC9P2xyql9UdVrdVTW/Jn1adZrZSDoAAAAAACgBJfWkurXMYXyii/0V+VaHZVVm8OsR7M+zXqtDAQdAAAAAACU4rbrnX+8lVMD4X9ePlElww4zX5XCWY++9VlJCDoAAAAAAChFtxY1dEkl1UDIqzlRlcKOu16uvPkx69Gsz8pC0AEAAAAAQCnuCJcOeZwblVOpw9cXxn++qBr9dZiQw1z+tlI468+sR7M+KwtBBwAAAAAApfjJBdJtTZ1SetXIIipNpYYchvPSZj2a9VlZCDoAAAAAACiDhzpIl/zEHakEP7vcvXEWmHCjxfgTlRtyOMz6M+uxMhF0AAAAAABQBtGtQvSjr3/Oig8DfnaZ9CtTY+QsmLzYW6l9cuTz+tafWY+ViaADAAAAAIAy6tc+ROefd3YCiYpm+gUxtTgq5xKyRZn1ZtZfZSPoAAAAAACgjB79lfm34oOBPm3OXHhianCYgOOxxDN9pRevu/4qF0EHAAAAAABldO0VIep+Q8WHEn3alv01TVBhQgrz1/SpYYbiAgsz3dTcMI834Uadof4aHGc24PAz682sv8rmf4cRG73eyc19NwEAAAAAQPE27/IqMs6rYz86IxVQucP0z7FxbMn1EExY8clW/9+SmNcyzkaQUawQqeb5UuqwEDWrX3lBR8jITdKUFiHU6AAAAAAAoBxMYb33TSE6v4JK1MU1WwmsiWH+lhZyGCbgqFIhh8OsJ7O+KjPkCESNDgAAAAAAymnPIanZuBP+Wh2naeSdIb6aGL6Q4oD0ny/OTtOSymJqc2weV0NX1nYnVBJqdAAAAAAAcIpMoX1CjxBd8pPTr6Vg+szw9bnh/DW1NmwKOcz6MeupskOOQAQdAAAAAACcgsduC1GTeu4IgjLrx6ynM4mgAwAAAACAU/TXGKdgTck6KLNezPo50/g4AAAAAAA4RaaDzb/cF6I6F7oT4GPWh1kvZ6oD0kAEHQAAAAG+S52mmL7TtKI6t4/e8o/qvwwAUI3EdghRjxtDdPGFZ75QXxWZ9WDWh1kvZ4P/XSvzqiu5R/TFijf19+W7dLzGcR0/L1x3PfyAOoZd4D6gBLnZSn9nruZvPOiMOM+9rL36PdxdzS/x312a7zYn6S8ZN2p8dFN3Stkc2bZG7/1zkVZmXaBLL8zWHtVT87uG6PeR+Y2vvvjHI1oZ/lf1u7Gk5cjUvD9/o7uejtSl7pTCzMHU7/7bQbOGtFMtd1pBB7Xiz09r/ndX61ITS534Tju/lRq0aK+o6Gh1CLIev9v4vv7+3mJtPnypLj2are9qN1LHBx5X7xbuO+xP1dQ3pEdLmC/fY5ZereEPBF93321J1b8Wf6j0rO90wSWX6ru93+nSRuG65a4HdVeLgh/Qd2lvaOq/trljjoPfaKeuVoOAh11z11N6tG0ZP1gA56wj3/xXnyz9WCvWZ+q489tzwcHvdPzqcP0yspui2jRSrfPcB5bRd5kf6p9JH+qTjd/oiJzf/EY3qMsDD+nuQr9jPrkHtSn5Tc1ZulY7D0m1rm6t2++OVu/2VzvPDOD87qa//w/NX/5ffbX/uFT7ajVrc6d+0ztS1wT/oc/3ZbKe/GOS9tw1WonF/P76HP2v5jw+TUtvHFTs/mPn0ol6Zm4tPRr/lDq619Ovrr74Rz+N/Zc7UqwbKmxZffvm15z9ZBVdd8ezM7T8Xx843wN3G/Mx2297xT7TX780m68JOiZ8Y8XnDwDVSadpXq372qsTpV8F1lo1Qry66Wc19NFTZz7kyLvqSiUHHcedg5OJeu+nQzT8djckOJKheeOTVG/oaHW52j8pqNxsrYifrp13/kF9mrmHcN86he/x29RlWl9FlFAtyBwALH33A2XXOK6ltXuUfLBYyHHnwGBsSj09+sivdU1er7C5x7Xn4HFdeVn+oaTvoOtD56BqknMAUWznM6UFHdlaOnmu0p0j5Db9izsQMUHH61Kh+498maq/J7yvSx8Zr95N8w+x9zgHZy9uu0NPPnCDrsybfPyg9hyppSsvcSecTtDhfC7/+8Z0vXdepGK7R+q6egGH94e+UfrSN/TqrkiNeyxSVxZT4DAHkK/qYQ2PJNgAUEa5B5X+9st672h7/eYu57fnpwG/Pc5v3M4NqZr99ldq8/ggdSlLkG5kJum34z/UNbf2UNdbGukS5/f2qw8Xad5n2Yp4ZJLzGxXw4+7bJ43SqxmNdFffHopwfo93fpqkecu/UfMCjz2oVdOGaua2G9Ql+g7ncRfo+P7/03tz39cXl92p8eMf0HXF7b/Me/zlGb36f87t0oIOhz/IOKjef3pBd1/rTsxzaK2mP/WyMn89Wi84r1PGNVJlHdmRoS+/c0ccB//7D01ffIX6/OEOXeNOMwX9ej9vmr/vOw1VNugwJ4/+NU0T38nU8dpN1eHWcF1/bTNdeXybtmR/pz2bv9NNgwepg5nnygo6vl2rOf/4X13f130fAEABB454FfmCV9v2OSPnYuUOr9Tocin1mRDVrXX2go7Kbbry5ft69Wi0fp8Xchi1wtVn0I1a9mGG8s5BBHPk039oeYuB+SGH8dNIDen7nd5bme1OKOqLRRM189Pjiuj7uPrdVlKSEsw2/euVbEUFhhzGeRcUCDny3NX9Ov3rb6nak+tOKK9ta7QsrJv63XKBlq8vfpmCqXVtpB4d1F6rlv5XR9xpOrJW89+7To/GBIQcxgWX5Iccp+W40ueO1fJGAzW+/68LhhxG7asVET1a4274TKNmrs2fLwA4HbnZWvXKy/q0ifvbExhyGM5vXIObumv02G46Mm+a/vllSXuXABdeo4F//qvGD7xTHVqEq3mLdrpr6GgNaWt+6z7UFwG/7Waf9Or6euo9erT6RN7gPPYGdek/Wr//tZzHJul/D7kPdFxyy2i9Mu0p93Hhioh8QONHRevKb97Xe5+aGorBHfksSbOzr1YDd7w0DSJ7qMuF2ZqflKqADMDnq+VJWnX0Bt3dpfqHHEatMPP55A/NwkxQXk/XB0xr3qJiQo6q67i+eGeixr6zTc37jtesl51tNSZaXdqbbexO9Y5+QEPGnIHw4eAXWvrZER1zRwEABZnC/aLBNVSvtteU+c8pZnnNcpvlPxshR6BKDTq+2vB/uuW2G4oeZF17g25Z95k2FXssekSb1ktd2xcNKmrd2EH1Pv6vdrrjhV3Xw9nx33WDGgSrx1uq4/p+bz3nw3FHS/OL7nqmzWd60ZxZcSeVx1frV6t5K+fArMUvdWnKGn3lTi+znzXVL1d/kb8ujn6vIw0u0aXlrLpdVse3JGnekYc1pEuhatqFXBn5uIbUStJ7W05lrfz/9u4HKsoy3wP4F2yMIJOIwQRug9dBQ13E0BRpURYvR5vNteXkZXUts/wT6ZKtyi55lryRrdnR2sr8k6y7LF2yy8rBprgUSZMI/kGRQDahhJIxGS9BrpM1a97nmXmR+QcMCYX0/ZwzMDMMM8/7zpx5nuf3/p7fS0TkqNmQjf2RS7Fksi1objlbhfwXMpCyeCHmLViMlKe24sBZ8QdfLeakzsaFvxWgzpOvn9BoTB2mXL/CF2MiI8X3qRFNV2ISbThUWgFMno1EjXKXlQpR8bMRdLEcB0+0h3aHYuxkresSmhERmCR+VRo7CWqfr0DWqx8j8YFkRCl3dcsnEtPvEf3k8b3Q23/fthiw+w0jgpKSuGRhAJF98Mt6I8IXrMMa8UHs6TItIiL6/owIBN76jTeCbhRT/x9LtENsp9xeud1y+39ofRjoMKGhRoOwUOWmg2CEja9Hc2dJDJcacfLzMdC4Czj4DscoGGHqkzn0UKi19ThlVG56ICh2ARKN2djd00n9pXqUFkUiNkIFDInE5JEGVJ5S/uapr834YoS6Y232EDWCPmlEw0Xldq+yoOZABWJnRXdSS8SeGPxPjcS+g98tAEREdIWlFm+Vj8f8WCXIcTIX6atexKEhcViSvhFbNqRhyTR//LM9o8InAvfOMOJvhp5lydn75pLtm2tw+0TSXI/q48CYsSNdv/9CtdYAxuHT3XQcynOq3EWJ5ZKVHVtRH78Ic+2zGD0QFp+EqT4m6AvKlKwO8V2tz0YlojE3oT0qU4+cBQvxrKENltMG7HoqFQ+I2w+kbkL+CSWa01KL/BfS8bC4f97iVDybW+WUrSiXUYq/5daLq3aPTcnELoPR9l1vbkTJrkwlAJWCjG3Fdv2R8v8r97oN6psPbhX/k4kiGbC6SrLOVs6VQJjczgxszi1Hk7u+UdZd0W9FRupi5bGbkHPU1Hm2gvL4zLQU6+Pldq7esBX69v3Ylca9WC3+J6PI6bPSUo5nRVtXF9jVsnJhxuGiQjQHJuHBhJ5mqwKt1XuxWWnzA6l275k98f4dyH0R6cq+mJeSjs35tWi98jmwfY7mPVUorldhe6pt/857zjWjiIiIgNHDvPDuykHWZRyyZsVA5u1lW64it1dud3/Qh4GONjQ1+8Pf7aF/Ffx8GmH6p3LTWZsJTbf642blpiM/DL7JhFa7NOHeo0b8r7R454Us29FBTwxSY3pKEizPv4gDPahsbqktQ2ViDMKtA2lfRE0aiT0HxQCyByx1J2CcqO1Ic1ZF4O5kE17auBd1vb5upBEnS6MRfptyszuh4YiqM6JZuUlE9F1YThxBc+xEhMjvSks9dr9SCN8F67B+UQKiRqjhH6y1Lg1JtCtn4TtxGkYcExM05XbPmFFfUwtox0PbXkaotRVyahoa4Kaq0aBAhIwRTTtv7jqw+2k9Dou+L360Q0qIVXNpNv58NgGP/jKiy2w5t4ZE4+f2WR1GA3YXWRBy32xMdTpY8M3pt/HSznoE65ZhzcpFSAysxe5nNiD/aDleWpuL5nHJWJmWhuUz1WIyvwkb890Eq88fQc7zBcCdC8Rjl2H+aDOKdmRgW1kV8tdtwH7/GXg0NQ1rFk6EeX82MraUK+/DUNwZGw2ccxfUN6PycDkweQbucsmw6Znm/S/iN2u3Yt/FCMx9JA1PiO1ZmjgcpuKtWJ2Rizr7YIe17soqPJ1/BurEh6yPXZM8Bl/8PQMb9WeUB9m5KD5/GbbH+8fdb338EytlBk4Vcp5ZhWe7C65pZmLJnGDUvVFgt9TJgsqCnagMSMKjOtfPxhXis3/yoOjmJ0cgrEeZHBY0FW1Cul7s3gUrRJuXQRfYaH3Pco7bv7ttKNki3sdqFWKTH7du2/IEX1TmbRDb2/45CMZ0uc3zxPsIDXQptv37xJwIMTIjIiJ3ZGaDrFUhC3MO1LOxyO264zYv63b2h0yOdn1bo0Muo1CuOlMHRyrXOhEwtJPMgaEIcZsl0jtUo5KxfoUW1S+mIjO/Fs1djlwVPpGY/1gw3tzlab0OMagzVCF2fMegxveOqYgvLutiOY8dWRy1Og8b8n3xoGMeNYLiHsdzScDrv8/AdkMjzJ2156M8PPuHDKR3dtmUhxrloVbmNjQPF5MKTwdYvkNx8ymT2FIiou/uQpsJIbcqEYfG4yg6l4B747s5oq3SIExm/ik3e6LZsBXbDgZD96s4BCn34Z8maxaC6gZ3YYjB4g/i17lWXLDd4UpMkHO25uGLCQtwt8zisyMzVDbuOIfEh5I6L1LajStZHUXF0OeLybzPFMyNd500n9hnQXzaIiTeEYGxd8Rh/uoVSPQxYvfmnbhx6VosSbDVFJmalIaVcUBT4RE0OPchhnqoF6dhToysiTEFuuXLsVBrwYEtm3AsYS3WzplifY6ohEV4bJ4GlmMHUKkcBPCdOMNaU6TkuFPmQssR7BeT+KmTIjvp9z3UYsCubRW4WbcWr6QlY7rcTrk9umVYv34RooyFeLmw47VbS7OtdVd0q+WSV1u7x8bMxPJ1aYh1+fRYUJe/DflnI7Bk/bqOx8v9mPYCnpjlj8oduTjQ5UEYFcJ1i6ALKEeO3hY8kMtRdhWrMTflnq4DGOdbrQcOxgbb1TzzSC2KjBPx5Kp7rtShmWt93y0oKrWr8SX43ZmGV9Ytg8763tp/Do4rWTi+CJHPMVK2QYzFRtseN1ar7nmAjojoR0TWqpBnH5kzHrjpO/b1/ZXcHrldcvt+6Joczvo20HGNUoXGYcm6Z/DrgDI8n5qpnN62azJAskQrBlHFHqx7OV+F/XVxiLLPjlDJ0yMacPiEu0hHLXZvUgIQqYvxcPom7G4cg+Vr3Q+M/cfcg7WbHkdsSy5+k56FkkY34YbRSVjzX+uwvrPL40lwOA+PxcKgBRF971pbO46stxobxeRQBb++mFXJs1kUZGL1jnOIXb4S80f10oucLcf2jEwU3ZiEdSlOZ6MyGbB5YzHUi6/y9dqzOg7mIqfMgpB7ZmGSm6WfqoQYxzOW+WgQNlr8DpyN6ePsX18l7neuU6IYH4c77eNMg4IxQj4Hol3qaoWMjBA/q9B0znZb9nPTdWo0v1/lEEBpPmZApU8C4u+4qjAHmo4UW5fs3KtzU4BVHYPEBPFa+iOos95hQqWY6Mu6K/c67/tBGkydKdtux1KLUr0JQbokN2daU2Hs9JkIQwX2H+9mvOCjxdwHZgL6XOw73Qj9zkKo7luKOV0kc1ytxJlOnzufCETFit/mC3ZLdIaKMUiEU92P9s9BI5p6kLFKRETubZnnhad+4QXvATIDl9sht0duV3/Ut7v5S0unR7hMRjHA6MrFztKA29B0WrnaY/XQO2cuiIve3YqRQb4Ii1uE9c8tgH/JH7pPSRXCdCsRX70NOd3U62g+9C4a4yOdjt6oMGpCHPZ94O5sJRGY+7gSgHhhB17dkIbluoiusysGDcXYOWl4NW0imnZs6LZN3RoaiJBTJru1ut1oO4em8cHo6bEnIiJ7/v7DgX8p1wPlRFr0K91+nYkJ3IUeBA7Mom94bhUyClWYm7H2StHTK7xVrhPnK8RrfSl+BatdMhiby7KQvnYnGkYvw8b0exBmH2SQWR7PZcGUII+aX/03pS2rQ1zxScB8p0y/dq7ZAEqGZE+KWIcGu2ynLUPTs0LeYePFpPtcAUo/Vu6AEZXv1yNIF4exPXjL3DG3NIrtF/2O23aoEKyJsE7aTdZYhBhLnBD3Dg90m0UyeJBTY5SMiuDATvJUhwVbDw7UnO1+rKAak4SFCY3IWZeJ3ehmyYoTY2tPF2RFIuRW5eoVcvmw+HXcKevpkhlN1Qbo83Lx0gYxPkpLQcqObsZqRETUIw9O9cKBNbalHkNvuDaXssh2y/bL7ZDb01/1YaBDdKTnO5sYm9HaEoEQ90U4xEDFD75nWvGFctNRK1qbxECmfe10j2ihc85cEBed3dpuF74aJC5dgZA9eTjcXUqDrNexcBaaduahptOCoCZU7jdCdUQMgJ0CLhm76+F3/DAqe7P+SEAk5j+egKZXCnt+VhcHwRgVU4E6D4NMls/qYBql6XTpEhGRJ/w14Th5UlluEBaO6T7FKNrfzWSypR6V4v/ClJtdOmvA5lWZKAlIxsZNaaI/cDPtDVBbJ7FNn7s5Wn+pDaZTommBdp2SmDDW5GVgdZYRUSufw/pFUxyPqAuthwqgN4rn1GdaC4PaClvKSyb08gHifnlbFhD1yBAtxsnMitEax4BKfzNiCu7WWlB0UDnF/KkKvHVKi7tjeiml4cbBXQSlJF+HgrA3u60O2znfbh7v6fP5DVHDclHsATGY8SiPJUCDUYEy+6W+b2pfmcqxeUUKVm8pxMnzKgRNnIX5C1Zg5RynzBYiIrpqY4Z7oeS3XkifBQy+DrhOjhH6e8xDtE+2U7ZXtlu2X25Hf9aHgQ55ZpVOJsaXjDjZOAZhnR3EkmdW+eoE3K24QEsjToaHY4SnR596g0qNkBAzLnhyNpOAKVj5ALBrSyf1Ok6V4y0kYbWbgIu8rNF9iv891P0RoR4JCEbIuQudZMh4yhdRsZF4c1+VB8/ThtLCWocaJERE34lmCmJr37YVb/SNxpwHonEyKx0ZrxlQY2yDucWIGkMuSq5k5llQV1QoJmoeFPY8X4GX1mbBGLcW6xfHIaSzAIEyyaz8RC6dcXLaVmR0bFjHso0GfSaeLhyKB9evxdwx7qPyfhGzbYUcXS7J1rO4YHKy9fa9EVe3nKP/UeOuxGhYDEcgEw0bjou+UhuDqKssQir5ivcJ5xpgdHuwwAJjYy0QGAK1dZeq4CcDB6fPuV2WeeGiU4BpiL+1Zkv9mU7657Picyh+aYd1n50j63JszwfmrlyGqR9lYZdHZwjSYNIsrWhALt5yKCLaO+qKd+KwJQFrNq3HyoVJmJtgq0Gi4emJiYj6zCPTvHDiSW8kT/SyBhD6M9k+2U7ZXtnua0GfZnSMnRiJ0jLXqu2W6jLUiElz50fbghE17Rz2HXE9ktV0pEyMdSM8OwLSa2Rqsq8t1dMDMi11SXAxdpW61uuQgzpNYkxHkTsnYTEzgfer0KTc7hUWMyyBft0P+ruhGjcTv27Jxbayrgdlzft2oih0EXqQjUtE1Ak14u9TY88OW/A46K4V+FPmQxhlKsTmtFQ8LE+VeQzwVyZkchL55xYxUXOoOeFeQ3EuDgxPxmP3uanp4EBMMmcEA8XvotTh68+Cyn0FaA6ejdiRyl3ny7HnDSOmP7LCTS2HDiq11lbI0eWitfUPgba/h6uv9pu7//EdNwmTLsqaVFXWuheTuugTeyJkfBzCUYE9SqFPB6YyFBUD4T+foow9NBg7Wezbsrex37mrNlfhnTecCqbKOlqJKjTr81Di0gVaUFNSiAZP6oxcrMfunYXAHNFH3jEFc+dFojIr281zugqJS4Yu2IKilzKRc9TDTB+PtMFkFHtseDDU9uOcS0ZUGmqVG85q0cy6HUREVy1oiK12h+G3Xrh3gsyauGzL8MAPfTpaWztke2S7ZPtkO2V7rxV9WqNDFTETOmO2Y4cs04TfUDmeLcRcge0pGdDbZX8ExSYjpEhMmO3SOswncvFydQzmTuwYSJiPZOHhtYW9Exhoq4K+uN7xTCsWE2ryslE6eRYmeRxdUSH8vqWIKs1GkXKPlaUWJUWRSLRrv4thExF/UyEOu5x+zwP1BuQfNTqeaeV8I0p2FeCb+QmepXF3xXoq3aUIfTcDGXlVaHI6amYx1aMoKxMvn5mBNd1OHIiIPKPSJuGx2Hq8/EoxGkSX4KuZgvmp6/Fq9i68lr0FG1OTERUAtB7NRsabajy6KNqDYLgJDbVidnmLuFZbi5pqN5fTHf1PSIKYmAZXYXvGBuQYqsTfy6HfkonNxWroHprZUXPpswYcRjAGm+tdn896cepjfoyGRCMxEdj3Wq7YVwld94k9MSwBjy6ORLM+E49syEXJUds+P6DfivT0LNRMWIRH7aJP4YkPIcqnHrsyMrC9WL6ntWJin4vM378LVbzzkg0Vxt6XBl2A+AykZ+Alfbnt/TxqQM6GVDz9tgq61cnd1BmxoObv26D/ZiYWKgVTg+KSsVArnvMvHpy1zUeL+emPQzfMCP3mVDy8bity9AZUWttdiN2ytsZTW3t0qnubodCO1wKnxBgrq9j6fDVHi8VnfRtOqt0sXRkehkliW/QFe62PLSmu+I6nciYionZyGchfFnqjIt0bS3/qBb/rZQ0P5Y/fVwKF8jrydeXry3bI9sh29fdlKu7YhmZ3pTz55IzeOJ7ixNsPYXeOg/mdLfjTfxej5P0SGM78G/5z+WyEt79xkuUMKoo+w/Cf3YWwG5X7rgtA5BQ1/vHaC9ixx2D936rL07Bs0Z0Oa50txmN4+7NhSPypxvU87v9XjbwzwUga52HupcoHloZi5O/Kwtb/+UAMjnKRf8iEm6c/hEecTu7fUp2PpuFzECkGyW55D8HI2/1R9yEQHaOBPEhiqS3EKzfE4OHxXbXHB0FeH2Hnx7dipvh/4Gs0HDgGTIhBmP0+c8dXhZZDBXjtr1nY+WYp3vl7Hko+/hajfvEQksbYDSS/akSpeMroqbZ2uSUf8/EQxDrvu+v8cftd8Rj1dTX2vJ6NXX95AyWHipAj9lftF94YPeN+3B8XCp8uQmgXG8tQgTsQq/EwRYaIfvT8Qidg8rDT2LNlG4o/V8HPzxc3XecFS6sRJz8sx+6sLBhumIWV94s+YrDyT106g9LtBtQZq1FaWooP3F18JnT0H7JPip2AW1qPofBNPd55/wRabp2IX69IgW5Ex+y2tbYI+qP1+LjCzfNZL6247WddfZ+34EPR59WNivO877KSfUWh+G6dAJ3Ld7vtOc9Hz3L53pV9WcmXrv8jv6f1R0U/Mau9rcrz3+TaLttjhyD+l+Nk3KiD7IMN9Rg1zbmvHISgm7zwfsEh4BcLcf/Ynldz6uw1/TQxiI8cAnNtOd4sKMR7Yp9XtwzDnb9ahlVJ4x2Lrt4Qithpo+HT8hGKC/TiscfQ4K3B3Q8vROylI07bL8jPwE9jMdL7E5QXF2LvuwZ8UPkJ8O8/xyO/XYqEUPsnd2U5/hrS/voRZqSsRmL7Y8VY4bbQSzj8+uuoC4hF7AiXkYwjn2GInDYD0cHe+LLpHyh/T4yPxDaWHq3Gp19a8G3g7YidPBq3yI+kdf+fd9wGhfV9r9Ne2X9+mvG4fdDnOPpBIQrfK0XFOV/E3v8oEm4Qn3fn/XB9KEaGnEfdPj32vncIH98Sg1lRw3hwg4ioF8hTtM6I8MKq//CCRnxBf2n2wqdf2E7j+rU8UOIlMz16M+ggnu+yF4aKqaLlEjA93Atps7yw835vazv62yljPbGu2ATs37LO1vLfVV++/IzDyUSJiIj6n0sWtJ6tR+WxE2i21k3yQ9CICIz5iQZBnGldO07txWN/MGB65sY+PbUqERHRte4rC/BuLfB29bd4/yRw5svL8BvsZQ18XFTOTGdb6tJVUKLj7z7XAdeLMdOFby5j+E1emDYKmDVOBjaAGwbAWMrr9zXAH8d5MdBBRERE3yMLarJT8PQnyXg+I6FX6nMQERH9WLSagcrTl1F7BviwCahrvgx5Yri2rwCzBfjXt8C34uLtDVwnLr4q23KUW4cC4UFe+EkIEDEciAr1gn8vrR7tTxjoICIiou/f+XJsTtkJ1fIXsHzyABxhERER0Q+mPdDRp8VIiYiIiKS6skJUyiKXG3aicsICh8LiRERERL2JgQ4iIiLqe8Y8PLs5F5UBSViXEudQWJyIiIioN3HpChERERERERFd87h0hYiIiIiIiIgGHAY6iIiIiIiIiGjAYKCDiIiIiIiIiAYMBjqIiIiIiIiIaMBgoIOIiIiIiIiIBgwGOoiIiIiIiIhowGCgg4iIiIiIiIgGDAY6iIiIiIiIiGjAYKCDiIiIiIiIiAYMBjqIiIiIiIiIaMBgoIOIiIiIiIiIBgwGOoiIiIiIiIhowGCgg4iIiIiIiIgGDAY6iIiIiIiIiGjAYKCDiIiIiIiIiAYML+vP31Vftv4mIiIiIiIiIrpW/XGcLc5BRERERERERHTtA/4f8COyYC7UAckAAAAASUVORK5CYII=;" vertex="1" parent="1">
          <mxGeometry x="320" y="440" width="1082" height="1154" as="geometry" />
        </mxCell>
        <mxCell id="uIYsc5EEo-gaZTBiMCS1-2" value="1" style="whiteSpace=wrap;html=1;aspect=fixed;fillColor=#e1d5e7;strokeColor=#9673a6;" vertex="1" parent="1">
          <mxGeometry x="400" y="670" width="20" height="20" as="geometry" />
        </mxCell>
        <mxCell id="uIYsc5EEo-gaZTBiMCS1-3" value="2" style="whiteSpace=wrap;html=1;aspect=fixed;fillColor=#e1d5e7;strokeColor=#9673a6;" vertex="1" parent="1">
          <mxGeometry x="520" y="670" width="20" height="20" as="geometry" />
        </mxCell>
        <mxCell id="uIYsc5EEo-gaZTBiMCS1-4" value="3" style="whiteSpace=wrap;html=1;aspect=fixed;fillColor=#e1d5e7;strokeColor=#9673a6;" vertex="1" parent="1">
          <mxGeometry x="1170" y="670" width="20" height="20" as="geometry" />
        </mxCell>
        <mxCell id="uIYsc5EEo-gaZTBiMCS1-5" value="4" style="whiteSpace=wrap;html=1;aspect=fixed;fillColor=#e1d5e7;strokeColor=#9673a6;" vertex="1" parent="1">
          <mxGeometry x="1020" y="770" width="20" height="20" as="geometry" />
        </mxCell>
        <mxCell id="uIYsc5EEo-gaZTBiMCS1-6" value="5" style="whiteSpace=wrap;html=1;aspect=fixed;fillColor=#e1d5e7;strokeColor=#9673a6;" vertex="1" parent="1">
          <mxGeometry x="1170" y="770" width="20" height="20" as="geometry" />
        </mxCell>
        <mxCell id="uIYsc5EEo-gaZTBiMCS1-7" value="6" style="whiteSpace=wrap;html=1;aspect=fixed;fillColor=#e1d5e7;strokeColor=#9673a6;" vertex="1" parent="1">
          <mxGeometry x="420" y="850" width="20" height="20" as="geometry" />
        </mxCell>
        <mxCell id="uIYsc5EEo-gaZTBiMCS1-8" value="7" style="whiteSpace=wrap;html=1;aspect=fixed;fillColor=#e1d5e7;strokeColor=#9673a6;" vertex="1" parent="1">
          <mxGeometry x="550" y="960" width="20" height="20" as="geometry" />
        </mxCell>
        <mxCell id="uIYsc5EEo-gaZTBiMCS1-9" value="8&lt;span style=&quot;color: rgba(0, 0, 0, 0); font-family: monospace; font-size: 0px; text-align: start; text-wrap: nowrap;&quot;&gt;%3CmxGraphModel%3E%3Croot%3E%3CmxCell%20id%3D%220%22%2F%3E%3CmxCell%20id%3D%221%22%20parent%3D%220%22%2F%3E%3CmxCell%20id%3D%222%22%20value%3D%227%22%20style%3D%22whiteSpace%3Dwrap%3Bhtml%3D1%3Baspect%3Dfixed%3BfillColor%3D%23e1d5e7%3BstrokeColor%3D%239673a6%3B%22%20vertex%3D%221%22%20parent%3D%221%22%3E%3CmxGeometry%20x%3D%22550%22%20y%3D%22960%22%20width%3D%2220%22%20height%3D%2220%22%20as%3D%22geometry%22%2F%3E%3C%2FmxCell%3E%3C%2Froot%3E%3C%2FmxGraphModel%3E&lt;/span&gt;" style="whiteSpace=wrap;html=1;aspect=fixed;fillColor=#e1d5e7;strokeColor=#9673a6;" vertex="1" parent="1">
          <mxGeometry x="550" y="1030" width="20" height="20" as="geometry" />
        </mxCell>
        <mxCell id="uIYsc5EEo-gaZTBiMCS1-10" value="9" style="whiteSpace=wrap;html=1;aspect=fixed;fillColor=#e1d5e7;strokeColor=#9673a6;" vertex="1" parent="1">
          <mxGeometry x="851" y="1030" width="20" height="20" as="geometry" />
        </mxCell>
        <mxCell id="uIYsc5EEo-gaZTBiMCS1-11" value="10" style="whiteSpace=wrap;html=1;aspect=fixed;fillColor=#e1d5e7;strokeColor=#9673a6;" vertex="1" parent="1">
          <mxGeometry x="550" y="1100" width="20" height="20" as="geometry" />
        </mxCell>
      </root>
    </mxGraphModel>
  </diagram>
</mxfile>
